<mxfile modified="2022-03-22T07:54:14.373Z" host="app.diagrams.net" agent="5.0 (Windows NT 10.0; Win64; x64) AppleWebKit/537.36 (KHTML, like Gecko) Chrome/99.0.4844.74 Safari/537.36" etag="odCDWS6AFQhj7DCs6Irs" version="17.1.3" type="github">
  <diagram id="Ht1M8jgEwFfnCIfOTk4-" name="Page-1">
    <mxGraphModel dx="3116" dy="1103" grid="1" gridSize="10" guides="1" tooltips="1" connect="1" arrows="1" fold="1" page="1" pageScale="1" pageWidth="1169" pageHeight="827" math="0" shadow="0">
      <root>
        <mxCell id="0" />
        <mxCell id="1" parent="0" />
        <mxCell id="xTJOExZGsLGTWN9rmItR-13" value="&lt;b&gt;&lt;font style=&quot;font-size: 19px&quot; color=&quot;#4b5152&quot;&gt;TGC VPC&lt;/font&gt;&lt;/b&gt;" style="points=[[0,0],[0.25,0],[0.5,0],[0.75,0],[1,0],[1,0.25],[1,0.5],[1,0.75],[1,1],[0.75,1],[0.5,1],[0.25,1],[0,1],[0,0.75],[0,0.5],[0,0.25]];outlineConnect=0;gradientColor=none;html=1;whiteSpace=wrap;fontSize=12;fontStyle=0;container=1;pointerEvents=0;collapsible=0;recursiveResize=0;shape=mxgraph.aws4.group;grIcon=mxgraph.aws4.group_vpc;strokeColor=#248814;fillColor=none;verticalAlign=top;align=left;spacingLeft=30;fontColor=#AAB7B8;dashed=0;" parent="1" vertex="1">
          <mxGeometry x="-2050" y="30" width="980" height="800" as="geometry" />
        </mxCell>
        <mxCell id="xTJOExZGsLGTWN9rmItR-37" value="" style="rounded=0;whiteSpace=wrap;html=1;dashed=1;glass=0;shadow=0;" parent="xTJOExZGsLGTWN9rmItR-13" vertex="1">
          <mxGeometry x="181" y="80" width="740" height="150" as="geometry" />
        </mxCell>
        <mxCell id="xTJOExZGsLGTWN9rmItR-36" value="" style="rounded=0;whiteSpace=wrap;html=1;dashed=1;glass=0;shadow=0;" parent="xTJOExZGsLGTWN9rmItR-13" vertex="1">
          <mxGeometry x="181" y="241" width="740" height="150" as="geometry" />
        </mxCell>
        <mxCell id="xTJOExZGsLGTWN9rmItR-32" value="" style="rounded=0;whiteSpace=wrap;html=1;dashed=1;glass=0;shadow=0;" parent="xTJOExZGsLGTWN9rmItR-13" vertex="1">
          <mxGeometry x="181" y="430" width="740" height="310" as="geometry" />
        </mxCell>
        <mxCell id="xTJOExZGsLGTWN9rmItR-9" value="Availability Zone&#xa;ap-northeast-2a" style="fillColor=none;strokeColor=#147EBA;dashed=1;verticalAlign=top;fontStyle=0;fontColor=#147EBA;" parent="xTJOExZGsLGTWN9rmItR-13" vertex="1">
          <mxGeometry x="278" y="32.5" width="170" height="737.5" as="geometry" />
        </mxCell>
        <mxCell id="xTJOExZGsLGTWN9rmItR-14" value="Private subnet&lt;br&gt;10.0.1.0.24" style="points=[[0,0],[0.25,0],[0.5,0],[0.75,0],[1,0],[1,0.25],[1,0.5],[1,0.75],[1,1],[0.75,1],[0.5,1],[0.25,1],[0,1],[0,0.75],[0,0.5],[0,0.25]];outlineConnect=0;gradientColor=none;html=1;whiteSpace=wrap;fontSize=12;fontStyle=0;container=1;pointerEvents=0;collapsible=0;recursiveResize=0;shape=mxgraph.aws4.group;grIcon=mxgraph.aws4.group_security_group;grStroke=0;strokeColor=#147EBA;fillColor=#E6F2F8;verticalAlign=top;align=left;spacingLeft=30;fontColor=#147EBA;dashed=0;" parent="xTJOExZGsLGTWN9rmItR-13" vertex="1">
          <mxGeometry x="297" y="450" width="130" height="130" as="geometry" />
        </mxCell>
        <mxCell id="xTJOExZGsLGTWN9rmItR-17" value="Availability Zone&#xa;ap-northeast-2a" style="fillColor=none;strokeColor=#147EBA;dashed=1;verticalAlign=top;fontStyle=0;fontColor=#147EBA;" parent="xTJOExZGsLGTWN9rmItR-13" vertex="1">
          <mxGeometry x="492" y="32.5" width="170" height="737.5" as="geometry" />
        </mxCell>
        <mxCell id="xTJOExZGsLGTWN9rmItR-18" value="Availability Zone&#xa;ap-northeast-2a" style="fillColor=none;strokeColor=#147EBA;dashed=1;verticalAlign=top;fontStyle=0;fontColor=#147EBA;" parent="xTJOExZGsLGTWN9rmItR-13" vertex="1">
          <mxGeometry x="708" y="32.5" width="170" height="737.5" as="geometry" />
        </mxCell>
        <mxCell id="xTJOExZGsLGTWN9rmItR-19" value="Private subnet&lt;br&gt;10.0.1.0.24" style="points=[[0,0],[0.25,0],[0.5,0],[0.75,0],[1,0],[1,0.25],[1,0.5],[1,0.75],[1,1],[0.75,1],[0.5,1],[0.25,1],[0,1],[0,0.75],[0,0.5],[0,0.25]];outlineConnect=0;gradientColor=none;html=1;whiteSpace=wrap;fontSize=12;fontStyle=0;container=1;pointerEvents=0;collapsible=0;recursiveResize=0;shape=mxgraph.aws4.group;grIcon=mxgraph.aws4.group_security_group;grStroke=0;strokeColor=#147EBA;fillColor=#E6F2F8;verticalAlign=top;align=left;spacingLeft=30;fontColor=#147EBA;dashed=0;" parent="xTJOExZGsLGTWN9rmItR-13" vertex="1">
          <mxGeometry x="511" y="450" width="130" height="130" as="geometry" />
        </mxCell>
        <mxCell id="xTJOExZGsLGTWN9rmItR-20" value="Private subnet&lt;br&gt;10.0.1.0.24" style="points=[[0,0],[0.25,0],[0.5,0],[0.75,0],[1,0],[1,0.25],[1,0.5],[1,0.75],[1,1],[0.75,1],[0.5,1],[0.25,1],[0,1],[0,0.75],[0,0.5],[0,0.25]];outlineConnect=0;gradientColor=none;html=1;whiteSpace=wrap;fontSize=12;fontStyle=0;container=1;pointerEvents=0;collapsible=0;recursiveResize=0;shape=mxgraph.aws4.group;grIcon=mxgraph.aws4.group_security_group;grStroke=0;strokeColor=#147EBA;fillColor=#E6F2F8;verticalAlign=top;align=left;spacingLeft=30;fontColor=#147EBA;dashed=0;" parent="xTJOExZGsLGTWN9rmItR-13" vertex="1">
          <mxGeometry x="727" y="450" width="130" height="130" as="geometry" />
        </mxCell>
        <mxCell id="xTJOExZGsLGTWN9rmItR-21" value="Public subnet&lt;br&gt;10.0.32.0/19" style="points=[[0,0],[0.25,0],[0.5,0],[0.75,0],[1,0],[1,0.25],[1,0.5],[1,0.75],[1,1],[0.75,1],[0.5,1],[0.25,1],[0,1],[0,0.75],[0,0.5],[0,0.25]];outlineConnect=0;gradientColor=none;html=1;whiteSpace=wrap;fontSize=12;fontStyle=0;container=1;pointerEvents=0;collapsible=0;recursiveResize=0;shape=mxgraph.aws4.group;grIcon=mxgraph.aws4.group_security_group;grStroke=0;strokeColor=#248814;fillColor=#E9F3E6;verticalAlign=top;align=left;spacingLeft=30;fontColor=#248814;dashed=0;" parent="xTJOExZGsLGTWN9rmItR-13" vertex="1">
          <mxGeometry x="298" y="90" width="130" height="130" as="geometry" />
        </mxCell>
        <mxCell id="xTJOExZGsLGTWN9rmItR-45" value="" style="shape=image;verticalLabelPosition=bottom;labelBackgroundColor=default;verticalAlign=top;aspect=fixed;imageAspect=0;image=data:image/png,iVBORw0KGgoAAAANSUhEUgAAALgAAAC8CAYAAADLomTRAAAf70lEQVR4nO2df3hTVZ7/X0naBAoBpKVoESQITQUtKhR2G2WeFhha9Eutq/UZqLr2684AzgrzfUZmZik8zgDjWHd2i7MD7MoUHynMCK5YfyFOLSvSrrUdlc6ADQJBfkSEBgopLbnNj+8faZO0TZu0uWmam/t6nj5P782553zuue977ud8zjn3KlwulwsZGYmijLQBMjLhRBa4jKSRBS4jaWSBy0gaWeAykkYWuIykkQUuI2lkgctIGlngMpJGFriMpJEFLiNp4iJtgNRwXbuI88pZXFe/xdXShKv1CtxowdXeBg67O5EqDkX8cBg2EkXCTShGJqEYfQvKmyaiGJUc2ROQGLLAQ8DVdg3n2S9wnmvA+e1XOL87juuGNaQ8FcO0KMenorzlDpS3pqOceA+K4aNEsjj2UMizCfuH89JJHF9/guNEDc5zRwalTOWtM1FNzUQ17X6U424flDKlgizwIHC1XcPxt/exH/0Qp/loRG1Rpswgbsb3Ud25WG7Zg0AWeB84Lxixf/4m9iMVMNSqSaEgbmYecfc+jPJmfaStGbLIAveD03yU9tpdOL76KNKmBIXqjvnEz12GMmVGpE0ZcsgC98HVfJ72w2XYG96NtCkDIi79QeLvK0IxZkKkTRkyyALvoL36VdoPbRt6rkh/USiIn7eceMM/RtqSIUHMC9x59gjCR6U4zccibYqoKFOmo56/GuXEmZE2JaLEtMDbq1+l/eOtkTYjrMR/b0VMt+YxKXBX2zWE9zbiOP5xpE0ZFFSp30P9QHFMhhVjTuBO81Fsbz+P6/KZSJsyqCjGTkKz5PmYi7TElMAdxo+xvbUWHO2RNiUyqOLRPLQJlf57kbZk0IgZgdsb3kV4d0OkzRgSqB9cR1z6g5E2Y1CICYHbv3gLYf8LkTZjSKHO/QVx9zwUaTPCjuTng9sb3pXF7Qdh/wtRO6DVHyQtcIfxY9kt6QPh3Q04jNKOJElW4E7zUXeH0g8q3ZxBtmboYntrbcRnSIYTSQrc1XYN29vP9xotUS/5JXH3/sMgWzVEcbS7w6Zt1yJtSViQpMCF9zYGjHOrc9agXrB6kCwa2rgun0F4b2OkzQgLkhN4e/WrQY9Qxs35AZqC38bkCF93HMc/pr361UibITqSErjz7JF+zy1RTb0PzRPbY26Ezx/tH2/FeXZwluENFpISuPBR6YCOUybexrAntxN3Z47IFkUfA63DoYpkVtW3V78a2pRXhRL1kl+iuGki7Z+84tmtTJ6GYrhWBAvFxXnpFK7WZvHzNR+jvfpVycxAlITAXc3n3YsVRCD+/qdRjJ2I8M4vwenAZbeheeDFIbdKxvbfP8Nh/J+w5N1+aBtxMxYOuXMeCJJwUdoPl4m6EiduxiKGPbkdZdJkXJfPcKPsSUnHinvgcrnrVAJEvcCd5qNhGXJW3jId1R0LAXDdsNL+vztFLyMUwt0ptje8K4mbOuoF3l67Kyz5Cu9t8vjicXOXonn412EpZ+Aowl5CuOp2MIlqgTsvGEV/tYOrtRnbH5/FfuRtd8dz8S9Qz18FiqiuqgHh+OojnBeMkTYjJKK6k2n//E1R83NeaESoWI/T8o17h8uJ8P4LCO9HdjbisKfLUSZP67LPaf7boJRt//xN1It/MShlhYOobZZcbdfcb5wSCcfxj7mx80deccsAYD9SEdXzVKJW4I6/vS9a5MRevwfbG2ug/YYo+UkKl8td11FK1ArcfvRDUfJpr/odwoe/FSUvqSJWXUeCqBS489LJ0ENYTie2t9bS/mm5OEZJGKf5KM5LJyNtxoCISoE7vv4ktAzab3Cj/Ic4jlWKY1AMEHKdR4joFPiJmpCOv7HzRzjP/VUka2KDUOs8UkSdwF1t10L+soLLelEka2IH57kjURlNiTqBO89+EWkToobusfNQica6jz6Bn2uItAlRg/KWNOL/7nHR8ovGuo8+gX/7VaRNiCris38s2khkNNZ91AncIcLcCHXOGhEsiR7i7n4IzbItKEaNDykfMep+sIkqgbuuXQRbS8j5qPRZaH7wOxQjk0SwKjpQ3TaLYU9uRzV59sAzsbW4r0EUEVUCd145K1peKt0c96KGSfeIludQR6FNRrP098Tdkz/gPMS8BoNBVAncdfVbUfNTjL6FYYXbiJu5RNR8hzrq3J8TP//ZAR0r9jUIN9El8JamsOSrfmAt8VnPhCXvoUr83GVoHnkJhWZkv44L1zUIF1El8HbL+bDlHf/3T6B5+DcQPyxsZQw1VKnz0Dy5HeUtdwR9TDivQTiIqgUPQvN3qMOYvyoti2FjJyK88zzO775275vy9ygn3BnGUgOjGJHYY1/c9IUBB3KUN6cGzFuZpGPYE9uxvfNLHMcCzxoUmr8jIWCqoUNUCdzRejXsZSiTpzLsiT9ge+d5HI1VOE5/hmpqJnGzC8Jedn9Q3bEAlWiZxaF5aAPtYyfSfvgPfSYdjGsgJlHlojhsbYNTULwGzcMvEJ/5j+B0IHz4W2xvFQ9O2REkft4PUS95vs80g3YNRCKqBO60C4NXluU0jlP/C4AiYQzxc34waGVHDKENR2NVn0kG8xqIQXS5KHbH4JRjqkWoWI+rtRnF2EkMW/o7FKNuHpSyI4WzyeRecP3d8T7TDdY1EIuoErjdGf7vZdmPvI3w3ibPtmqqAfuRyH7LJu7eh1GMGNtln+OrSpxNp/s8TnlzKqpp8wLm7zj1qfuGbgvsXw/GNRCT6BK4K7weVfsnr9D+yfauZX72x7CWGQwq/fd6CNx+7M8B300YN/P/BBS4/csKhPeDf6lRuK+B2ESVwNvDaK7w3kbsR94JW/5DkfZD/9nvdxCG8xqEg6iy1q4aBnZx83S1XkGoWI/D9Jm4GQ9xhHd/hb3hvX4fZ1dF10BYdAlcrRVV4D3eZBUDuFos7hv6m/oBHW9XD713pfdFVAncOSIZWsXJy3H8Y2wV62PqZT9O81FsFetxXTk38DxGJItoUfiJKoGrbpqA8K0LdVxob1Z1fFUZcy/7cTRWuW/oXj6tGAyC3YXqpuh6KX5UdYkTxibT3BZ6HDbWxG3/7I/Y3vxFSOIGaG5zkDA2ulrwqBL4yOQJXL4uci9T4giV/45QKc6HpS5ftzMyObpa8KhyUUbdcht/bZEFHizOC8aAI5P9oanFjv6W20TLbzCIqhZ8ROLNXHVG02TNyCKmuAGuOhMYkRhdUxaiSuAAIyem0RRiKx7q6vJYpKnFzsiJaZE2o99EncCTpt6FuTm0ztKwJ7ejui2E1eUxiLm5naSpd0XajH4TdQJPTruH8yEKHGUcmmWhrS6PNc43t5OcFn1vIIg6gd88Yw5X2xxYRIimhLK6PJawXLdztc3BzTPmRNqUfhN1AteMHM34O2ZxxiLOxPuBri6PJc5YBMbfMQvNyNGRNqXfRJ3AAW69dx4mkQQOA1tdHkuYLAK33ht4XvlQJCoFPmnOfAS7i5OXbKLlqUzSuTuf078vWp5S4OQlG4LdxaQ58yNtyoCIqoGeTm6alMq4aemcOH+U28dpxMtY2XN1uUqfheahDaCKF68cEVCm3BlwwYMYnLhoY9y0dG6aFPgVFEORqGzBAabc/yBXWh2cuSz+IljP6nKFAofxIDd2/ghXa7Po5Qx1zlwWuNLqYMr9D0balAETtQKfmpUPCgXGC+K5Kb7E3ZmLJm8D0DHN9L+H2iuXw7820njBBgqFu66jlKgVuGbkaPQLC7Bct2NqEr8Vb/90p+ddKMqUGWj+oUT0MkIh5M8oBsDUJGC5bke/sCAqoyedRK3AAdIWud9VctQs7stohA//lfaq/wBANX0hwx7/TxQJY0QtY6jTWaeddRytRGUns5PEKdPRGXIxVe+n4Vwb6bcODy1DoQ3b2+txHD/k3Xfdgu1PQ28wyHnpVNjybjjXRovNic6QS+KU6WErZzCIaoED3JlXhKl6P8e+vcGEm+JJHDGwU3I2ne548U3Xz3Q4vvlcDDOjBst1O8e+dS/juzOvKMLWhE5UuygA46bNZFr2wwB8eWZgrorj1KfYdv6wh7hjkc46nJb9MOOmzYywNaET9QIHuLvgGVAouNRip+Fc/0Ru/7IC259WBfVWJ6nTcK6NSy12UCjcdSoBJCFw7fiJzFq6GoBj397g3JXgZhu2H/qvfr3VScqcu9LucU1mLV2NdvzECFskDpIQOMDMR1Ywblo6AJ+dvo71Rt+Lk4V3NwR8F3asYL3h4LPT1wEYNy2dmY+siLBF4iEZgQPMecr9wVPB7uLTU6309p5IoWI99obIvlBzqOB0waenWhHs7srqrEOpICmBj79jFrOW/QRwRwNqTvr/pqbjdN1gmjWkqTnZ4plbP2vZTxh/x6wIWyQukhI4uF2V2+YuBNx+Za3peoQtGrrUmq57+iu3zV0oKdekE8kJHOC+H/+a0Sk6wD3kXHdapPe9SYi6062eKQ6jU3Tc92NpdrYlKXDNyNHMW12CMs49xfXkJZvckvtQa7rumUuvjItn3uqSqJ5v0heSFDi4B4Cyfup9o5OpSeDwiZZeO56xgNMFh0+0dJmclvXTUkkM6PSGwuVySfqSf131Jp/87uee7cQRcfzdlAS0w0T7CF9UYL3h4NNTrV0Wa9//z7/xjAJLFckLHMD44etUb13n2VbHKZgzeQS33jS0VumEi3NX2vns9HVPKBDAsGID+u8/FkGrBoeYEDj0bMkBpt8yLPQZiEOchnNtnhHKTmKh5e4kZgQO8E3tnzn4r6tx2r1D+eNGxnH3pOEDnoU4VLFct/PlmY65JR0o4+LJ+mmpJ4waC8SUwAEufX2EQ6VruGo2ddkvpdbcX6s9OkXHvNUlku5Q+iPmBA5ga7nK4f/4F76p/XOX/SM1SmakDEeXpI6QZaFhahI4anYvVvDltrkLue/Hv5ZsKLAvYlLgnRx5Yyt/2fXvPfYnjohDf7OGSWOjQ+hnLgsYL9j8vs5u1rKfSHKEMlhiWuAA3331Fz7b8QKXvm7o8dtNCSqmJmvEffeKiJy8ZOPERRtXWnvOnBw3LZ05T/1CcnNL+kvMC7yTI29s5S+7S8FPdajjFOgS1UxKVEe8M2q5bueMRcBkEbqE/TwoFMxaujqmW21fZIH7YP3uLF/u+T1fV73Za5rRw1VMGBNPyph4kkYOjtibWuyYm9s539zO1T4+wjUt+2HuLnhGMosVxEAWuB8ufX2Ev1WUYare32c6dZyCZG0cSSPjGDsijjHDVSF/4lCwu2huc3D5up2mFjsXrXb/LbUPOkMud+YVxVyEJBhkgfeB5dQxGg/8EeOf9/h1XfyRoFYyUqNkhEbJ8HglmnglapUClRKUCrf4nS4XDicIDhe2didt7U6u25y02Jy0Cs4AJXSgUKBfWEDaoh9E/asdwoks8CCwtVzlxMF9nPrkXb+d0cFk3LR0ptz/IFOz8mMy7NdfZIH3kytnjnPms4849/khvvvqL4NS5vg7ZnHrvfOYNGd+1L7lNVLIAg8BW8tVLhz9jIuNX9B04q9cPt2IrSW0109oRo5m7OQ0kqbeRXLaPdw8Y47cUoeALHCRuW65wLVvv6Hl4nlaL1/kxrXLCNevYbe14bS7B2KUcXHEaYajHjGKYaPGkjA2mZHJExh1y21R9x3KoY4scBlJI9kVPTIyIAtcRuLIApeRNLLAZSSNLHAZSSMLXEbSyAKXkTSywGUkjSxwGUkjC1xG0sgCl5E0ssBlJI0scBlJIwtcRtLIApeRNLLAZSSNLHAZSSMLXEbSyAKXkTSywGUkjSxwGUkjC1xG0sgCl5E0ssBlJI0scBlJIwtcRtLIApeRNLLAZSSNLHAZSSMLXEbSyAKXkTSywGUkjSxwGUkjC1xG0sgCl5E0ssD7idBqxWoVwCEgtArQ+5e1ZYYAAT+2bj1Wxd56MyM1agQrZDxSgH5MoINMVLxejU0NjM+gYJE+wAECdfv2YBTUqBEQ1HoK8jNQd8/2eBUVn5pRa7r/EhyCVUPGY3notf080GGl4dB+yl8poep4z58NCwrJXZyLwaBHqxqQaTJhIuBX1kz71vDopirvjsyN1Lyc00N8vggnK8h8bIN7I3UdNbvz+kyPpY7Zi1Z02bX5QD2GxAC2DIA1u2soSA3+BrGerGbDY6sIttR12w6QNzsxcMIBYLVYsLbaQKMlJbm/d2lsEthF0XSryJpittda+j5GpfH+n6TpPV0HpkN7e+yrOGTyk9IWMK+A9KOFNR8qI8uPuLPzCylcWkh2Zs8n04bliyivD1A/A8FhonjRIpbkL2HJ4mKMgvhFSJGALoov+lQwHoeyZ15kfk0J+oF5Ct2wsN9Pq1y16SCWfB2+baHugY28PdvaLaUGjaaJ1xcvo6xz19KNHHgyA1tr9xtCQ1JKcEZbj+9hyf/b0mVf0aYyHl+Q3tUNabVQ9z8VrFjvTVu6/Fn0lbvICOTK9ZMkz3+avp+IMh761ck0HgdSAar41St1ohggnDzsFWYXtlB3slszpdaSMjGl218iicl6pizwJstO05OYmOg3rTqoFtzCzqUlPtsGNu+rYeWi9J4+dkIiGYuLqH9/M9723Ej5AWMwBQ0Qbb+eRLFMv1pwADo6WcYdK/ggp4ac20NrS458sMfzf+GmMtJPvMiaHW5x7Dx4hJzbM4LIpduNEKInY62v6HLTbXz9JQwTA5xnsoH1zxpY9nI1ANUVdVgf09ObpyxYTDSeMGNu7ngiqbXoJunQTU7pcRMKrVZsFjONnj2NmM1WkrSg0Wr93rSWk0YaT5hQJyZCK4yaMAXdZD83eKsVa2f1JWjRdj9Nh4DV2lGhKg3aHglAsFqxOQA0aMf4+b0/5+rJq/dz62GXWos2wX+yfgm8cO1mUmpXUVLp3i5+rJyM+iIG3KUSjOzd0dnS6TFkppOWOB869hm3fYDpqQx0g9paWdn/bz6uSX5J0Dex/oEC9C9XYwQ43kSTgx4tvnC2ju0vraCspvd8in5VxtOL0zvcEIH9T2exoUv0xsiq/CwA1rxeQ4GPfcLZOl782Qoq/ER7QM/qlzZSmKXz7KnbkcWKHR2/PruLXU907VeYDhTz6PpOFzKbvbUl3a6HhfKsRWzpyH9XzS6P6zqQc33rR1mUdNhuWLuXzfk6v8eZK19kydoK90YfgYx+uSjmBB0Fz2322bOFF9/31xkMDssXH3k7cJmPM1ML2ukGDJ4UFVQf6+5zhxlHE/U+4lj36H3BH5toYFd9PfX19dTXr+55Y7YaeS6/7wsOULa+iOJ9Qbo4PnF4S305mfm9iRvASOlzj7LqNa97mTZvtffX+ka61raA8ZBv/6gK49luT0vLKT7q/D8zD08XZ0DnqibjyTzPb9V76/B/9a3UvVfh2Sr8p54h5U76N9DTanNfxOe8EqxaX0zdgIIGAod3eR2BomUdRiboycv3pip9WxxfP2gsZp+oSR7pIbpgvhjf+QPVni0DG3e8TU1tPfW1NRzct4s1+d7Ws2rTfswOADXZpW+zd8fGLnltfG0ve1/fS26nfRerWbS81JsgtYitrx+gpqaGmgN7WeNTp9Uvr6CsI9KjvT3D26DUVGNu9SnEcZ66yq7nUHXsfJdty4k6OuWZnZXhcckGdq6gm5vj7cscL6HhIj1pbmSP58YxkD07xU8iNwMaydQ/8jMKPVtGVrz0QXcvODCWOjZ4jMxm/l1eRydj0Upvun0VGFsZNASrb5thRehlpFKwmDGdNWPu7e+02evbuo+gsdp762x8YzM5d3X4oCo12ol6Cta+zMrUzhRmrB1la5NT0E3X423b8tDrdehu13lcoOryVd6iFmzk4O6VZNyeiFqtRp2oo2BtDSVPeUW15bU69zVL0JGb2bm3iiPnvEYLZ41428mOFIeMXa71qXqvjLPvmRDyuTJmJo/7BAwq6nt6COYvqj03FQtySetjSKD/nUwAVQord6+hvDPSUFlMeW0GRXOD98ZNh3yqbmkeep9OgjbdQDZbOlrSavbXW9DPC8/gSQ983YpMA/6jigL7/3lJN7+4J/q1e9nl8SHV6AyFGBLMQDoZE/0doSVlEp6OfO/PDqvbNem01VLHlt2dvxkoW5vjp3OrJnv5RrJ3POqu15r9HGnOIWOMGv0DeVDjvh7VR00UpLpvhPNGP0/PyjrOCzno1IDDQp2nD1VIuqcjHsq5qsnIL4JK99O9qrwO62Kdz/kI1O0r92ytfMTQZ8h0wHNR1KkFbF3q3d7yzBZMwTbjjq6x73V53SIlaj2P+rQ25W8c7v8TQgxqLL224MEwodt2+mOr2fybEjb/ppBEFeDomNtiMWM6aaTq9RcprvSXU98IVou3RUs1oNO68+7xRxKzPa1mNeaL7lrV3eN1OasPmjrqWsBY39EIZa5k43Odz48Krx9uafRGm54ykOLTOIRyrol3zSe7c+N4CQ2+LnDzER/3JJus9L5HdAfWgneQsXwX2buXdbS0FRS/lsOupwOH9brHvjesexHTDDwdCu1wLeW7fTpZNRuos+T1GLoPP400OXBfoC6oySjeyuYmUPsO1Krgr6+tYEtfHSuriar3D1Jd/REVNeLEym1NZu/G8RKyZpf0ntiXzvNKnEkRuK9JTRUmIQe96jx1+9w/69MNZGeaoMNhqTKeJ+d2HZaj3hZ+5dy0nvkP9FwT9OQthaqOp1JVrQnDYveTsIt78tSj7idJH4QkcBL0/Oz3RVQ945arcdsKPlhQT06AsN6Rdzd03XG8gvIAj/uKQyYMvYSMxESt8q0xGzYbfn2FlOkZ+O3a1Oqhl4tpqd/DouVBiq8fNJ1tDJzID53xZlSJZCzXU7bNCFTRaAZ9gtf/nn93CuoUNdlAFW4/nMU6Gms6XQUDhuldW9JQzzU9Zw3sdh9f8UEdqxfr0HZzT9YsnBkwn9AEDiTOfZqNC8o8j5vif9mDfsOo3g8QjOzd3fvPveFv6D4spOjIo7OtqqaixkT6omBvLAGLsZeWqrmOZ7td8Lzl68i+K4WkpCSSEieQOAaqNmWyZl//TNYk+NxqqUVsLb4PTavNz3iXBk3HE8dm05DmEyFKy8yFbW7bG4wmMoZ33jR67pqqBZWG7AVQVQlUNmKypnOk087MXHS+Ay0inKtWn0EhUA5QU0FjcwEZKl/3pJD7gohwhSxwUJPz3FZ2Vq7oGOAo4dHHek9t+dQn9s1KDtQW+XEBOjhbxez8NR0bW6g7XUjO5DDPwlBNwJAPFR0VX7H2ICsXBXljna2iuBf3xFz7gY+fXMTe7Su7igIAK+aj/Tc5Re/jHkyaQsb09N4TO0BwCKBSdxkl1E7O8LTQjfXVHB7e6X7kMmUMgBp9Vh5UVgB1VH+S5AkD5uXouzzkRDlXlY7s5XrKtxkBI9UNFqZovCFJw7O5XXz+3hBnwUNiBht/1dEJSfV2DnvOtRM4/IbX+85em9W7uAEmZrA61bu5s3Jgj+L+oSbDc1MBbOHFoAZdrOx5qbjXX22+ndXs+X4uONBqpi6Aq+aPLh3wyv009DY25jCxYe5sMjMzyZy7quuMxAQd2R3hOeO+Uko6+kD65XrPza2b3tG/SjVSur7UK7a7uj7hxDrXtAWPe/4vf2MnO/d5tZObFdxTVbQVPbrFK91iPO4VQw9ZXPSNfUPevEBGajEUevrTGLdVYRqEFTTa6bms8bmxqjYto/R9Y6+RHMFipOzZLEr6HLXzUZ3tWs+fHRb2/HyZz+BItwlVDrqO6vn8pp5s8LG3mhdfqfZra92uUm9cOzO7WwhUTXpWXo9j5t/t83RISXePf3QRZhEze3RGQjzXTosmZ+AeEdFDTTnllR2NZurqwHODOhBxyVoiBb/e2GcK40Gf2HfmOjKCeO7rZvtWejnVxsEYutdSULq5y57y9cvInL2Ksn0fUPdXI6aTJoz11ZT/2yoyFy3rO3ICjEqc7N3YsYINr1djaXaHzeoO7mHV3EXdbpBGjEYT1s5BLvUEsn0GZMp3fUBdbQMWwW1vbrHPkPvuVWT+vBzjWSuCIGA53UD5z2ez4mWvpNb9OLdHrDzlnuxuezr8705UKWQs7ZZieUaPp3DI5+ohkay12fg2lUYg70lDr5PYuiOCD+5FPTmHsmf3U+RTkR4cZva/5PW+C/PvC25Oc3I6a1LxTMAp3VdH4fTuFyIMJBuo2beV4vwVPn2GarZs8nNunWSuYe9zOkrzV9A9VeLcx1hJGZ3TuCpeWkXFS30ZYKT4iUd9JhKpUY/3/lrxcjEVeFcoaacXsmttA8s6xxcqS1lWWeo35+y1u8jzt6opOY2V4LGR1FzSus1pT5tdCLu9kYzczJ7hwdDP1YtuXh50WS+gJ2du8NG0gC24RuW9V1LGBF6dk75stc8wPtB5USwmvNViIDvoZV3aLhNw2NfombfgRY062bsVjJ3BoJ6YQUntQbauLQqQUs/KTWXUvFyAbmIahkx/diRSdGgvqxf4zQD9gpXsOlBPfeVWP30XN9n/tJXut7bGp/XU55dwYMdGn8lq3TGwbtvblOT3VkIihme9RxtyMnq0lIkzDD72ZZMx2V9bGvq5erPKYF2mz/aCx5nZj4UkAddkynTgELCcNnHqfJPHv1UnaEmapEPXz/WR1rNGGs1u31SjHcWEFB2JvvOoBSsWq7tM9ZjErnO0HWBtFdCo3NPetQl+WmKHgPlkI+cvWBFQo07QkDR+ArqJgz5SFtq5uhPwwaZMijuiWqtfO0jh9ODrWxa4zNDGUs3sRZ0TyYo4ULuy78hbN+T3osgMaar/5F18krfpoX6JG0TuZMrIiIH5YClLXjGTl3TeZw5LHoULep/33RuywGWGHLY2Mxyv6rIyqfCl/zugpYuywGWGHJrhvi21gXW/X03e3P633iB3MmUkjtzJlJE0ssBlJI0scBlJIwtcRtLIApeRNLLAZSSNLHAZSSMLXEbSyAKXkTT/HwXF9tEAweBmAAAAAElFTkSuQmCC;" parent="xTJOExZGsLGTWN9rmItR-21" vertex="1">
          <mxGeometry x="29.74000000000001" y="45" width="68.51" height="70" as="geometry" />
        </mxCell>
        <mxCell id="xTJOExZGsLGTWN9rmItR-23" value="Public subnet&lt;br&gt;10.0.64.0/19" style="points=[[0,0],[0.25,0],[0.5,0],[0.75,0],[1,0],[1,0.25],[1,0.5],[1,0.75],[1,1],[0.75,1],[0.5,1],[0.25,1],[0,1],[0,0.75],[0,0.5],[0,0.25]];outlineConnect=0;gradientColor=none;html=1;whiteSpace=wrap;fontSize=12;fontStyle=0;container=1;pointerEvents=0;collapsible=0;recursiveResize=0;shape=mxgraph.aws4.group;grIcon=mxgraph.aws4.group_security_group;grStroke=0;strokeColor=#248814;fillColor=#E9F3E6;verticalAlign=top;align=left;spacingLeft=30;fontColor=#248814;dashed=0;" parent="xTJOExZGsLGTWN9rmItR-13" vertex="1">
          <mxGeometry x="512" y="90" width="130" height="130" as="geometry" />
        </mxCell>
        <mxCell id="xTJOExZGsLGTWN9rmItR-24" value="Public subnet&lt;br&gt;10.0.96.0/19" style="points=[[0,0],[0.25,0],[0.5,0],[0.75,0],[1,0],[1,0.25],[1,0.5],[1,0.75],[1,1],[0.75,1],[0.5,1],[0.25,1],[0,1],[0,0.75],[0,0.5],[0,0.25]];outlineConnect=0;gradientColor=none;html=1;whiteSpace=wrap;fontSize=12;fontStyle=0;container=1;pointerEvents=0;collapsible=0;recursiveResize=0;shape=mxgraph.aws4.group;grIcon=mxgraph.aws4.group_security_group;grStroke=0;strokeColor=#248814;fillColor=#E9F3E6;verticalAlign=top;align=left;spacingLeft=30;fontColor=#248814;dashed=0;" parent="xTJOExZGsLGTWN9rmItR-13" vertex="1">
          <mxGeometry x="728" y="90" width="130" height="130" as="geometry" />
        </mxCell>
        <mxCell id="xTJOExZGsLGTWN9rmItR-25" value="TGC-db&lt;br&gt;10.0.192.0/24" style="points=[[0,0],[0.25,0],[0.5,0],[0.75,0],[1,0],[1,0.25],[1,0.5],[1,0.75],[1,1],[0.75,1],[0.5,1],[0.25,1],[0,1],[0,0.75],[0,0.5],[0,0.25]];outlineConnect=0;gradientColor=none;html=1;whiteSpace=wrap;fontSize=12;fontStyle=0;container=1;pointerEvents=0;collapsible=0;recursiveResize=0;shape=mxgraph.aws4.group;grIcon=mxgraph.aws4.group_security_group;grStroke=0;strokeColor=#248814;fillColor=#E9F3E6;verticalAlign=top;align=left;spacingLeft=30;fontColor=#248814;dashed=0;" parent="xTJOExZGsLGTWN9rmItR-13" vertex="1">
          <mxGeometry x="298" y="254" width="130" height="130" as="geometry" />
        </mxCell>
        <mxCell id="xTJOExZGsLGTWN9rmItR-26" value="TGC-db&lt;br&gt;10.0.193.0/24" style="points=[[0,0],[0.25,0],[0.5,0],[0.75,0],[1,0],[1,0.25],[1,0.5],[1,0.75],[1,1],[0.75,1],[0.5,1],[0.25,1],[0,1],[0,0.75],[0,0.5],[0,0.25]];outlineConnect=0;gradientColor=none;html=1;whiteSpace=wrap;fontSize=12;fontStyle=0;container=1;pointerEvents=0;collapsible=0;recursiveResize=0;shape=mxgraph.aws4.group;grIcon=mxgraph.aws4.group_security_group;grStroke=0;strokeColor=#248814;fillColor=#E9F3E6;verticalAlign=top;align=left;spacingLeft=30;fontColor=#248814;dashed=0;" parent="xTJOExZGsLGTWN9rmItR-13" vertex="1">
          <mxGeometry x="512" y="254" width="130" height="130" as="geometry" />
        </mxCell>
        <mxCell id="xTJOExZGsLGTWN9rmItR-27" value="TGC-db&lt;br&gt;10.0.194.0/24" style="points=[[0,0],[0.25,0],[0.5,0],[0.75,0],[1,0],[1,0.25],[1,0.5],[1,0.75],[1,1],[0.75,1],[0.5,1],[0.25,1],[0,1],[0,0.75],[0,0.5],[0,0.25]];outlineConnect=0;gradientColor=none;html=1;whiteSpace=wrap;fontSize=12;fontStyle=0;container=1;pointerEvents=0;collapsible=0;recursiveResize=0;shape=mxgraph.aws4.group;grIcon=mxgraph.aws4.group_security_group;grStroke=0;strokeColor=#248814;fillColor=#E9F3E6;verticalAlign=top;align=left;spacingLeft=30;fontColor=#248814;dashed=0;" parent="xTJOExZGsLGTWN9rmItR-13" vertex="1">
          <mxGeometry x="728" y="254" width="130" height="130" as="geometry" />
        </mxCell>
        <mxCell id="xTJOExZGsLGTWN9rmItR-28" value="Private subnet&lt;br&gt;10.0.195.0.24" style="points=[[0,0],[0.25,0],[0.5,0],[0.75,0],[1,0],[1,0.25],[1,0.5],[1,0.75],[1,1],[0.75,1],[0.5,1],[0.25,1],[0,1],[0,0.75],[0,0.5],[0,0.25]];outlineConnect=0;gradientColor=none;html=1;whiteSpace=wrap;fontSize=12;fontStyle=0;container=1;pointerEvents=0;collapsible=0;recursiveResize=0;shape=mxgraph.aws4.group;grIcon=mxgraph.aws4.group_security_group;grStroke=0;strokeColor=#147EBA;fillColor=#E6F2F8;verticalAlign=top;align=left;spacingLeft=30;fontColor=#147EBA;dashed=0;" parent="xTJOExZGsLGTWN9rmItR-13" vertex="1">
          <mxGeometry x="297" y="592" width="130" height="130" as="geometry" />
        </mxCell>
        <mxCell id="xTJOExZGsLGTWN9rmItR-29" value="Private subnet&lt;br&gt;10.0.196.0.24" style="points=[[0,0],[0.25,0],[0.5,0],[0.75,0],[1,0],[1,0.25],[1,0.5],[1,0.75],[1,1],[0.75,1],[0.5,1],[0.25,1],[0,1],[0,0.75],[0,0.5],[0,0.25]];outlineConnect=0;gradientColor=none;html=1;whiteSpace=wrap;fontSize=12;fontStyle=0;container=1;pointerEvents=0;collapsible=0;recursiveResize=0;shape=mxgraph.aws4.group;grIcon=mxgraph.aws4.group_security_group;grStroke=0;strokeColor=#147EBA;fillColor=#E6F2F8;verticalAlign=top;align=left;spacingLeft=30;fontColor=#147EBA;dashed=0;" parent="xTJOExZGsLGTWN9rmItR-13" vertex="1">
          <mxGeometry x="511" y="592" width="130" height="130" as="geometry" />
        </mxCell>
        <mxCell id="xTJOExZGsLGTWN9rmItR-30" value="Private subnet&lt;br&gt;10.0.197.0.24" style="points=[[0,0],[0.25,0],[0.5,0],[0.75,0],[1,0],[1,0.25],[1,0.5],[1,0.75],[1,1],[0.75,1],[0.5,1],[0.25,1],[0,1],[0,0.75],[0,0.5],[0,0.25]];outlineConnect=0;gradientColor=none;html=1;whiteSpace=wrap;fontSize=12;fontStyle=0;container=1;pointerEvents=0;collapsible=0;recursiveResize=0;shape=mxgraph.aws4.group;grIcon=mxgraph.aws4.group_security_group;grStroke=0;strokeColor=#147EBA;fillColor=#E6F2F8;verticalAlign=top;align=left;spacingLeft=30;fontColor=#147EBA;dashed=0;" parent="xTJOExZGsLGTWN9rmItR-13" vertex="1">
          <mxGeometry x="727" y="592" width="130" height="130" as="geometry" />
        </mxCell>
        <mxCell id="xTJOExZGsLGTWN9rmItR-46" value="" style="shape=image;verticalLabelPosition=bottom;labelBackgroundColor=default;verticalAlign=top;aspect=fixed;imageAspect=0;image=data:image/png,iVBORw0KGgoAAAANSUhEUgAAAHsAAABwCAYAAAA+AA+8AAAaLUlEQVR4nO2deXAc133nP++97jlwCeCBi4d4XyIpXjpISaZk044iW7JsOVnHtpxUnLKz2a3dVCXZ2t3K/rGp3dRuUpVKVSpVKSe7qcSJdTqK7FXsSLJuUhJNiqQo3iJI8AAPgACIawbT3e+3f7wGCYAAOTMYgADBb9UUwZnp7jf97d97v/spERFuY1pA3+wB3MbE4TbZ0wi3yZ5G8G72AEqFbDYDIiDWvaxFJIIoGvq+iHsxoKooUAMv7V7avZQy7u+B95UilUrfzJ85JqhbQUHLZjMQBkimC+luRXrakJ5WbM9FpKsdyVyGXAaCDJLrgSiEKHAHGx+0QSUrwC+DRBpdUQPl1eiKWlTFbFTFLFTlbFS6Cjx/yhI+JcnO9vVCFCBhP9J5Dtt2AmlrwnadQ7pakZ4O6L+MBD2xFKtBrxEg4iQbufpSCuVXQPIOVEUNqmo2uqoBNXMRum4xqqoO5SXB+KTKyifqp48JU4bsbCbj/hCL9HYSNX1AuP9lpOs8BP1ILgM2jL+tY/JKABHAur+Vh/KTkEyiqubgrXkCs+h+VHm1m+aBVHrySv2UIDvb241kerDtzYSH3iI69hpkLwM+IFfX4onAwNqOAgJUehZmySOYlQ+jZ85HpSpIlVdOzFgKxKQl+8pU3duBPXeI8Mhb2JMfIP3doEz8rRJJb9GIb51EqGQVeuEWzPKtmIblqLKaSTfFT1qyMxeaCY+9S3T8XWzLQQgyTqIm53CdxIuFRBm6cRXekq2YJQ+Srp13s0d2BZOK7GxvN9Lfh23+iHD/T7AXjiLZy1etpKkCBSpdja5fjrf2SfS8tahEGanyips7rMlAdjbTBzZCchlyb/8N0ScvgR1kB09JOCtAGYO5+2v4D/46yk+BNqTSZTdlRJOC7ExbC1HTdoIdP0C6WwDjpsRbAUoDEaqyEX/L05hFD5Ce1XhzhnKzyM5mnKlkO84Q7nuF8JN/hlxu8q7JY0Js6yfTeKsfx1v3BLp6TizlE2eq3Tyye3uw54+Se/MvsBcOOa/WlJ2y84WA9tANd5H43H9E1y6eUG19wsnO9vUiYY7o6HZyP/9jCCUmehrBeChf4W/7b5gl96O8xISQPqFkZ/t6kWwP0cHXCd7/GyTTza0vzaNBUOly/M3fxaza5pwx40z4hJGdzWaQnk7CPS8R7v0Rku2+RdfnAqAUKlWJt+4pvPVfQVVUj2uQZULIzvb2IEGGYMcPiD75f47o27gClarErP4S/panUX563OzxcY9nZ7MZJOwn2PGPRHtfQIKgdEGKETH83JN/9pBMF9HeFwCN/8DTZLNmXCR8XMkeWKPDj14i2vs8YqWERMvQZUAb0D7KeFevIRYZiF2LdceUMiJWKiiFWCHa+zwqmcbb8FWyIiV3vowb2dlMBgmyRIfeINz7T0jQfyUMWDxicrUGk0ClalBllajymahUDZTPQpVVg0k4QnMZJNOB9LZC3yWktx3p60b6L4O1gzJWJgH5NkKigHDfP6PKazArt5FFldQOHz/JthG25TDBrmeQvvYSEI2TUGXRc+/HLNiIrl/lkgjKq10igTaMOI3bCOnvQ/rakc7zRGf3Yk/8Att6BESBniTZWUojPa0EO/8BPWM+au7q0p5+vBS0zLlP6X/pv2Lbm50UFQ0BpVHGoBrW4q19DF2/AlU+A5VIX8kNu6F0DkixWCTbi/RcJDq1j3D380j3BXe8jcYwzhJCa/TMBSSf+hPStXeW7LQlJzub6YMwR/ZH/wXb/OGg2HORUKAqavE2/wbeioddrlhJ1lxxSYnZHoKdzxPte9Flu0wWc1BCzMIHSX71f7i4eAnW75KTnem4SLj7RcKdf4+EY5EUAW0wSx/Ev+db6NpFbrrVY3x4hlwinuKjHPbMJwS7nsM2f+CykEqx7IwVnsHf/Jt4654kXVM79tOVYEhAnOEZRS6r5JNXkKjYZ8gl/qmyGrw1X8Rb/1VUxSynlI2EKHAZLVEAuV7nlbMhoMFPoFJV4CdRJgHGG7o+K+Vcl8bDLNiAKq8h2FlJdPi1QYmKNxFWCPf9BF23gmyyzAVOxmCSlU4zEUF6LhEeeBXpitfA4k6ESlfjP/AdvDWPuVTf0aZtibAXjxN9+j727EfY7hYIclc/1wY8H12zCLNgM3rhRnTN3JHPpz107WISn/1dgvQswp1/B15yDL+jBLAW6TpHdOh19KyFqMqZYzpd6ci2luj0HqJjbzCWG6T8FP7mb2NWbQPPv/ZcNnJOiNMfE+59GduyC0THyQ4jzCZKEXVexJ78ALan0Qsfwt/0VVTNXFSibOiyoDSqrAr/gaeBiHDPC+68N9UuV0RH38As2IRZ+dkxnakkZDvnSTfBh89AmKO4qiKndZtlj+Ct/SIkhikkIhDmsBeOEux6juj4uxCGV5IDRj+tDJwdoh6iAz/BNr2DWf043ppH0TPmxRIcQ2lUqhL/nq8j3ReIjm8fZE0MfpjUoP+P78MgQYZg5zPoBfc627vIgElJtBAJsoR7f4y0f1rkKQWifsyi+/E/872hNx/cEpHrJdj3Mv0/+e9ER9+MJa7QaynQPpLLEn70HLmf/k/CY9tH+JpGVc7Cv+9b6PoV7j0bQNiPBH1OT7ABhBkIs2Bz45xZo7FtRwn3vYIE2aLPUhLJls4Wwj0vgvJBitDAtUHdsRD/M7+NqqgZOm2KRfouE+x6lmj/vyC97WPPMo2JseePELz9l5DtwVv9BfBTg8ak0XVL8Tb8CrkL/xldvwFduwxVXRubfxoJs0hXG9J+GtvysXsQLPE9KLG0K5/wo+cxi++FO4pbu8dMdjaTITzwOtLb5sguBtrD3/xtdHXjNdIqQT/h/lcIdz3nkhxKaRIpg3RdIPfaHyPGx1/z6KAHTYHx8ZZ9Bj37OVRl3VUv3ZXvOFsdGyJ9HYR7Xibc8yLSnyu9V85apLeV8PBbZGuXFOVGHdOdy/b2YFubsM3bQXkUFWGyOXTdCsz8DU7zHgwRomPvEux8xlVjjsvaqACP8MO/Jfp0x9WCvwEYDz3zTlSyLDbd9NCqT2PAS6IqZuFt+TaJr/0ZZvEDpfUHAE6nMdgT72HbTpDt7Sn4DGMiW6KAqGkH0n2JokOJiTLMwk2oqtqhNygKsJdOEWz/v5DpHMsw84BCOs4S7n0J6Wkfuv4q7aRUjRYti4k3PipRhpm7msQXfh9v7RMoP01pQ6yCdLcSNX3g/AoFYmxzYqYTe+ojpL+HoqROafTMhZgF913jVpVcH8HP/xy5fHqCvFma6OzHRCd2Qlj4jbwCpVGVs0ls/S7m7ifG7i4eenIk24099RFkLhd8dNF3MZvpw3acJTp/uMiHV5xyXLscPfPOa83pMweITu8CSj0dXgdhP8EHP0Byfdd+Ji4xUjJdSG+HqwMfqPserixqA8lyvPVPYpZvjR/WEkm4gD13CNt51sUhCkDRWoTENi/ZLop/ZiyqcW2sBQ9SesKA6PiOQVUhEwQbIZeOER5+C3/Dk3H9loBESKYb23KQ8ODPsW0nIepH39GIXnw/3pLNqMpat35zVcHTdzTgrX0Se/pjpPdSyYYp2Q7s+SPoxruA/AMkRZGdzWQg0010/EPGthIIpm7R0GnaWmxbM/bi4TGct1goMGmij3+Mt+IRVFkVkstgT+4hPPgK9uTOeK1UzjXQdYbo9IeEe/4J//5v4K3YBl7i6tquNKZxBWb+3YRH346VzFJAEx3/EG/l58l6ybw186Il23a2IBcPXX36C4ZCldW6IMdgxcdG2IvHYqXvJrgptUEunyY69i567mqiI28S7v8Z0nU2Hs8gz9nAP+0nCN75PliLd9cvOcLhiuJmVj9OePSN0o1RaeTiIaT7AqpyVt6HFUm2YM/sj2uli7StlUJVzwN/mLfMhsilJiTTXtx5SwAJcgQf/ACVKsdeaool8jozmDJIbzvhrmfRtUvRDSuufqYNes4qVNVc5NLJ0tjfAtLfTXRqH7pxVd6HFTcHixA1fxQfXuS6qoilepgTJQqwvW0Q5UY5cAIggnS1YC8cgciS7wxjO89iW/bH8YEYSqG8JP59v45uXI0qr3GtOoYnTBY2QEARndxd0DkKfsyymT6nkbZ+UuihXEnuMx6qcjZm3lrXfmowwhByvUWcu9RQhZtNNsReOo3096EGpnIUaIO35gt4Kx/BXjhG+OkO7Mn3sB0t7sEQKFxoNNJ6AMl0kVUqr0yWwucUG2EvNjnzpNDQn0TOJFn5KGblNkz98jiMOeRLE6+FlwqinFkWZFFXOjDFUBq8BLpxBYn6pcjaXyb8dAfRgX/Bth6P5aCA+6lAcr3Yi02Y+WvzOqRgsiUKseeO4OzfQrRLQaUr8R74Ht6yra7D0GTJ6iwZJI6CjVKoqJRzK2sPNWMu3t1fwjSuJNj9Ivb4e8iV6T9f0g323FH0nPzW7cLX7CjAtuzlasegfCBgPBJP/C/89U86DXJEogfywidBHndRUC5YY8OhHRVHnKIVKlmOnrOG5Bf/ELPmKxBlCruW0tjzB0Z/uIahiGk8xHYcz3+JsSGqZi6Jz/8+Zs6q67o+pfcytv0U0l/Ij55MEOzl80Qnf4FcagY/hUpWuLTn8pqhIdQBxHlw/tbvQKqKaM8zSKYrb33BdhzNu+S5cLKz3bG2mV+wXlXMwr//acydG+KAwrBYda7PxYPPH8ZePIo9/ym27XgcRZtqUMjlMwRv/gWYJCpR6bTvmgb0jEb03E3oumWoVPnQe6G0S8e692uoKBNX0GRvrGmLQJCFXDfQcMPRFb5mZ7udAnVDyRbwEnirH8Ms3Xpt+BIgzBF++AzR4dewPe0QZV2FxlSHuLVbwn4k0wZtR4kQ1Mc/Q9+5AX/j19H1S4dKr9KoRBne+q8g3RcIj751Y4kVgcgifV15DavgNVty/fnZdiaBrqp1dcepa0tQJdtN/4//iGDn32M7z0PYf2sQPQSxLS04Tb2vnejo2/S//IeExz+Io4WDoBSqcibexl9FpSvyU2BFHCd5oAiye/Pw8QpKgbfpW6jyGUPj1HGaUe6n/5vo6GvxajBFTa2C4RQ46T5P7oXfITr42rVRM+2haxfh3f1vQOVxX6Jo5CjdCChcG+/vG1T+OhIEogDVuBaz7KFrMjak7zLBjr91qb1mBIVlWkCBX0Ww/fuEB/7VCdBgaA9v7aPomUtjTfs691qse2DyQOFkS3SDaVwBFn/tl9z0PbiSI8xhz+wjOvzamLIkbwkISKaXcPeL2ItNQ9dnpVHl1Xjrv3zj5EWxLrs1DxROto1i+3H0r6iKelT98qEltCLY3g6C/a8ifZfJ30a/hSGCbT9BdOA1JNvDlZuqXBmxnrcGVXadTFIhrlfLzzIqMhh9HaK0wiza4tJth41MLp3EnnhzchTNTRYoQ3jwFaTj1DUCpJJVmCUPje5kUnBlm4s8UPhdH0ilHY1vrdENS+PIzlBER95xUaTJUhY7GSACuV7CQ28ynG3lJ9ENy65P5oALNg8UTraXvM7FBWWSqKp6l3Y7DFHL/inqLBlnKI/o9J5r3zceqqoeZeKQ6IjHqpF9GCOgYLJVsjwmexTR9tLgpYZ9Lq7QvYiMyGmDvo4RlFbl7qU3WtqRcrsUJfPLQytcsv2yG0hnnEc9mGwRyPWTr4t1esLGyu+w4sEbtRBRnuMkDxQh2UnQMvr1r9k3C0BBMlnM5aYRdKwPDX5PBt3PEaDcYSrPAv3CyU5VXmcaV86/HQ5z38WpOaqsutDLTRuosuo4u2Xo8kfY7+7paPfbGNddIg8UNY2rRPkoFweJ+l0rrOGdh5RG33kPyDTrQJwPJHT3ZrhJGkVITysSjeKAUgqVrBo5dDoCCifb+Oj69YyqHVqLPXsIyV2rbHhrH702dXi6QylUxWy8tY8yXIAkyGJbjoyepiWCrl0zouUzEgqfxo2PnrMapUbJwBBxhWfZy0M/VwpVVY+38et5D25awPPw7vkGuqphmBAIkr1M1DRaZYygiNBzV6P0OJleGA9dtwxhlOI3EaTrDLZ579VNT2OoRBlmxWcxSx+JEw2ns3NFUL6PWboNs/wRSAxSskRc56nmfUjPeUa7T6Isun7Z+Ek2SqNnzEGVjbapiYDyCHc/i/S0MqQTg9LoqlrXIGfZF0DZ6ek6VRqURS9/DH/zt9CVw/LnJcJePke4+9nrmrmqvGHEBgajoeA7nUqnwU+iG9YwWiId2mA7z5Db/sNrsy2Mj545n8Tn/wOJh38PjM47anNLwObAaBIP/x6Jz/2Oa+Az3AMWhQTv/xDbeXZ0IsWi69eAPwG1XnrBRqJjr+ISmEciXWOPv044dxVm+Wec520ASqH8JN7dj6HnriLc8yPsuUNIT7vL3riisU91RW4giuWhUi4fTTesxFv/FHrmgqFFgANH9PcSHXkH2/QWQ+rKhkDFAad7CxpNkWQrTOMKwvI610tlJIhF+vsId/8Qla7ELLwnbmAXP6nauL2qG1aSmP0H2IsniJp3IZdOIH1tTpufLI1ji4U2qEQKVTYLNWsxZv4GdO3Ca7tBgQsbRwH21B7C3T9EriSJjAAFqqzOrdcFCERxZCtQFbPRc9cRHX519AtawbY1E7z316A0ZsHGkX+oSaDrl6JrFyJhP+T6kShHUZ2XJhOUcW00E8m4+Y43+rQcBUQndxO899fYtlPXjwyKRc/fEJux+Q+nKLJTqTTZMMAsWE905LXrKNUu2c62nyb30z/C2/xdvLu2Ocf94MQGFddVaeNuSmrqT+D54Wov9PDA64Tvfx/J5dFTTSnMnetQiXRBvUyLXrNTFVX0zV6CqmpELrdc/8tRgGQCgjf+FDl/CO/+b6KrG652/J92iDNOoxy2s4Xw/X8gPPgK+ZY/q6o56NmLSVXk5yYdwJi8G6qyDtO4krD7fH6pMconPPwqtvUYZtlW9LwN6NpFcQ/RQsqJpiriHue5PuzFJmzzL4iOveMa8OtEfkkdWmMaV7qcgQIxNrJT5eg770Gd2uM6D94I4rIh7YUj2I5T6KNvo+uXoeesQ9cvc+2xlHEJdwOhvanKf1yGK/FvRiKk6yL2/FHs2b3u3/ZmV9Ex4nYXI0Ola9AL7s07hj0YY/NbGh+z9EGiw68T9bTladzHe3KEIbatCXvpBBx8FbSgyuvQs1egaubFfcKn8OItQJBFsl1Ix2ls62Gk9wLYgaY88VReSCWrWPTsRZglD+SdnTIYYyI7lS4ji0Iv3kp08gPn7cm7YetApcRAvNYi4Xmiy+djgtXUX8+v7EsS/3+g6X0xv0s5m9ssfQSVqiyqneWYIxKpdBpZch/RvmVOSouBUrg9swc3prkF/eZjaoAn6NrlmEX3FL39U0kc06p8Jv7D/w41ZeuqJz+U8fAf/veunKpIlCYK4fmYeWvRS7ZyO89sPGDRSx7GzLlrhLYk+aMkZKdSaTAe3ronURV1t/PCSwkRVOUcvHVfBuONaUOY0sUXlUbPXoy3+pdH3tvjNoqAAs/HW/NL6NkLx7jml5DsVLqM9Iw6zKrPo+uW512SchvXgdbouuWYFZ8jXVM35n05S86IrpmD/+BvQcJwS2rUEwaBhMF/8LfQNXNKcsbSi5/2MPPX4W/6TaDE2zxMF8Q7GvmbvoOZv65kLcRKnvk3MNXI+sexl5qJjrx6W8ALgnPEmFVfxlv/OKmya1uUFItxEzuVSJPY8k3MvHW31+9CoA1m/kYSm38NlShtZ4pxYyFVXom6owHv3m+iZy246gK9jVHg3KF61gK8+76BuqOBVHllSa8wviJnfMz8dXhbvgdekT7h6QLt6uH8h/4tZt76ogIdN8K4bZY+GNnuDqKmX5B7/U9ci43ba/hQKFBld5DY9p+c77uyZnwuMxFkg2tdHR58g2D795HOFm5P6QMQVHUj/oPfw1v5SEk2RR8NE1aHk0qXkVm6BeX55N77K6T9zG0JV6BnzMd/6LfRCzaNK9EwgZI9gGxXB9G5gwQ//3OXqSGqgBj4LQKlQQl6xgL8z/0upnHluE3dQy470WSD2z1IOs/R/7M/xbZ8NGhr5GkAseB56MYNJB/9A1R1w5jdoPnippANkO3pcntu73qR6NC/It0XufXXcUFV1WJWPoq/8SmXcVJghuhYcNPIhljCs91ETe8T7noBe+GgS6e91aZ1pVzBfd0qvE2/glm0uejUojEN42aSDU5LJwqQ3naCXT8i3PN8XPZzg8YxUwJxDpo2eOt/FX/TUy7TxPjjroyNhJtO9mBkOluxp/YS7Pg/2M7TEARTNxFCKfAT6Oq5+Fu+g56/jnT17Js7pMlENsRbSXVfItz/CtHBn2K7Wl0TmamiwIkFL4mumo2564t4a76Eqqi+KZI8HJOP7GzGVZdEOWxbM1HzbqKmHdhzn8S13pNxeo+na+OhG1ZjFm3B3LnRxQRMArQaUzpRqTDpyB6ObFcHtrMFe2o34YFXsRc/AeLS3+v1CBtvqDivXSwQouvvxlu1DT1vPbq6kVTV+NvNhWLyk53JcGXbJBth208T7HwW2/RuvO2CZmAjwPGXeBl0LYtKVqAXPYR/79ddBwVtYoeJnnBNOx9MerIHwxEfIbkM0tNG1Pwx0rIX23ES6euFbEe8hcJg0kfrXnA9DGs8pwTll0GqBlVWgZ6xBD13jetUVDELlUiDMpOS4MGYUmSPhGxvN7a7FblwHNt6BNt+HOnthp52bF87BJnYlBto5TVqH06u6APagJ9Gl89CVdSgyqtQNYvQs5eh6hajK2eXPNY8EZj6ZA9M8za6KvW5DPT3uL03cn2uwjSXQfp7kb5uiHJI6Fp7KS8BxkeVVbq+L4m0s4UTZahEBaTKUYly1z89bhgwWafpG2HKk30jZDN97kGwFpHoauffgZ89oGhp43b81a5h7GQwlUqNW57s4chmR94pZzKYRuONaUf2dMYUcUvdRilwm+xphNtkTyPcJnsa4f8DjxI2CFrrETkAAAAASUVORK5CYII=;" parent="xTJOExZGsLGTWN9rmItR-13" vertex="1">
          <mxGeometry x="-40" y="50" width="65.89" height="60" as="geometry" />
        </mxCell>
        <mxCell id="xTJOExZGsLGTWN9rmItR-48" value="" style="edgeStyle=orthogonalEdgeStyle;html=1;endArrow=block;elbow=vertical;startArrow=block;startFill=1;endFill=1;strokeColor=#545B64;rounded=0;fontSize=19;fontColor=#4B5152;exitX=1;exitY=0.5;exitDx=0;exitDy=0;strokeWidth=3;" parent="xTJOExZGsLGTWN9rmItR-13" source="xTJOExZGsLGTWN9rmItR-46" target="xTJOExZGsLGTWN9rmItR-45" edge="1">
          <mxGeometry width="100" relative="1" as="geometry">
            <mxPoint x="220" y="410" as="sourcePoint" />
            <mxPoint x="320" y="410" as="targetPoint" />
            <Array as="points">
              <mxPoint x="140" y="80" />
              <mxPoint x="140" y="180" />
            </Array>
          </mxGeometry>
        </mxCell>
        <mxCell id="xTJOExZGsLGTWN9rmItR-51" value="" style="shape=image;verticalLabelPosition=bottom;labelBackgroundColor=default;verticalAlign=top;aspect=fixed;imageAspect=0;image=data:image/png,iVBORw0KGgoAAAANSUhEUgAAAKcAAAClCAYAAAA53u3nAAAgAElEQVR4nO29+ZNc13Xn+blvy32pfUMt2EFiIQlxEUlJXGSZ2mVb3dGWPR71hGftmO6I9kRHTHRMxMwv88PMHzDT4Rh3hN3utkZ2W5ItybI0FClK3BeQxELsaxVqz6zc33bvnR9eFggSVYWqQlUhC8hPBIACkPnyZr5vnnvuueeeI7TWmjZtWhDrbg+gFVnt91UIsaXXut9oi/MmtNaEYYgMQ0BHvzSgNWj18d+FAMPEiccxDHPF63mNBsggeq4QIIzoTwQIAAMhBE4sBrRFejP3nTg/tmRNoTX/DEMf6ftoGaDDAEIfpA8qRPsNcCvowEO7NVQsjTmwD9sZhBXE6bkuYWECdfkYwrIRiSQikUMIGxIphOGAZaNNB8+zEZaNE080xQuRgD8W6/0m3PtKnDIMCDwPZIiWPgQuyq2j/Rq4FagVkQvTyLkJ9NxVKF6BWgEd1kH7oFyUlpSHnib1wr8m1tGHadnLvp6SAaUTvyb40f9C2vIiS2lkEGYCnBQiN4jID2F0DmH0DCJSXchsHzhJiCURsSTYMYRhYdgx7FjsvhLoPStOrXU0HaPRMkT5LkFtAV1dQJVm0KXryMI44fRl1MxFKE9iBGXQEoQDwgJhIhDNny0wkzQ8j5JrYYerGgRlV1OtJ0h3ZmjO42ilEY0KqvERXD+O1AEaD2GkEPFORNcwRt8ejJ5RyA9g5AYwcr3odB47kQbTRhgGN1vWe1G095w4tVYopQncOtqro+sLqOJ19Mxl1Pwl1PwV1PwkujwFfgWtNQZW5AsayZuu1BRSdNEb/1quSxaqIXmpPvHvy9EINDOlkIG0IG5/7AJEzzTAsAEbQfTa2q2gJ06gJo6jDRPiOczOEYyeYUTnDvzOEUT3CEauD5HIIpw4pu1gWfY9J9B7QpxKKQC0kvj1CrpWQpcmUeOnkRMfombPo4uz6No8KB+wm76iw1ruZyA1Cw1JLdCo1QbgNMzWfIoN6LdNbn25T/2LEIAR/aiBRhl17QPUtWNgJxCZLujoR/Tuwxo+jDmwF53rh1QO04n8VdH8td3ZtuJcFCRa47sNlFtFLUyiJ88gz7+Fuv4hul6GRi3yL2nedCOx7tesegEzVQ8ZqjU9b6HuM1/T9KZjmMZaRSPAaN4mKdELU1CaRo+fJvjoF8iOQYyRJ5BjD2P07kRkerCSaUzLAra3ULetOH3XBS3RjQpy9hLBlfcJTv0KMXMK4QcgFwXUDN/cIUprSm5Aoe6TlKsXp0YjtWaq4rO3R2GusLpfHUbkEwQe2neRlQXk9XOEx3+KMfIw1t4n0UMHCfMDiFgSOxZvCnX7sW1GrVTTx9MaLX10eRo5dw115R2CY/+AmjmBIZJNH25jBHkzodLM1XwageSGZ3pbixT9vyEEMxWXkhvSkzLX5EqseG0hIqGGEl2aRX7w98hTv8AcfRTr4Bcxhw+jekYQySyYVnPKN7aNJd024vT9yFLo8ixq6izy6ruEJ19Fz50EkUIYWaKY5cbvxmqg5kuK9YBAgmFaiNVYQCEwTBOEwJeS8QWXzqSDtdHiWHzPIgahRp7/NfLy25gjRwn3fw5z+DBG9ygi1YGTSCHMO7XeW0NLi/Nja6nQC9PIqTPIC28gz7yKmjkL2gSRvukZm2MRlNbMVT0qXrRzFE/noptsrGydhWEQy+RwUknccpWL8zX296axHZNNTWgQcZAaefEt1MQp5I5DWHufxBg7ihzaj05mIwtqtLYVbVlxKikJfB/lVtEz5wk++hXqwmuo6Utorx5ZiS36XAOpmK541L0QO56ic2QX6a7eyCqugGXZ5Id30Tl6gIkPZqi6AdMVj0x3cjMM/KeI4rPabyAvvY2aPYd56V3UA5/HHHsU0TmEncwiDAOjRUXakuJUUuK7ddT8OPLSm8gPfo6cPIOuF4FmQHyLEEKw0AgoNnyCQNE9PEb37oOk8p0r7qsD2I5Dpm+YvgcfZ+rU24SywYW5Kru6kis+b2OJ/FJdniesvYGcPYM5fgJr/zMw8jAi0xnNAm1xroySEq01QbWIvPohwfs/Q57/JVTraKVALL9VuFlIpZgqe1Q9iWnH6Bg5QG5oN5YTX9XzrViCvsOPkX51lNLEWabLLsV6QD5hb9DCaJUIC5RCF+cIP/w5evwU6tAXsR78LeTgXrQdByEwW8gfbRlxKikJ3AaqNE149lXCd/8Wef0MyJDFoPRWozWU3ZCZqosXSFJdA3QfeJhEVy/cxt9cRBgGfQceomvsAKWJs4RKc26uxqPDuWhrdMsREATI6fOo8iRq7hrqoa9ijBzBSOYwEsmWsaJ3567fhJISGYb41RLh9VP4r/8n/Jf/FHntOEh5V4eo0cxUPCquBCHI9g/Tt+8w8Uxu1VbPsi1yPYMMHH4My0kgBFwr1qn6cnMHf1tMdKNO+OHP8F/6d/jv/wxVmEB6jWbK4N3nrlvOMAyRlQL++TdQJ3+KPPs2eLVWGBpuqJiteTR8iWXF6Nz5APkdO3HiScQq46hWM2tpx9FnOfnD/8DC5BkagWSq7JHtudvvMQroq6sfICtFxMIk+tDzGAP7iGc777oFvWtmSUpJGPiohUnC478gfPXPCU++1BTmXTfoACw0AkqNAKk18WwPvQc+Q7qrD9tee5JFfnCUgYc+i9AmSsNUuYG/hp2mTUU4iOI44bs/JHj1L5EX3iKsFAkD/64O666oQEpJ6Lt405fw3v07gje/h75+GqGMuzWkWwikolD3qQWRa9Gx8yBdYwew4+vbmzdjCXY//7uYsThKSQr1gLmqt7nxzrUgLHSjTHj6FYLX/gLvxC8IynN3VaBbPq9IKQk9N9oPf+eHhCd/CQuTRGk+reGIA1S8kPmajxeEGGaM/kOPkR0cXfV0/mkMw6DvgaN07jnM9PFXqHkmUxWX3kwca83JIJtI4CEvv49ulDB8F334Bch2YdlbHynZUjMlZRgJc+YCwZv/L/L9n0DxOqgWmd6aSK0p1n0W6j5hIMkM7KR3/0Mk810Yq1ylfxrLtknn8uz/0u+jfKO5Vx9QD+72wujTCAgV6vpZgt/8e4IP/oGgVrorFnRrxem5hNPnCN74j4Qf/BRdmd+UvfA7xQ8VC25II5BoaTBw8Cl6dj5ALB6/7ZblcliWhW3bjD3+LKneHWitKTUCijW/FT+CaGt49grhb/6M4N0fESzMbvkQtkScUoYE9Qrh+AmC1/6c8MOfoWtlWmkaX0RrqHohC/UAP9QkOvvoe/ARMj19G7J6TXZ0s+e5b4AWuKFkpurhSdU6vudNCBFDz48TvPKnBG//AH9ugtD3tuz1t0Scyq3jX3wH//W/RJ54EV2vb9VLr5lAKYqNgIoXoLSg/+Cj9Ow9hGnHNuT6ph1j37PfIp7tQSnNdNWj4gW0pDoBRAy9ME3w1vdxX/8+wdz4lr30pipESklQrxJcfZ/gnb9Bnn0V3XA3+2XXjQa8sLlK90JiqRwDDz5KtneoeXLTJfA9At+PtlNXSRD4BJ5H4LkIAfnh3QwefhLlS8puQKHmo1tWnUQCLU0TvPdDgnd/hDdzldDffB9001brUkpCt044forwnR8iz72Brtdoxan8ZoSAXNxirDNJqquHfrOBceEtfNNGCI3oHMTo242Zya/qnQRBQFiaR46fgkYVDRiBx56eFEZvBsM2iFmbnEK3EWjQC1ME7/0IhIn9xD9B53uwbWfTXnJTxBnFMT3k3BXC935IeObX6HoVdIsLE4hbJiMdSQZzCeyYIn75FcLrb0dCNC2sB59HZHsgk1/VNZUMUdUC4bvfR01dAm2iUfRUiqSH82gBtmlgtMh+9opoIgv6zl8R2nEST3wbUtlNE+iGi3Nx50cWpwiP/YTw1MvoaolWt5iLWIbAdBY/lgBRnlwsTIOw49EJThms7aKhjypNoWYvAFHWj63BTtg3LOb2+HQApdELs6g3/wNhrgdx8HnQUXrgRrPhzp9WClVdIDz+c8IP/gFdKbCNPnogGu3ir0/8TRis671oTfRRLz7/pmII67viXcZCFKcIXvl3hBfeRG7SCn5DxSmlJKyVCE+9SHjsR6iFyY28fJtWQpvoqcsEL/8Z8tpxfM8lCNY4o9yGDROnlJKwUSO8+BbhsR9EJV5aMrrcZqPQSiAnThG8+X3CqUsoubGpdhsmTi0DwvGThO//GHX9XMvtlbfZJMIAeeE1gmN/i64VN/TSdyxOKWVk0ucmkCd/ibz4Ltr3uCeF2Z4IbkWDrpUIj/+c4MwrePXqhk3vd245tUbWSoQXXic89zK6On8P30SN1mtPUtE3aoHeozRX8OF7Pya4ehwVtoA4o/S3BmrmAuHpV1Cz1+70ki2NDH2kV0OvxbfSIL0AFUruydkEAAEyRI5/gPfe3yFLMwQbsIN0Z0rSGlUtIM+9hrp8rFmf6F69AUTFHZRc80JPa4lah8XdXgjwPDj3GvLC20jfvWOBrlucUkqCRhV55UPCUy81neF7WJhtbo8W6PIs4Qd/h5ofX3WzhuVYv+XUGjU/QXjyRdT0+Tu6VJt7CBmirn1I8PZ/RsnwjqznuhSlpCSolQkvvkl45uV22KjNTQh0o4488zLhmTfQav2xz3WJU2uFvH4aefxFcOu0hdnmkxiohRnC974Pbu0OrrIOdK2EPP8qcuKdDa+D2eYeIfSRE2fwTrxE4LnrusSalKWkxK1V8cZPIc+/CcHm1MNscw+gNbo6izz/MsHcBME6kkPWaPY0ulZAXn4PNXeB1Vftb3P/ISCUqMkLqCtvo9eaZsgaxamlRM1dQV56E92or6LsdJv7GqWiwmyX3kOX1n56c9XiVFLilwuo8VOomSvtFXqbVSDAraGuvkcw/iFurUqwhvPvqxKnUipqp1K8RnjpVXRpgrYw26wKDbpcRF78AF2eXdMaZXWWU2u0V0NNnkVNXaYVKsC12SYII2rHc+1dVHF8TdVdVilOha4VUNeOoQtXtrTsdZt7A12eQ147iQ5cVpuitSpxahlG9dmvnQa2vqBTm+2OQFcKqCtvE5Znoy3NVUzvtxWnlBK/VkbNnEPNnmsH3dusD+mhZi+hJs4gw5BgFdWTV1SaUorAc5GlWbwL70O42EOyTZs1IqwoIfnim+jAYzVT++3NoJLowjXU5bcQYmPqBbW5HxFov4qePoWen1iV23lbcepGFTV+HKMxjW4H3dvcESaqMIO8cixaZN/G71xRnFopdHUeeel9hEi099Hb3BnChMos8toxwnqF8DZ+57LijPzNOmphAjV1vB0+arMhaOWjF66hZq/CbY6urGw53Rpq6jw0tk+tozatjo0uFVFTp0GtXHJ8eXFqja6XUOMfRU1Q7+mzrW22DGGgG4Uoq81fOc9zBXEqdHUONX16/QWs2rT5NBp0EKDLM6hqYcWHLi/O0EcVxtH1adrCbLNxaJASXZpHLUytWCF6WXHq0EcXpiA0WmZG10RtWJRu6SLVLYXWoJqfWcugolk5LI4T+N6yAl1yCa61Rrk11PxVdBjSKupUCooNH6UhF7eJWe2t1JVQWtMIFI1AErcMko7ZGhWUtUK7JXRlBunWMEwLa4kWOreKU2tkEBBUCuiFKyD9KD7VAmitmSy5zNQ8hnNJ+rNx0rEW+cBbjEAqim7AZMml7kuG8wnitknLNIsLQ3S1iG5UIJVd8iG3iFNrTei56Oo8ul6MYlEtIk6ARiiZWHApNUJmax6jHUm60zHibSsKRNay4oZMVTwmSg1mqx5x26AvE2udPRQhIr+zsgD1EjC45MOWntZlgKoU0EHQkllISmnKbkDNDynWfYbzSYbyCTqSNuZ9akUX29TM1zyuFBtMll3qXkioNI5ptIhjtohAyzAygLXisgcll972kT66PActXWdTIBXM1wNKbpnZmsfu7jT9mRhxy4zKrt/tIW4BGpBKU/ECJhZcrhTrFBsBUrb4olEF6MY8ulGMiqMtwTLiDNG1AoRBy5+w1BoCqZkouVTckOGOJMP5OPmEg2MZ97RAFxc8s1WPq8U6k2WXRrBNSi1qBUEV7ZWX3SlaQpwaHXrQKEDYOpZzsd3K4s+fHpXWsOCG1KYrFOs+O/IJ+rMx0o6NZYoWeRcbg9IaXyoWGgHXSy4TJZeFRoDcVidiBTqUqEYdHS59InPJ1TpBA9WYR0kPrVtnMaTRkX+iNJi33gQBhEozWXYpuyFzNY+hXILedIykY7XOSvUOkEpTcgMmyy7Xyy5zVQ8vXH4CFzTb78ioRqjSrbGGEAgIJNqtRzP0Eiy5Wm/UG0zNLFCZrbXUSl0ZFnTuJOVNUS/OLdvER2moeFFL6pIbUqwHDObidKUcHLM1bs5a0Zqoy3DFY7zUYLrsUfVDpNIrdjM27STx7n6qtuBKqYqhN7bjxZ1gujYdhRIDvs9SLbaWFGe14XNu0mVmotZSZTfNWIKxZz7Lkc8NcvE3P2fm+Ntghyw3lYVKU6hFTVbnax47OpKM5BOkY9sr/U8qzYIbcLVQZ6IUzQpBsw320sLUoCCe62bwoS/Qs+cQxTPvcu2j1wndylYPf2k02CmDnYUaXaEktcRDbhUnIKWi7ivKrgKjdcpF20IS6x7igS//AT17H+HKq7/g7Evfwy0VQOglF29KQyNQeKFH2Qsp1Hx2dqXozcSwt8E83wgk4wsNLheiVXgjkCvHKzWAQfeeh9j97DcZ/swzIExK169QDcB3Ja2y4+dY0ey23Nbq9jIhWiNMi0Suk+Gjn6NrbD/5kd1c/PVPmD79FqFfj/Zpl5nqq57kclCn7IUM5xPsyCfIxCxMo7UWTFo3+77XA64U64wvNCi7YeQ/rvA8w7BJ5HsZPPwku5/9FoNHPks820Hp+hWE0Tru2WrZXuJsIoSB4zg4/Ts48JXfp3PnAS699o9ce+clFsZPo0J/2RBYqDSzVY+qF95Y1fdmYqRsc0XfbauQSlP2QibLLteKDeZrPr6MwkNLCrPZVzOWytO99xAjj3+Jkceep2N4F048GT2nBTdSVsO2FCeAaUVDT2ayDBx6lEzvEF27D3L59Z8wffIdarOTYC5tZ7SGui+5WowsUqHuM5SL05WMYZvGlod2F0fZCCRTzVX4dMWj5i1OecsNSGDaMXKDuxl65FmGH3+G3n0PkenqxbIdDMPY8H6UW8m2FecilmUhkiliI7tId/fQObaX8Xd+zdU3XmTy1K9RSiGW8S1DpSnUA6peyHzNZzCXYCiXIJ+wtjSZRCnNXN3narHO9QWXmh/iyxUmcA1aaeKZXgYfeYqdT36JgUNPkO3fQSyZwjQNxBLW8u7PC2tjeXEqDVre9hDSVqK1WNKqmaYJpomZ7WDwgUdIdfbTs/cQl17dx5U3X6I8eWHZ83lKa9xQM1PxqXqSYt1npCNJfyZO3N7c6VADNS/kcqHORNmlWPNxw9t83kpjWHG69hxk59NfY8dnPk/n6B6S2Q7sWGx510RHkRhaKJSEAvTyX5klb5lhmjjpJIl8N60TuRaYsRSmk1jWBAghsJ0YnYPDZLp6yA2O0bP/KOf+v7/h+oevo2R92fcjtabqhbhhJNC5XIJd3SlyCRuDpb8U60E3f1NoZioeZ2aqzFY9GoFaOSFYCFCaeLabkSdeYO/z36Jnz2HSnT3Y8QSGYSwrTCHASiSJ57owbZuWWK1rsBI5rHgSlsjlhCXEaZgm+eHdPP7P/w1erbSisrcWgTAMMgOjOM7ylUeEEJiWhTCS5AZHSeS76BzZzfmX/56Lr/yIWnEyar28xNvSRPv0C42QelCj0AgY60yyI5cgYZsbMi8qpXFDxdnZClcLDSp+SLjSFN4cmGXH6Rg9wt7f+l1Gn3iObN8OnEQSx1nBWhK5PZmefg5984/Y/YWvoDeoL+VGIEyLZGcfyXz3kv9/qzgNk2xnD5nOHlriG3YLIprGb4MhBLFEglg8TjyTJdXdT+/+w5x76e+ZOv4Gnrt8Nsxi+tl0xcUPJYYQjHQksDZgd0lpzamZMlfm61S9lY/GgsAwY6S6Bxl6+Cn2PPN7DBx8hHRHNwixorVcxDAMkuks8b2HaNX7aazWckJkPbc9QtxY1DhGnM4dYyRyneRH93P1rV9y6fWfUbh4KtoxWWKqj1kG+YTNUD5Od8rB2iD3xjQEo/kkUmqmyh5lN0Qp9cnQl9YIDGLZLvoffIKdX/gmOx56nEzPIPFUetmbuRzCMNiOd3Tbr9ZXQzTV2ySyeXp2P0iqq5euXQ9y+fWfM/HeryhPX0arKLHaNgQdSYfBXJz+TIxcwiZmRccbNmJpaAhBd8ohYZv0Z32mSi5TFY+SGzQXLWDaMTpGHmTn019l9PHnyI/sJZHN3XYKv9e4L8QJTYGaJvFkingiSSrfRceOXfTtf5izL/010ydfI2XCaGeKwVz8xgG6zQgpGUKQjlkkbJPupMNg3udascGVgouI5dj59Avs/sLX6d1/lFzvAIZlI4S4r4QJ95E4gU/cYCeeJDc0Rjybp7uni8Ivbcyr75FPJolZJuYmRykEYBmCVMwiZpl0xB3GejsJ9zzLwDf+OzK9O3BSWawVFn/3OveVOAGUktGuiZQIv4Z9/QSZ0z8l4Y5DLhMJeAvHIwDbFFiGRQqBKr6P/fb30J/9fXRsN15DY1g2tn3/lTu/78SplUJVF1ATJwmO/yPy3G/Q1SKG1M096LuzohUi2j033BL6+E8JJj5AH/wt7MO/je4eBdL3nUCXzOf0Pa+ZUNA6h6RuWDMhiMUTa3ruYvlw3aggJ08jz71KePpXqLkrIFVTjy3kz4UBevYS4Wt/gbryHtbBL6LGHkN2jyBiCUzLwrJWL9QwCJDNWpitc0ebn3hzsWpZt9rJJY5pKGS9gixMIu+gHfFmIBCYnX3QNUAsFl/187Tv4l95H3X6ReSZ36BmzoMyW0+UNxCgBdrzkZfeQV0/jjF0BOvgs5h7voDoHYM1iFP5DYK568h6GS1vF1vdOoRhYqXzGD1DsBpxaqUIC9fwXvuPMHmGVrp5SoN59JtYn//DFR+ntcL3PHTgoeauEpz4BeGZV9CzF6Pjznq7VM0ToA206yMvH0PNXsQ4+zryweeR+z6Pke3BdGIrWtEgCPAL0/jv/hB55Z3mce/WQFsJwj1PYz75e9iJW3Phl5zWvUYdf/YyzuQpRKuEbzWgFWLP48uW/9Za47luVIunvoD3/s8I3v1bjMI19I2e38scPGpZmuOVOmrTV30dde19wlO/wH7ij9D7nyIMoiPc1lLTo9Yor44qXIPJM4jb1MTcKjQaaSYJO0aJL/OFWbriB6C0AExa5hCR0AgtEMuMJ/pSNdB+HXnhbfwX/y/U1PsInUZrxfYS5HJEOwG63kCefQt14T3C/c9iP/PHGAN7wFxhfds8vtEq91OgCST4gSK1lmMaSoMbKCylsNe4VbZ5iFt+vmEplUS7FeTkWcK3/jPhyb+D0ASRZGP2dVqM5iF+rQLCE/+If+UY1sPfQD/yNcLOIXDi2E7sRkL2x7TOF1QT3Rmpl8nwZzlxIqj5IbFQYS91ZrNl0OhGBTV5mvDki4Qf/AhdKYIRb6X7sIlEs5tRmUH95v/BPf8K1pGvYe37PHpgN1hLnWlsETSEQhAIC7WM63irOIWBYcfxdIJAitseqtpamqNRkkZpnuDqSfSZXyHPvoqaOQcYkTDvO6LIg5o8i18YJzz/a8J9z2DteRrRtWNNnXq3CqkVvlIow0IYS7sjt/yrEIAZw9UxvLCVomKAEGilkFPnCD/8Gd6ZVzCmzkcLpGXe4P2FBa6LOvcG/vhHyHO/xjr42+hUf8sJVCmNpw204SybBbfEHRUIQyCFwJfRfW+VfAMtDMLzb+BdehU9N44RNAvbtsj4WgJhgIiD5yIvvoeaOgfpXnBrCNk6RzSkAleamIaDWL04QRsmyo5RkwqpFaZojWptBhoxcwHFYiW1VlmstSLRsQ5dKUO1ElmYlqkeC4GChjJJGvFlLecSR/QEdiyBk++lpp2oclmLvKePvyAtFOJqacTH014LCVNr8AJNoG3sRAZjmVX3kndYGCbCSVPyBV6oWkWbbe4RlNbUQ4mnDex4HGOZaiRLitOwbeL5LkJsyo2AljGdbbY9mqheQDVQBPE4sWxm9dO6AEzLJtXZizITzFX9tjbbbChuKKkGYKQ6sdMdy5bLWdLnNCyHREc3yoozU/UIlyko36bNeqh7krJv4KS7cNLZZY+fLClZy7KIZ/NYmTQ1X1JoBK3kT7fZxmilqXghlVCQ7OghnskvGwq8dVoXglg8TjrXSbZ/DB+TiVKUydLWZ5s7pREqCnWPUJvEMh3EUpkl6zrBCvEY04mR7h9FGjFmq37UpaGtzjZ3gNZQagTMVH3i2TSp7l7iqcySWfCwgjgtO0a2fxjTTFD3Q6YrXnsnps0dEUjFfN2n7EOia5Bs38iK56KWFadh22T7hojnO3CDkMlyg1C21v5sm+1F1ZfMVn0wHVIdA6S6e1d8/PLiNEySXX107j5IKGHBDVhwW6cIVJvtRah0VL2v5mPHEmT7dpDqWLqA1yLL7wEKQTyTp2fvI6jQoO5LpivtsFKb9dEIIv24YUgs10l2xy6s2MqnaJcVpxCCeDpH99g+7HgaL5DMVX0qXutktrTZHiitWWgEzNU8tBKkOgfpHNt/2yYKK4ozloiT7t9B176DhIGi1AiYr/krFzlt0+ZTNALFTDVq6iWERbZvhM6R3ZjWOsUZIUjmuxl8+PMoZVLzJTMVl6oXtoPybVaFbLYfn6l4BIEi0dFN194HiWdymCsdyGMVeWdOOkPf/iPE810EoWK+Fjm1sq3ONrfh4x7wkTuoNWQHdtH/4OOspiLVbcVpWja5oTH6Dz6GDjVVXzJV8aJOYhvxDtrcs6im1bxednF9iR1P07XrAfJDY6t6/oriFM2D+umufoYeegozlsAPo/7ec23fs80KaMCXiqmKx2zVQ0lIdQ4xcPhJnNuj2JcAABMwSURBVGRmVWd/bi9O2yaeztK58wC5kb3Rxr0bMrHQoO7fpg9jm/sWpaHshkyUGvhSYdg2ueE99Ow7gmlZmKuoh3DbRwghsGMxsgOj9B94FGE4hEozVXGZWGi0fc82S+IGkqsLDQr1AKEF8VwXfQePku7uw7LtVfUdWN1BHGGQ7Oim74GjpHt2gNLUfMmVYp35ut/2Pdt8glBp5moel+drSKkRhkW2fyf9D3wGJ55cVTcUWKU4BWAnUnTteoCuXQdBmGgN83WfK4U6db91yuq1ubtoDWU34PxcjZofbdg4ySy9+x4mv2M3xm3CRzezOnEaBrFEgvzgCD37HiKe6QYNQaiZLLlMll2C2zV6anNf4IaSy4U6U2UPEAhhkOoapO/BR0l19S6bHrcUqxNnc9WeyHXSd+BhOkb3YpgmGqh4IZcLNeZqXnv1fp8TNHsrXSs2CJoZbFYsTdeuQ/TuPRT1UFpDj6s1Hf42HYfOsX0MHnkKJ5mPijEpzVw1mt6r7X33+xatNaVGwMVCjXJTB0KYpHqHGHzoyWZu8Npqva5JnJGJ7mPwyGfJDe260SraCxWTZZfrJRfvdl1v29xzaA31QHKpUGO67EaFOADLSdC98zCDDz2JtcY6/rBGcRqGQTyVpnfvQQYf/hx2PBcV1yKa3q8U68xU3XZa3X2EBjwpubbQ4EqxfqNPvBAmya4Bhh97jo4dY9jO2mtprtFyRl3QUp29DH/mWbp2H4HmYJSGuZrPpfk6pUZAW5/3B0pppiseZ2eq1G5qNGs5SXr3HWX4M08TT6bW3K8T1llwyLRsuvc8yNiTv00813ejeHAgNddLLufnqlTcoB3/vMfRGgoNn9MzFYr1m+631qS6+9j3xd8h0zOwLmHCOsVpmCbpjm5GHn+OHY9+oXmVaGhuqLhcqHNhvtaOf97jVP2Q9ydKzFRu2ojR4CTzjD31ZXY89CSxxNp9zUXWJc6oC69FbnCUnU9/lc6xQ58ovd4IFBfn61yYawv0XkTr6NjF+xMlpsvejQUQgGE59B54jAMvfAcnnVu2SNdqWHcdQcMwSaQyDBx8lLHPvkAs0/WJ/6/5IRfmqlwt1nG32Qpe6+hogVKf/KX1jV4BG3ZNpTV6G8WHtQYvlBybWOBasfGpxa8gle/nwa/+AfmhXXfc5XjdtaoXM5ZyPQOMPvYchUsnufr2iyjpRyt4DWUv5PxcDds0GO5I4JitX1MzUJqqF1L3w1tEaFgW2QBirF6gGggRFBsBXtlFfyrJ1kCQTVikbHNbtKyuByEfTVe4WoiyjW6gIZbuZOxzX2fg8GexY/F1rdBv5o4KqQshMG2Hzp0H2Pn016nMTFK4fAKto6lcayjUfc7MVhAChnJxHMts6doMoVSMLzS4NF/DDxcrKEd/WPEku/dBUhmspU+Fqy1OTUlmLi3wCVkLiJkGR4fzJO3W/lyU1jQCxZnpKhfm67fEs03Lpnf/I+x99huku3pwYrG7Zzk/HpRFrqef0ceepTh+jnpxgsbC3I3/Vxrmqj6nVIVQaUY7k8Ra2II6pkHaifykqn/zDdDYQuKFrDlMJhHUQ03VkyA+frIQkExbJGwTo8WtpicVp6bKXJyv437qFITAIN09xr4vfpu+A0eIJ5MbMgvcsUqEEBimSaZ3gD1f+DpDDz2L9an+N6ppQT+aqnBhrkajhX1Q0xDkEjbZuI1lbJxg9BKXMg3BYCZGxmntTiD1QHJsfIGL87VbhAmCeKaX3c99m9EnnieZzS9bmGutbJgJM22H7t2HeOArf0jP3s+ANLm5uJLSUdWQE5Mlzs5UWvoMUsqx6EzaONbmWTPRfJ3uTAzbas2ZRBBls79+ucDl+QaN4FMl2IXAtByGHnmaQ9/8Q5L57g0TJmygOC3LIp5MMXjkcQ589Tvkduy9Zf7TGhq+4tR0mVNTFRp+awrUMQ1yCZukbW1qm5t8wqQr2Zot8gTRbPfri7NMltwbWUaffIwi3d3PY3/0J6R7B5Zt2bJeNvQra9k28WSavc99nUO/811SPUO3PEYTdVI4O1vl5FSZqtt6hWmFgM6kQ1fK+UTvz/WGkZbCsQy6knFitykscDeQSjNV8XjzapH5WkCoPt0sLWprmMru5rf+7Z/SMbqHRCKJc4er80+z4fOJ7Tgk0ln2Pvc77P/St0lk86Bv/dZ5geT0TIUPrpcpNFovFzTlmHSlHGKWiLqfKYWWal0tUzREmxTN6wgtycSi8NoGurV3jCYS5vhCg7evFpmpeEsv/hSkOnby1L/83+jd/zCm5SCE2PBQ2KZ44kIIkvkuDrzwBwT1Oudf/gGN0twnj4MKgVRwab5OPZAc7M/Ql45jmqs5br/5GELQlYrT15/B8Eyk0lixJLFcL4a1fE3JWxACy3ZIdg+RHtgDSAw0/QmfbKw1rKYmsoVeqLg4X+XMTJVyI7glJhs92CTVPcLD/+xfMPLYM5i2Qyy+Of1Ghd7E7QmvUWfmwilO/PDfc+Hlv8WtFZfunKA1HUmHfb0ZdnUlibXEAkETakH94Ddwdz6FNkwM0yLdO0h+cJRkJreq5FnXdXErJeavnMMrF9BaI9wqyXe+R3r+VMv07FxoBJycLnO10MAL5NLnyqUm0TnCkX/633Poa9+ho29gU8e0qZ+MYVl0ju7j4Df/OV61ypU3/oHAr3BLiWQR7aAcm1ig2PA41J8lE7Pvcs9NgUlI3vJxdu/B6BkDw2hOX8aqxxaPx9FaM/jgI9E2pQpRUxdwX7kS9e28iwii4Pp4yeXEZJm5arPM0BJvTggDO93Bod/9Yw5+7TuRu7bJbKo4bdvBth2svYc4+l/8K8KGx7X3foaU/pKP90PF+bk6hVrA4aEcg5kYlrF6IWw0wrDQl95DP3iB2PB+TDu2ruskbsrMcSsLhOfeBK8C4u6s1HXzNzeUfDRd4dxslXqwXOw58iUNkhz+vf+WR779X5HtWrki8UaxJfOnYVn07HqAL/zJ/87oY1/DMJbfndbNM8+vnJ/j2HiJqh8QqrvU4lCDKp5DXX0HXS1uzCXdKsHrf4m4i8KUSjNT8/jNpQInpso0lhUmgIEIkzzy3X/DE9/9k6iUzBaxJQ7PogU1+oZ4+l/+r8T/IsPl139Mo7qA/lQf8GaSP1JpTk2Vma157O9N05+Nk7BMzC1d3mqEkUJe/ADv2keETgY7Hl/zQa3Fa7kNl/Dcm6j5Uwinb8NHuxJKRw0Dqn7I1UKdC/N1av7KpSwFFqncKEf+8H/gyNf/gGQ6vXUDZovEuYhhWuT6hnn8u/8Tqc5Ozrz4A6qzEyi9zKlNIZir+sxU5hnpTLKnO0VPKkbcNrZoL1qAsFBzF5ATJzGGHoR1rkxd14XAJXzrbxBm5waPc3m0hlApKl7I9bLLhbkaxbqP1mJ5d0lrDGHQOXqYh//gX7HnC1/Bjq3PpbkTtlSci2090r1DHPrWf42T6+PMP/41xSunkMpd8jmaKKxzrVinWPfpy8QYzifpS8eIbYVIhQApkZfew9z9BOQ6iVpqrxGlkFdPICeObckKPWqAqqh5kuvlBhMLLnM1v5nmtpIwwYol6H/gMY58+18wfPRzWLHYpoWLVmLL4xi2bWPbNkbfDg58+Z+R6Ozj+F//GXMX3152obQ41VfdkJovma74dKdtdnWm6cs42OYmi1SDmvwANX0ahh+AtcQ5Fwl9gvd/jJCgN3GsSoNUinoguV52GV9oUKj7uP4q/HYtmkcsXuDIN79L194jpHMddy3P9K4F2YRhkMx2sPvpF0j3DPLun/+fTJ9+G9+tsexGYTOJueqFNALJZMmlOxVjV3eKvnSMuB35pJvyUboN1PVzqGoBI55a0w3TWqOK15EXftn0sTd+hEpHuahlL2R8ocG1hToVVxI2s+1vP0hJIrGDA9/6Lzn09e+Q7R1EWPZdTYDe1CD8avB9HylD6vPTvPNX/zeXf/X31CtTyMBjNTvZ0Uen6U7H2dWdZCATJ24ZmIbAbIah7vzjjb4s5sghnC//a8zRozjxxKpKq2it8dwGwet/g/+z/wPt+cu2cF7TiJrHPkKtCWWUvT++0OBysUbVW33dVCFMTDtGsrOHR7/7b9n9ua/gJFLEE4m7npl/17cnHMch8CHd3c9T/83/TO++h/joJ3/O/OUT+LXyjaz65Yi23gSzFZfZqksu4dCfidGbiZGL2yRsA9s0sAwR1SFfl1ijZ6jyLHL8I4ye3bDKCha+56LrZeSl18D3V1XRdymi2KSOLKTSeFLRCCSFWsBUxY16/AQha3l3hmmRyPYxcORzPPztP6Z772GsWPyui3KRuy5O4MZZE2GY7Hvua+QGd3Dulz9i/L1fUZ66hPRdEMtPhxpu3PRSI2Ch7nNhrkZH0qEradGRcsjEIqE6poltCExDYKzJBRDoSgF17Rh6z2PQ0ctqFkZaK+TVD1HTF5p71WtxB0BqTag0gVT4oaTqS8puyELDp1APqLjhTYfMVnFtDQhNLNVF5+gBxp76Mruf+Qa5gR2Ypo3tOG1xLoXjODiOw+DhJ8j2j9K75wjnfvUD5s4cp1G5Hk1Vq/jchBCESjNb9ZituDi2ScYxSccsMnGLdMwmHTNJ2iYx08Aym7sgzV/LugJBAzV1Fjl7GdW/N6o1eZsbqb0G6uLrqPmrKw5eNa2ibooxlBo3lNQDScWTVFyfqhdS8SR1X97Ir1yTkHRUiSPR2c2OR55nzzPfoO/Bo2Q7e9ZU/W2raClxLmIaBpneAfZ/6Xfo2vsAE++/wflf/hUL49dwK4XIZVvtPRECP1TMh4pCPcA0DRxT4JiCuGWQcCxSjkXCNkg6JnHLxDENLNPAFFEYyzAE0UsamIXrmJMf4Y8dxYglV7ypSilUaQr/6klC30dj3UhBk0pHVlFqpFb4UlMPJK4fia/mRydAfanxZTSNq5vy19YkShWdJ09me+k7/CSjTz4fGYC+IUw7hlhnRY7NpiXFeeNIaSzGwAOPkBvaycCho5x/+adce+slytOXCNwKINe0uNBEK9pQQq2Z4GCKIBKhEZ3psQwDxzJI2hYxy8A2BLZpELOjRVbMbJC7fJHuA3PEOgdhBXH6nkt5/CITp46jGj6B8giaVtELFV6oaIQS14+m5lDpKOWTKBykmkm+655mNQjDJpHvpnPnQXY+/QI7jn6O/I6dJNKZdZeJ2SpaUpw3Y9sOiXSO2AOfoWf3YfZ+8Vt89OO/YvL465QmTyNDjUZ+nM2wShZv+OJ0igKBjnxbDwoEaD5Z8EAIMLTBYGaKR5+skFZqRa9TyZCp67O89tEMga5F/6g/zp80hNGMA+gb//eJdyHWFxYTwkBgEc92kh95gLGnvsTYZ58nNzCC5cSxY7GWFyZsA3ECOItbZ4kkxt7DdP2P+5k8dYzzv/weC1euUpq+jFcpEgY1dNjcCl2HtblZ3x8fTPj4OlqDVJH1VWoVWfFao7RCatCfOn6pYeM6kWgNwsC0HOx4gmRHH9m+PQwc+SyjTz5PfmgndjyB7TjbQpSLbAtx3oxl2ZiWxejRpxl+6Ammz59k4r1XmT3zAcXxk9Rnp/EalShOqvXGx7tbYyEboaMIhxVLEEt3kukfoWtsH/2HHmPwyJNke4eirH0hsCxrWwkTtqE4P1nixKF//xF6du6nOnud6bMfMnfuJHMXTlCdvEy9NI9XLSIDPzKkgnXHGVsCHdVrEkJEgkx1kuoeID+8h86dB+ndd5juXQdI5rswLDvq97PNBHkz206cn0QQi8UhFieRzpLuG2HwoacoT1ymMn6RmUunKV4+TXVmgkZpNhKq7zerbiyd8d1SLE77Ogp1WfEEsUwPyY5esoOjdI49QOfYAXI7dpLpGSSV78B2tj57aLPY5uL8JLZjY3X1kenoQe0/wo7yArX5acpT4xSunmXh6jkqk+PUS7M0FqbxqyV02CwRcyM8JT4W7SdcwqX8w1XHs5b/++KPiydU9eKPAsOyiGW6SHYMkO7qITs4Qn7kAB3Du8n27yDV0YOdymA298BbMVZ5J9wz4hRCYNs3TfnxOLF0lnR3P51j+9lx9Gn8aoXK3CTlqWuUr1+kMnmV+vwcbq1EozSNV5oldBuoELh5HX2jvpFe3I5i9fug4uM8lkXxq+Yx2ua1hAmGbWLFM8RzAyTyPSRzXSS7ukn1jZAb2kWub5B0Vx9mIoUTT+DE47ftV77duaffnRAi2o4zDJx4gkS2g9zAMBx+DBmGuNUy9YV5aoVZKlNXqc1cxV2Yx682CNw6gVcnDAKU9FChj/QaqFCR6RvGiiW4rTqFwElnyY/uQ8oGZiyOaccx7SSmbUeraydJLBXHycRxsn2k+3eS7R8m29tPMt+F7cRviFqIyKobhrHObPztxV3PSrpbKKWQUqKUREmJVhqtJdL3Cb0GfqOGX68T+j7S95CBh/QbyDAknu2ga2wf+d4BzBU6kgW+R+HaRWbOnUAphRVLYNpxrEQKy7GxnBhOIoWTSGA5MYTlIIQRic+2MISx4vXvde5bcS6ilEIp+fGMvUoEUfnH2+3ehGG4psrFUUBB3NeiXOS+F2eb1uX/B3ye3at/NSt0AAAAAElFTkSuQmCC;" parent="xTJOExZGsLGTWN9rmItR-13" vertex="1">
          <mxGeometry x="177.69" y="80" width="60.73" height="60" as="geometry" />
        </mxCell>
        <mxCell id="xTJOExZGsLGTWN9rmItR-52" value="" style="shape=image;verticalLabelPosition=bottom;labelBackgroundColor=default;verticalAlign=top;aspect=fixed;imageAspect=0;image=data:image/png,iVBORw0KGgoAAAANSUhEUgAAAKcAAAClCAYAAAA53u3nAAAgAElEQVR4nO29+ZNc13Xn+blvy32pfUMt2EFiIQlxEUlJXGSZ2mVb3dGWPR71hGftmO6I9kRHTHRMxMwv88PMHzDT4Rh3hN3utkZ2W5ItybI0FClK3BeQxELsaxVqz6zc33bvnR9eFggSVYWqQlUhC8hPBIACkPnyZr5vnnvuueeeI7TWmjZtWhDrbg+gFVnt91UIsaXXut9oi/MmtNaEYYgMQ0BHvzSgNWj18d+FAMPEiccxDHPF63mNBsggeq4QIIzoTwQIAAMhBE4sBrRFejP3nTg/tmRNoTX/DEMf6ftoGaDDAEIfpA8qRPsNcCvowEO7NVQsjTmwD9sZhBXE6bkuYWECdfkYwrIRiSQikUMIGxIphOGAZaNNB8+zEZaNE080xQuRgD8W6/0m3PtKnDIMCDwPZIiWPgQuyq2j/Rq4FagVkQvTyLkJ9NxVKF6BWgEd1kH7oFyUlpSHnib1wr8m1tGHadnLvp6SAaUTvyb40f9C2vIiS2lkEGYCnBQiN4jID2F0DmH0DCJSXchsHzhJiCURsSTYMYRhYdgx7FjsvhLoPStOrXU0HaPRMkT5LkFtAV1dQJVm0KXryMI44fRl1MxFKE9iBGXQEoQDwgJhIhDNny0wkzQ8j5JrYYerGgRlV1OtJ0h3ZmjO42ilEY0KqvERXD+O1AEaD2GkEPFORNcwRt8ejJ5RyA9g5AYwcr3odB47kQbTRhgGN1vWe1G095w4tVYopQncOtqro+sLqOJ19Mxl1Pwl1PwV1PwkujwFfgWtNQZW5AsayZuu1BRSdNEb/1quSxaqIXmpPvHvy9EINDOlkIG0IG5/7AJEzzTAsAEbQfTa2q2gJ06gJo6jDRPiOczOEYyeYUTnDvzOEUT3CEauD5HIIpw4pu1gWfY9J9B7QpxKKQC0kvj1CrpWQpcmUeOnkRMfombPo4uz6No8KB+wm76iw1ruZyA1Cw1JLdCo1QbgNMzWfIoN6LdNbn25T/2LEIAR/aiBRhl17QPUtWNgJxCZLujoR/Tuwxo+jDmwF53rh1QO04n8VdH8td3ZtuJcFCRa47sNlFtFLUyiJ88gz7+Fuv4hul6GRi3yL2nedCOx7tesegEzVQ8ZqjU9b6HuM1/T9KZjmMZaRSPAaN4mKdELU1CaRo+fJvjoF8iOQYyRJ5BjD2P07kRkerCSaUzLAra3ULetOH3XBS3RjQpy9hLBlfcJTv0KMXMK4QcgFwXUDN/cIUprSm5Aoe6TlKsXp0YjtWaq4rO3R2GusLpfHUbkEwQe2neRlQXk9XOEx3+KMfIw1t4n0UMHCfMDiFgSOxZvCnX7sW1GrVTTx9MaLX10eRo5dw115R2CY/+AmjmBIZJNH25jBHkzodLM1XwageSGZ3pbixT9vyEEMxWXkhvSkzLX5EqseG0hIqGGEl2aRX7w98hTv8AcfRTr4Bcxhw+jekYQySyYVnPKN7aNJd024vT9yFLo8ixq6izy6ruEJ19Fz50EkUIYWaKY5cbvxmqg5kuK9YBAgmFaiNVYQCEwTBOEwJeS8QWXzqSDtdHiWHzPIgahRp7/NfLy25gjRwn3fw5z+DBG9ygi1YGTSCHMO7XeW0NLi/Nja6nQC9PIqTPIC28gz7yKmjkL2gSRvukZm2MRlNbMVT0qXrRzFE/noptsrGydhWEQy+RwUknccpWL8zX296axHZNNTWgQcZAaefEt1MQp5I5DWHufxBg7ihzaj05mIwtqtLYVbVlxKikJfB/lVtEz5wk++hXqwmuo6Utorx5ZiS36XAOpmK541L0QO56ic2QX6a7eyCqugGXZ5Id30Tl6gIkPZqi6AdMVj0x3cjMM/KeI4rPabyAvvY2aPYd56V3UA5/HHHsU0TmEncwiDAOjRUXakuJUUuK7ddT8OPLSm8gPfo6cPIOuF4FmQHyLEEKw0AgoNnyCQNE9PEb37oOk8p0r7qsD2I5Dpm+YvgcfZ+rU24SywYW5Kru6kis+b2OJ/FJdniesvYGcPYM5fgJr/zMw8jAi0xnNAm1xroySEq01QbWIvPohwfs/Q57/JVTraKVALL9VuFlIpZgqe1Q9iWnH6Bg5QG5oN5YTX9XzrViCvsOPkX51lNLEWabLLsV6QD5hb9DCaJUIC5RCF+cIP/w5evwU6tAXsR78LeTgXrQdByEwW8gfbRlxKikJ3AaqNE149lXCd/8Wef0MyJDFoPRWozWU3ZCZqosXSFJdA3QfeJhEVy/cxt9cRBgGfQceomvsAKWJs4RKc26uxqPDuWhrdMsREATI6fOo8iRq7hrqoa9ijBzBSOYwEsmWsaJ3567fhJISGYb41RLh9VP4r/8n/Jf/FHntOEh5V4eo0cxUPCquBCHI9g/Tt+8w8Uxu1VbPsi1yPYMMHH4My0kgBFwr1qn6cnMHf1tMdKNO+OHP8F/6d/jv/wxVmEB6jWbK4N3nrlvOMAyRlQL++TdQJ3+KPPs2eLVWGBpuqJiteTR8iWXF6Nz5APkdO3HiScQq46hWM2tpx9FnOfnD/8DC5BkagWSq7JHtudvvMQroq6sfICtFxMIk+tDzGAP7iGc777oFvWtmSUpJGPiohUnC478gfPXPCU++1BTmXTfoACw0AkqNAKk18WwPvQc+Q7qrD9tee5JFfnCUgYc+i9AmSsNUuYG/hp2mTUU4iOI44bs/JHj1L5EX3iKsFAkD/64O666oQEpJ6Lt405fw3v07gje/h75+GqGMuzWkWwikolD3qQWRa9Gx8yBdYwew4+vbmzdjCXY//7uYsThKSQr1gLmqt7nxzrUgLHSjTHj6FYLX/gLvxC8IynN3VaBbPq9IKQk9N9oPf+eHhCd/CQuTRGk+reGIA1S8kPmajxeEGGaM/kOPkR0cXfV0/mkMw6DvgaN07jnM9PFXqHkmUxWX3kwca83JIJtI4CEvv49ulDB8F334Bch2YdlbHynZUjMlZRgJc+YCwZv/L/L9n0DxOqgWmd6aSK0p1n0W6j5hIMkM7KR3/0Mk810Yq1ylfxrLtknn8uz/0u+jfKO5Vx9QD+72wujTCAgV6vpZgt/8e4IP/oGgVrorFnRrxem5hNPnCN74j4Qf/BRdmd+UvfA7xQ8VC25II5BoaTBw8Cl6dj5ALB6/7ZblcliWhW3bjD3+LKneHWitKTUCijW/FT+CaGt49grhb/6M4N0fESzMbvkQtkScUoYE9Qrh+AmC1/6c8MOfoWtlWmkaX0RrqHohC/UAP9QkOvvoe/ARMj19G7J6TXZ0s+e5b4AWuKFkpurhSdU6vudNCBFDz48TvPKnBG//AH9ugtD3tuz1t0Scyq3jX3wH//W/RJ54EV2vb9VLr5lAKYqNgIoXoLSg/+Cj9Ow9hGnHNuT6ph1j37PfIp7tQSnNdNWj4gW0pDoBRAy9ME3w1vdxX/8+wdz4lr30pipESklQrxJcfZ/gnb9Bnn0V3XA3+2XXjQa8sLlK90JiqRwDDz5KtneoeXLTJfA9At+PtlNXSRD4BJ5H4LkIAfnh3QwefhLlS8puQKHmo1tWnUQCLU0TvPdDgnd/hDdzldDffB9001brUkpCt044forwnR8iz72Brtdoxan8ZoSAXNxirDNJqquHfrOBceEtfNNGCI3oHMTo242Zya/qnQRBQFiaR46fgkYVDRiBx56eFEZvBsM2iFmbnEK3EWjQC1ME7/0IhIn9xD9B53uwbWfTXnJTxBnFMT3k3BXC935IeObX6HoVdIsLE4hbJiMdSQZzCeyYIn75FcLrb0dCNC2sB59HZHsgk1/VNZUMUdUC4bvfR01dAm2iUfRUiqSH82gBtmlgtMh+9opoIgv6zl8R2nEST3wbUtlNE+iGi3Nx50cWpwiP/YTw1MvoaolWt5iLWIbAdBY/lgBRnlwsTIOw49EJThms7aKhjypNoWYvAFHWj63BTtg3LOb2+HQApdELs6g3/wNhrgdx8HnQUXrgRrPhzp9WClVdIDz+c8IP/gFdKbCNPnogGu3ir0/8TRis671oTfRRLz7/pmII67viXcZCFKcIXvl3hBfeRG7SCn5DxSmlJKyVCE+9SHjsR6iFyY28fJtWQpvoqcsEL/8Z8tpxfM8lCNY4o9yGDROnlJKwUSO8+BbhsR9EJV5aMrrcZqPQSiAnThG8+X3CqUsoubGpdhsmTi0DwvGThO//GHX9XMvtlbfZJMIAeeE1gmN/i64VN/TSdyxOKWVk0ucmkCd/ibz4Ltr3uCeF2Z4IbkWDrpUIj/+c4MwrePXqhk3vd245tUbWSoQXXic89zK6On8P30SN1mtPUtE3aoHeozRX8OF7Pya4ehwVtoA4o/S3BmrmAuHpV1Cz1+70ki2NDH2kV0OvxbfSIL0AFUruydkEAAEyRI5/gPfe3yFLMwQbsIN0Z0rSGlUtIM+9hrp8rFmf6F69AUTFHZRc80JPa4lah8XdXgjwPDj3GvLC20jfvWOBrlucUkqCRhV55UPCUy81neF7WJhtbo8W6PIs4Qd/h5ofX3WzhuVYv+XUGjU/QXjyRdT0+Tu6VJt7CBmirn1I8PZ/RsnwjqznuhSlpCSolQkvvkl45uV22KjNTQh0o4488zLhmTfQav2xz3WJU2uFvH4aefxFcOu0hdnmkxiohRnC974Pbu0OrrIOdK2EPP8qcuKdDa+D2eYeIfSRE2fwTrxE4LnrusSalKWkxK1V8cZPIc+/CcHm1MNscw+gNbo6izz/MsHcBME6kkPWaPY0ulZAXn4PNXeB1Vftb3P/ISCUqMkLqCtvo9eaZsgaxamlRM1dQV56E92or6LsdJv7GqWiwmyX3kOX1n56c9XiVFLilwuo8VOomSvtFXqbVSDAraGuvkcw/iFurUqwhvPvqxKnUipqp1K8RnjpVXRpgrYw26wKDbpcRF78AF2eXdMaZXWWU2u0V0NNnkVNXaYVKsC12SYII2rHc+1dVHF8TdVdVilOha4VUNeOoQtXtrTsdZt7A12eQ147iQ5cVpuitSpxahlG9dmvnQa2vqBTm+2OQFcKqCtvE5Znoy3NVUzvtxWnlBK/VkbNnEPNnmsH3dusD+mhZi+hJs4gw5BgFdWTV1SaUorAc5GlWbwL70O42EOyTZs1IqwoIfnim+jAYzVT++3NoJLowjXU5bcQYmPqBbW5HxFov4qePoWen1iV23lbcepGFTV+HKMxjW4H3dvcESaqMIO8cixaZN/G71xRnFopdHUeeel9hEi099Hb3BnChMos8toxwnqF8DZ+57LijPzNOmphAjV1vB0+arMhaOWjF66hZq/CbY6urGw53Rpq6jw0tk+tozatjo0uFVFTp0GtXHJ8eXFqja6XUOMfRU1Q7+mzrW22DGGgG4Uoq81fOc9zBXEqdHUONX16/QWs2rT5NBp0EKDLM6hqYcWHLi/O0EcVxtH1adrCbLNxaJASXZpHLUytWCF6WXHq0EcXpiA0WmZG10RtWJRu6SLVLYXWoJqfWcugolk5LI4T+N6yAl1yCa61Rrk11PxVdBjSKupUCooNH6UhF7eJWe2t1JVQWtMIFI1AErcMko7ZGhWUtUK7JXRlBunWMEwLa4kWOreKU2tkEBBUCuiFKyD9KD7VAmitmSy5zNQ8hnNJ+rNx0rEW+cBbjEAqim7AZMml7kuG8wnitknLNIsLQ3S1iG5UIJVd8iG3iFNrTei56Oo8ul6MYlEtIk6ARiiZWHApNUJmax6jHUm60zHibSsKRNay4oZMVTwmSg1mqx5x26AvE2udPRQhIr+zsgD1EjC45MOWntZlgKoU0EHQkllISmnKbkDNDynWfYbzSYbyCTqSNuZ9akUX29TM1zyuFBtMll3qXkioNI5ptIhjtohAyzAygLXisgcll972kT66PActXWdTIBXM1wNKbpnZmsfu7jT9mRhxy4zKrt/tIW4BGpBKU/ECJhZcrhTrFBsBUrb4olEF6MY8ulGMiqMtwTLiDNG1AoRBy5+w1BoCqZkouVTckOGOJMP5OPmEg2MZ97RAFxc8s1WPq8U6k2WXRrBNSi1qBUEV7ZWX3SlaQpwaHXrQKEDYOpZzsd3K4s+fHpXWsOCG1KYrFOs+O/IJ+rMx0o6NZYoWeRcbg9IaXyoWGgHXSy4TJZeFRoDcVidiBTqUqEYdHS59InPJ1TpBA9WYR0kPrVtnMaTRkX+iNJi33gQBhEozWXYpuyFzNY+hXILedIykY7XOSvUOkEpTcgMmyy7Xyy5zVQ8vXH4CFzTb78ioRqjSrbGGEAgIJNqtRzP0Eiy5Wm/UG0zNLFCZrbXUSl0ZFnTuJOVNUS/OLdvER2moeFFL6pIbUqwHDObidKUcHLM1bs5a0Zqoy3DFY7zUYLrsUfVDpNIrdjM27STx7n6qtuBKqYqhN7bjxZ1gujYdhRIDvs9SLbaWFGe14XNu0mVmotZSZTfNWIKxZz7Lkc8NcvE3P2fm+Ntghyw3lYVKU6hFTVbnax47OpKM5BOkY9sr/U8qzYIbcLVQZ6IUzQpBsw320sLUoCCe62bwoS/Qs+cQxTPvcu2j1wndylYPf2k02CmDnYUaXaEktcRDbhUnIKWi7ivKrgKjdcpF20IS6x7igS//AT17H+HKq7/g7Evfwy0VQOglF29KQyNQeKFH2Qsp1Hx2dqXozcSwt8E83wgk4wsNLheiVXgjkCvHKzWAQfeeh9j97DcZ/swzIExK169QDcB3Ja2y4+dY0ey23Nbq9jIhWiNMi0Suk+Gjn6NrbD/5kd1c/PVPmD79FqFfj/Zpl5nqq57kclCn7IUM5xPsyCfIxCxMo7UWTFo3+77XA64U64wvNCi7YeQ/rvA8w7BJ5HsZPPwku5/9FoNHPks820Hp+hWE0Tru2WrZXuJsIoSB4zg4/Ts48JXfp3PnAS699o9ce+clFsZPo0J/2RBYqDSzVY+qF95Y1fdmYqRsc0XfbauQSlP2QibLLteKDeZrPr6MwkNLCrPZVzOWytO99xAjj3+Jkceep2N4F048GT2nBTdSVsO2FCeAaUVDT2ayDBx6lEzvEF27D3L59Z8wffIdarOTYC5tZ7SGui+5WowsUqHuM5SL05WMYZvGlod2F0fZCCRTzVX4dMWj5i1OecsNSGDaMXKDuxl65FmGH3+G3n0PkenqxbIdDMPY8H6UW8m2FecilmUhkiliI7tId/fQObaX8Xd+zdU3XmTy1K9RSiGW8S1DpSnUA6peyHzNZzCXYCiXIJ+wtjSZRCnNXN3narHO9QWXmh/iyxUmcA1aaeKZXgYfeYqdT36JgUNPkO3fQSyZwjQNxBLW8u7PC2tjeXEqDVre9hDSVqK1WNKqmaYJpomZ7WDwgUdIdfbTs/cQl17dx5U3X6I8eWHZ83lKa9xQM1PxqXqSYt1npCNJfyZO3N7c6VADNS/kcqHORNmlWPNxw9t83kpjWHG69hxk59NfY8dnPk/n6B6S2Q7sWGx510RHkRhaKJSEAvTyX5klb5lhmjjpJIl8N60TuRaYsRSmk1jWBAghsJ0YnYPDZLp6yA2O0bP/KOf+v7/h+oevo2R92fcjtabqhbhhJNC5XIJd3SlyCRuDpb8U60E3f1NoZioeZ2aqzFY9GoFaOSFYCFCaeLabkSdeYO/z36Jnz2HSnT3Y8QSGYSwrTCHASiSJ57owbZuWWK1rsBI5rHgSlsjlhCXEaZgm+eHdPP7P/w1erbSisrcWgTAMMgOjOM7ylUeEEJiWhTCS5AZHSeS76BzZzfmX/56Lr/yIWnEyar28xNvSRPv0C42QelCj0AgY60yyI5cgYZsbMi8qpXFDxdnZClcLDSp+SLjSFN4cmGXH6Rg9wt7f+l1Gn3iObN8OnEQSx1nBWhK5PZmefg5984/Y/YWvoDeoL+VGIEyLZGcfyXz3kv9/qzgNk2xnD5nOHlriG3YLIprGb4MhBLFEglg8TjyTJdXdT+/+w5x76e+ZOv4Gnrt8Nsxi+tl0xcUPJYYQjHQksDZgd0lpzamZMlfm61S9lY/GgsAwY6S6Bxl6+Cn2PPN7DBx8hHRHNwixorVcxDAMkuks8b2HaNX7aazWckJkPbc9QtxY1DhGnM4dYyRyneRH93P1rV9y6fWfUbh4KtoxWWKqj1kG+YTNUD5Od8rB2iD3xjQEo/kkUmqmyh5lN0Qp9cnQl9YIDGLZLvoffIKdX/gmOx56nEzPIPFUetmbuRzCMNiOd3Tbr9ZXQzTV2ySyeXp2P0iqq5euXQ9y+fWfM/HeryhPX0arKLHaNgQdSYfBXJz+TIxcwiZmRccbNmJpaAhBd8ohYZv0Z32mSi5TFY+SGzQXLWDaMTpGHmTn019l9PHnyI/sJZHN3XYKv9e4L8QJTYGaJvFkingiSSrfRceOXfTtf5izL/010ydfI2XCaGeKwVz8xgG6zQgpGUKQjlkkbJPupMNg3udascGVgouI5dj59Avs/sLX6d1/lFzvAIZlI4S4r4QJ95E4gU/cYCeeJDc0Rjybp7uni8Ivbcyr75FPJolZJuYmRykEYBmCVMwiZpl0xB3GejsJ9zzLwDf+OzK9O3BSWawVFn/3OveVOAGUktGuiZQIv4Z9/QSZ0z8l4Y5DLhMJeAvHIwDbFFiGRQqBKr6P/fb30J/9fXRsN15DY1g2tn3/lTu/78SplUJVF1ATJwmO/yPy3G/Q1SKG1M096LuzohUi2j033BL6+E8JJj5AH/wt7MO/je4eBdL3nUCXzOf0Pa+ZUNA6h6RuWDMhiMUTa3ruYvlw3aggJ08jz71KePpXqLkrIFVTjy3kz4UBevYS4Wt/gbryHtbBL6LGHkN2jyBiCUzLwrJWL9QwCJDNWpitc0ebn3hzsWpZt9rJJY5pKGS9gixMIu+gHfFmIBCYnX3QNUAsFl/187Tv4l95H3X6ReSZ36BmzoMyW0+UNxCgBdrzkZfeQV0/jjF0BOvgs5h7voDoHYM1iFP5DYK568h6GS1vF1vdOoRhYqXzGD1DsBpxaqUIC9fwXvuPMHmGVrp5SoN59JtYn//DFR+ntcL3PHTgoeauEpz4BeGZV9CzF6Pjznq7VM0ToA206yMvH0PNXsQ4+zryweeR+z6Pke3BdGIrWtEgCPAL0/jv/hB55Z3mce/WQFsJwj1PYz75e9iJW3Phl5zWvUYdf/YyzuQpRKuEbzWgFWLP48uW/9Za47luVIunvoD3/s8I3v1bjMI19I2e38scPGpZmuOVOmrTV30dde19wlO/wH7ij9D7nyIMoiPc1lLTo9Yor44qXIPJM4jb1MTcKjQaaSYJO0aJL/OFWbriB6C0AExa5hCR0AgtEMuMJ/pSNdB+HXnhbfwX/y/U1PsInUZrxfYS5HJEOwG63kCefQt14T3C/c9iP/PHGAN7wFxhfds8vtEq91OgCST4gSK1lmMaSoMbKCylsNe4VbZ5iFt+vmEplUS7FeTkWcK3/jPhyb+D0ASRZGP2dVqM5iF+rQLCE/+If+UY1sPfQD/yNcLOIXDi2E7sRkL2x7TOF1QT3Rmpl8nwZzlxIqj5IbFQYS91ZrNl0OhGBTV5mvDki4Qf/AhdKYIRb6X7sIlEs5tRmUH95v/BPf8K1pGvYe37PHpgN1hLnWlsETSEQhAIC7WM63irOIWBYcfxdIJAitseqtpamqNRkkZpnuDqSfSZXyHPvoqaOQcYkTDvO6LIg5o8i18YJzz/a8J9z2DteRrRtWNNnXq3CqkVvlIow0IYS7sjt/yrEIAZw9UxvLCVomKAEGilkFPnCD/8Gd6ZVzCmzkcLpGXe4P2FBa6LOvcG/vhHyHO/xjr42+hUf8sJVCmNpw204SybBbfEHRUIQyCFwJfRfW+VfAMtDMLzb+BdehU9N44RNAvbtsj4WgJhgIiD5yIvvoeaOgfpXnBrCNk6RzSkAleamIaDWL04QRsmyo5RkwqpFaZojWptBhoxcwHFYiW1VlmstSLRsQ5dKUO1ElmYlqkeC4GChjJJGvFlLecSR/QEdiyBk++lpp2oclmLvKePvyAtFOJqacTH014LCVNr8AJNoG3sRAZjmVX3kndYGCbCSVPyBV6oWkWbbe4RlNbUQ4mnDex4HGOZaiRLitOwbeL5LkJsyo2AljGdbbY9mqheQDVQBPE4sWxm9dO6AEzLJtXZizITzFX9tjbbbChuKKkGYKQ6sdMdy5bLWdLnNCyHREc3yoozU/UIlyko36bNeqh7krJv4KS7cNLZZY+fLClZy7KIZ/NYmTQ1X1JoBK3kT7fZxmilqXghlVCQ7OghnskvGwq8dVoXglg8TjrXSbZ/DB+TiVKUydLWZ5s7pREqCnWPUJvEMh3EUpkl6zrBCvEY04mR7h9FGjFmq37UpaGtzjZ3gNZQagTMVH3i2TSp7l7iqcySWfCwgjgtO0a2fxjTTFD3Q6YrXnsnps0dEUjFfN2n7EOia5Bs38iK56KWFadh22T7hojnO3CDkMlyg1C21v5sm+1F1ZfMVn0wHVIdA6S6e1d8/PLiNEySXX107j5IKGHBDVhwW6cIVJvtRah0VL2v5mPHEmT7dpDqWLqA1yLL7wEKQTyTp2fvI6jQoO5LpivtsFKb9dEIIv24YUgs10l2xy6s2MqnaJcVpxCCeDpH99g+7HgaL5DMVX0qXutktrTZHiitWWgEzNU8tBKkOgfpHNt/2yYKK4ozloiT7t9B176DhIGi1AiYr/krFzlt0+ZTNALFTDVq6iWERbZvhM6R3ZjWOsUZIUjmuxl8+PMoZVLzJTMVl6oXtoPybVaFbLYfn6l4BIEi0dFN194HiWdymCsdyGMVeWdOOkPf/iPE810EoWK+Fjm1sq3ONrfh4x7wkTuoNWQHdtH/4OOspiLVbcVpWja5oTH6Dz6GDjVVXzJV8aJOYhvxDtrcs6im1bxednF9iR1P07XrAfJDY6t6/oriFM2D+umufoYeegozlsAPo/7ec23fs80KaMCXiqmKx2zVQ0lIdQ4xcPhJnNuj2JcAABMwSURBVGRmVWd/bi9O2yaeztK58wC5kb3Rxr0bMrHQoO7fpg9jm/sWpaHshkyUGvhSYdg2ueE99Ow7gmlZmKuoh3DbRwghsGMxsgOj9B94FGE4hEozVXGZWGi0fc82S+IGkqsLDQr1AKEF8VwXfQePku7uw7LtVfUdWN1BHGGQ7Oim74GjpHt2gNLUfMmVYp35ut/2Pdt8glBp5moel+drSKkRhkW2fyf9D3wGJ55cVTcUWKU4BWAnUnTteoCuXQdBmGgN83WfK4U6db91yuq1ubtoDWU34PxcjZofbdg4ySy9+x4mv2M3xm3CRzezOnEaBrFEgvzgCD37HiKe6QYNQaiZLLlMll2C2zV6anNf4IaSy4U6U2UPEAhhkOoapO/BR0l19S6bHrcUqxNnc9WeyHXSd+BhOkb3YpgmGqh4IZcLNeZqXnv1fp8TNHsrXSs2CJoZbFYsTdeuQ/TuPRT1UFpDj6s1Hf42HYfOsX0MHnkKJ5mPijEpzVw1mt6r7X33+xatNaVGwMVCjXJTB0KYpHqHGHzoyWZu8Npqva5JnJGJ7mPwyGfJDe260SraCxWTZZfrJRfvdl1v29xzaA31QHKpUGO67EaFOADLSdC98zCDDz2JtcY6/rBGcRqGQTyVpnfvQQYf/hx2PBcV1yKa3q8U68xU3XZa3X2EBjwpubbQ4EqxfqNPvBAmya4Bhh97jo4dY9jO2mtprtFyRl3QUp29DH/mWbp2H4HmYJSGuZrPpfk6pUZAW5/3B0pppiseZ2eq1G5qNGs5SXr3HWX4M08TT6bW3K8T1llwyLRsuvc8yNiTv00813ejeHAgNddLLufnqlTcoB3/vMfRGgoNn9MzFYr1m+631qS6+9j3xd8h0zOwLmHCOsVpmCbpjm5GHn+OHY9+oXmVaGhuqLhcqHNhvtaOf97jVP2Q9ydKzFRu2ojR4CTzjD31ZXY89CSxxNp9zUXWJc6oC69FbnCUnU9/lc6xQ58ovd4IFBfn61yYawv0XkTr6NjF+xMlpsvejQUQgGE59B54jAMvfAcnnVu2SNdqWHcdQcMwSaQyDBx8lLHPvkAs0/WJ/6/5IRfmqlwt1nG32Qpe6+hogVKf/KX1jV4BG3ZNpTV6G8WHtQYvlBybWOBasfGpxa8gle/nwa/+AfmhXXfc5XjdtaoXM5ZyPQOMPvYchUsnufr2iyjpRyt4DWUv5PxcDds0GO5I4JitX1MzUJqqF1L3w1tEaFgW2QBirF6gGggRFBsBXtlFfyrJ1kCQTVikbHNbtKyuByEfTVe4WoiyjW6gIZbuZOxzX2fg8GexY/F1rdBv5o4KqQshMG2Hzp0H2Pn016nMTFK4fAKto6lcayjUfc7MVhAChnJxHMts6doMoVSMLzS4NF/DDxcrKEd/WPEku/dBUhmspU+Fqy1OTUlmLi3wCVkLiJkGR4fzJO3W/lyU1jQCxZnpKhfm67fEs03Lpnf/I+x99huku3pwYrG7Zzk/HpRFrqef0ceepTh+jnpxgsbC3I3/Vxrmqj6nVIVQaUY7k8Ra2II6pkHaifykqn/zDdDYQuKFrDlMJhHUQ03VkyA+frIQkExbJGwTo8WtpicVp6bKXJyv437qFITAIN09xr4vfpu+A0eIJ5MbMgvcsUqEEBimSaZ3gD1f+DpDDz2L9an+N6ppQT+aqnBhrkajhX1Q0xDkEjbZuI1lbJxg9BKXMg3BYCZGxmntTiD1QHJsfIGL87VbhAmCeKaX3c99m9EnnieZzS9bmGutbJgJM22H7t2HeOArf0jP3s+ANLm5uJLSUdWQE5Mlzs5UWvoMUsqx6EzaONbmWTPRfJ3uTAzbas2ZRBBls79+ucDl+QaN4FMl2IXAtByGHnmaQ9/8Q5L57g0TJmygOC3LIp5MMXjkcQ589Tvkduy9Zf7TGhq+4tR0mVNTFRp+awrUMQ1yCZukbW1qm5t8wqQr2Zot8gTRbPfri7NMltwbWUaffIwi3d3PY3/0J6R7B5Zt2bJeNvQra9k28WSavc99nUO/811SPUO3PEYTdVI4O1vl5FSZqtt6hWmFgM6kQ1fK+UTvz/WGkZbCsQy6knFitykscDeQSjNV8XjzapH5WkCoPt0sLWprmMru5rf+7Z/SMbqHRCKJc4er80+z4fOJ7Tgk0ln2Pvc77P/St0lk86Bv/dZ5geT0TIUPrpcpNFovFzTlmHSlHGKWiLqfKYWWal0tUzREmxTN6wgtycSi8NoGurV3jCYS5vhCg7evFpmpeEsv/hSkOnby1L/83+jd/zCm5SCE2PBQ2KZ44kIIkvkuDrzwBwT1Oudf/gGN0twnj4MKgVRwab5OPZAc7M/Ql45jmqs5br/5GELQlYrT15/B8Eyk0lixJLFcL4a1fE3JWxACy3ZIdg+RHtgDSAw0/QmfbKw1rKYmsoVeqLg4X+XMTJVyI7glJhs92CTVPcLD/+xfMPLYM5i2Qyy+Of1Ghd7E7QmvUWfmwilO/PDfc+Hlv8WtFZfunKA1HUmHfb0ZdnUlibXEAkETakH94Ddwdz6FNkwM0yLdO0h+cJRkJreq5FnXdXErJeavnMMrF9BaI9wqyXe+R3r+VMv07FxoBJycLnO10MAL5NLnyqUm0TnCkX/633Poa9+ho29gU8e0qZ+MYVl0ju7j4Df/OV61ypU3/oHAr3BLiWQR7aAcm1ig2PA41J8lE7Pvcs9NgUlI3vJxdu/B6BkDw2hOX8aqxxaPx9FaM/jgI9E2pQpRUxdwX7kS9e28iwii4Pp4yeXEZJm5arPM0BJvTggDO93Bod/9Yw5+7TuRu7bJbKo4bdvBth2svYc4+l/8K8KGx7X3foaU/pKP90PF+bk6hVrA4aEcg5kYlrF6IWw0wrDQl95DP3iB2PB+TDu2ruskbsrMcSsLhOfeBK8C4u6s1HXzNzeUfDRd4dxslXqwXOw58iUNkhz+vf+WR779X5HtWrki8UaxJfOnYVn07HqAL/zJ/87oY1/DMJbfndbNM8+vnJ/j2HiJqh8QqrvU4lCDKp5DXX0HXS1uzCXdKsHrf4m4i8KUSjNT8/jNpQInpso0lhUmgIEIkzzy3X/DE9/9k6iUzBaxJQ7PogU1+oZ4+l/+r8T/IsPl139Mo7qA/lQf8GaSP1JpTk2Vma157O9N05+Nk7BMzC1d3mqEkUJe/ADv2keETgY7Hl/zQa3Fa7kNl/Dcm6j5Uwinb8NHuxJKRw0Dqn7I1UKdC/N1av7KpSwFFqncKEf+8H/gyNf/gGQ6vXUDZovEuYhhWuT6hnn8u/8Tqc5Ozrz4A6qzEyi9zKlNIZir+sxU5hnpTLKnO0VPKkbcNrZoL1qAsFBzF5ATJzGGHoR1rkxd14XAJXzrbxBm5waPc3m0hlApKl7I9bLLhbkaxbqP1mJ5d0lrDGHQOXqYh//gX7HnC1/Bjq3PpbkTtlSci2090r1DHPrWf42T6+PMP/41xSunkMpd8jmaKKxzrVinWPfpy8QYzifpS8eIbYVIhQApkZfew9z9BOQ6iVpqrxGlkFdPICeObckKPWqAqqh5kuvlBhMLLnM1v5nmtpIwwYol6H/gMY58+18wfPRzWLHYpoWLVmLL4xi2bWPbNkbfDg58+Z+R6Ozj+F//GXMX3152obQ41VfdkJovma74dKdtdnWm6cs42OYmi1SDmvwANX0ahh+AtcQ5Fwl9gvd/jJCgN3GsSoNUinoguV52GV9oUKj7uP4q/HYtmkcsXuDIN79L194jpHMddy3P9K4F2YRhkMx2sPvpF0j3DPLun/+fTJ9+G9+tsexGYTOJueqFNALJZMmlOxVjV3eKvnSMuB35pJvyUboN1PVzqGoBI55a0w3TWqOK15EXftn0sTd+hEpHuahlL2R8ocG1hToVVxI2s+1vP0hJIrGDA9/6Lzn09e+Q7R1EWPZdTYDe1CD8avB9HylD6vPTvPNX/zeXf/X31CtTyMBjNTvZ0Uen6U7H2dWdZCATJ24ZmIbAbIah7vzjjb4s5sghnC//a8zRozjxxKpKq2it8dwGwet/g/+z/wPt+cu2cF7TiJrHPkKtCWWUvT++0OBysUbVW33dVCFMTDtGsrOHR7/7b9n9ua/gJFLEE4m7npl/17cnHMch8CHd3c9T/83/TO++h/joJ3/O/OUT+LXyjaz65Yi23gSzFZfZqksu4dCfidGbiZGL2yRsA9s0sAwR1SFfl1ijZ6jyLHL8I4ye3bDKCha+56LrZeSl18D3V1XRdymi2KSOLKTSeFLRCCSFWsBUxY16/AQha3l3hmmRyPYxcORzPPztP6Z772GsWPyui3KRuy5O4MZZE2GY7Hvua+QGd3Dulz9i/L1fUZ66hPRdEMtPhxpu3PRSI2Ch7nNhrkZH0qEradGRcsjEIqE6poltCExDYKzJBRDoSgF17Rh6z2PQ0ctqFkZaK+TVD1HTF5p71WtxB0BqTag0gVT4oaTqS8puyELDp1APqLjhTYfMVnFtDQhNLNVF5+gBxp76Mruf+Qa5gR2Ypo3tOG1xLoXjODiOw+DhJ8j2j9K75wjnfvUD5s4cp1G5Hk1Vq/jchBCESjNb9ZituDi2ScYxSccsMnGLdMwmHTNJ2iYx08Aym7sgzV/LugJBAzV1Fjl7GdW/N6o1eZsbqb0G6uLrqPmrKw5eNa2ibooxlBo3lNQDScWTVFyfqhdS8SR1X97Ir1yTkHRUiSPR2c2OR55nzzPfoO/Bo2Q7e9ZU/W2raClxLmIaBpneAfZ/6Xfo2vsAE++/wflf/hUL49dwK4XIZVvtPRECP1TMh4pCPcA0DRxT4JiCuGWQcCxSjkXCNkg6JnHLxDENLNPAFFEYyzAE0UsamIXrmJMf4Y8dxYglV7ypSilUaQr/6klC30dj3UhBk0pHVlFqpFb4UlMPJK4fia/mRydAfanxZTSNq5vy19YkShWdJ09me+k7/CSjTz4fGYC+IUw7hlhnRY7NpiXFeeNIaSzGwAOPkBvaycCho5x/+adce+slytOXCNwKINe0uNBEK9pQQq2Z4GCKIBKhEZ3psQwDxzJI2hYxy8A2BLZpELOjRVbMbJC7fJHuA3PEOgdhBXH6nkt5/CITp46jGj6B8giaVtELFV6oaIQS14+m5lDpKOWTKBykmkm+655mNQjDJpHvpnPnQXY+/QI7jn6O/I6dJNKZdZeJ2SpaUpw3Y9sOiXSO2AOfoWf3YfZ+8Vt89OO/YvL465QmTyNDjUZ+nM2wShZv+OJ0igKBjnxbDwoEaD5Z8EAIMLTBYGaKR5+skFZqRa9TyZCp67O89tEMga5F/6g/zp80hNGMA+gb//eJdyHWFxYTwkBgEc92kh95gLGnvsTYZ58nNzCC5cSxY7GWFyZsA3ECOItbZ4kkxt7DdP2P+5k8dYzzv/weC1euUpq+jFcpEgY1dNjcCl2HtblZ3x8fTPj4OlqDVJH1VWoVWfFao7RCatCfOn6pYeM6kWgNwsC0HOx4gmRHH9m+PQwc+SyjTz5PfmgndjyB7TjbQpSLbAtx3oxl2ZiWxejRpxl+6Ammz59k4r1XmT3zAcXxk9Rnp/EalShOqvXGx7tbYyEboaMIhxVLEEt3kukfoWtsH/2HHmPwyJNke4eirH0hsCxrWwkTtqE4P1nixKF//xF6du6nOnud6bMfMnfuJHMXTlCdvEy9NI9XLSIDPzKkgnXHGVsCHdVrEkJEgkx1kuoeID+8h86dB+ndd5juXQdI5rswLDvq97PNBHkz206cn0QQi8UhFieRzpLuG2HwoacoT1ymMn6RmUunKV4+TXVmgkZpNhKq7zerbiyd8d1SLE77Ogp1WfEEsUwPyY5esoOjdI49QOfYAXI7dpLpGSSV78B2tj57aLPY5uL8JLZjY3X1kenoQe0/wo7yArX5acpT4xSunmXh6jkqk+PUS7M0FqbxqyV02CwRcyM8JT4W7SdcwqX8w1XHs5b/++KPiydU9eKPAsOyiGW6SHYMkO7qITs4Qn7kAB3Du8n27yDV0YOdymA298BbMVZ5J9wz4hRCYNs3TfnxOLF0lnR3P51j+9lx9Gn8aoXK3CTlqWuUr1+kMnmV+vwcbq1EozSNV5oldBuoELh5HX2jvpFe3I5i9fug4uM8lkXxq+Yx2ua1hAmGbWLFM8RzAyTyPSRzXSS7ukn1jZAb2kWub5B0Vx9mIoUTT+DE47ftV77duaffnRAi2o4zDJx4gkS2g9zAMBx+DBmGuNUy9YV5aoVZKlNXqc1cxV2Yx682CNw6gVcnDAKU9FChj/QaqFCR6RvGiiW4rTqFwElnyY/uQ8oGZiyOaccx7SSmbUeraydJLBXHycRxsn2k+3eS7R8m29tPMt+F7cRviFqIyKobhrHObPztxV3PSrpbKKWQUqKUREmJVhqtJdL3Cb0GfqOGX68T+j7S95CBh/QbyDAknu2ga2wf+d4BzBU6kgW+R+HaRWbOnUAphRVLYNpxrEQKy7GxnBhOIoWTSGA5MYTlIIQRic+2MISx4vXvde5bcS6ilEIp+fGMvUoEUfnH2+3ehGG4psrFUUBB3NeiXOS+F2eb1uX/B3ye3at/NSt0AAAAAElFTkSuQmCC;" parent="xTJOExZGsLGTWN9rmItR-13" vertex="1">
          <mxGeometry x="181" y="241" width="60.73" height="60" as="geometry" />
        </mxCell>
        <mxCell id="xTJOExZGsLGTWN9rmItR-53" value="" style="shape=image;verticalLabelPosition=bottom;labelBackgroundColor=default;verticalAlign=top;aspect=fixed;imageAspect=0;image=data:image/png,iVBORw0KGgoAAAANSUhEUgAAAKcAAAClCAYAAAA53u3nAAAgAElEQVR4nO29+ZNc13Xn+blvy32pfUMt2EFiIQlxEUlJXGSZ2mVb3dGWPR71hGftmO6I9kRHTHRMxMwv88PMHzDT4Rh3hN3utkZ2W5ItybI0FClK3BeQxELsaxVqz6zc33bvnR9eFggSVYWqQlUhC8hPBIACkPnyZr5vnnvuueeeI7TWmjZtWhDrbg+gFVnt91UIsaXXut9oi/MmtNaEYYgMQ0BHvzSgNWj18d+FAMPEiccxDHPF63mNBsggeq4QIIzoTwQIAAMhBE4sBrRFejP3nTg/tmRNoTX/DEMf6ftoGaDDAEIfpA8qRPsNcCvowEO7NVQsjTmwD9sZhBXE6bkuYWECdfkYwrIRiSQikUMIGxIphOGAZaNNB8+zEZaNE080xQuRgD8W6/0m3PtKnDIMCDwPZIiWPgQuyq2j/Rq4FagVkQvTyLkJ9NxVKF6BWgEd1kH7oFyUlpSHnib1wr8m1tGHadnLvp6SAaUTvyb40f9C2vIiS2lkEGYCnBQiN4jID2F0DmH0DCJSXchsHzhJiCURsSTYMYRhYdgx7FjsvhLoPStOrXU0HaPRMkT5LkFtAV1dQJVm0KXryMI44fRl1MxFKE9iBGXQEoQDwgJhIhDNny0wkzQ8j5JrYYerGgRlV1OtJ0h3ZmjO42ilEY0KqvERXD+O1AEaD2GkEPFORNcwRt8ejJ5RyA9g5AYwcr3odB47kQbTRhgGN1vWe1G095w4tVYopQncOtqro+sLqOJ19Mxl1Pwl1PwV1PwkujwFfgWtNQZW5AsayZuu1BRSdNEb/1quSxaqIXmpPvHvy9EINDOlkIG0IG5/7AJEzzTAsAEbQfTa2q2gJ06gJo6jDRPiOczOEYyeYUTnDvzOEUT3CEauD5HIIpw4pu1gWfY9J9B7QpxKKQC0kvj1CrpWQpcmUeOnkRMfombPo4uz6No8KB+wm76iw1ruZyA1Cw1JLdCo1QbgNMzWfIoN6LdNbn25T/2LEIAR/aiBRhl17QPUtWNgJxCZLujoR/Tuwxo+jDmwF53rh1QO04n8VdH8td3ZtuJcFCRa47sNlFtFLUyiJ88gz7+Fuv4hul6GRi3yL2nedCOx7tesegEzVQ8ZqjU9b6HuM1/T9KZjmMZaRSPAaN4mKdELU1CaRo+fJvjoF8iOQYyRJ5BjD2P07kRkerCSaUzLAra3ULetOH3XBS3RjQpy9hLBlfcJTv0KMXMK4QcgFwXUDN/cIUprSm5Aoe6TlKsXp0YjtWaq4rO3R2GusLpfHUbkEwQe2neRlQXk9XOEx3+KMfIw1t4n0UMHCfMDiFgSOxZvCnX7sW1GrVTTx9MaLX10eRo5dw115R2CY/+AmjmBIZJNH25jBHkzodLM1XwageSGZ3pbixT9vyEEMxWXkhvSkzLX5EqseG0hIqGGEl2aRX7w98hTv8AcfRTr4Bcxhw+jekYQySyYVnPKN7aNJd024vT9yFLo8ixq6izy6ruEJ19Fz50EkUIYWaKY5cbvxmqg5kuK9YBAgmFaiNVYQCEwTBOEwJeS8QWXzqSDtdHiWHzPIgahRp7/NfLy25gjRwn3fw5z+DBG9ygi1YGTSCHMO7XeW0NLi/Nja6nQC9PIqTPIC28gz7yKmjkL2gSRvukZm2MRlNbMVT0qXrRzFE/noptsrGydhWEQy+RwUknccpWL8zX296axHZNNTWgQcZAaefEt1MQp5I5DWHufxBg7ihzaj05mIwtqtLYVbVlxKikJfB/lVtEz5wk++hXqwmuo6Utorx5ZiS36XAOpmK541L0QO56ic2QX6a7eyCqugGXZ5Id30Tl6gIkPZqi6AdMVj0x3cjMM/KeI4rPabyAvvY2aPYd56V3UA5/HHHsU0TmEncwiDAOjRUXakuJUUuK7ddT8OPLSm8gPfo6cPIOuF4FmQHyLEEKw0AgoNnyCQNE9PEb37oOk8p0r7qsD2I5Dpm+YvgcfZ+rU24SywYW5Kru6kis+b2OJ/FJdniesvYGcPYM5fgJr/zMw8jAi0xnNAm1xroySEq01QbWIvPohwfs/Q57/JVTraKVALL9VuFlIpZgqe1Q9iWnH6Bg5QG5oN5YTX9XzrViCvsOPkX51lNLEWabLLsV6QD5hb9DCaJUIC5RCF+cIP/w5evwU6tAXsR78LeTgXrQdByEwW8gfbRlxKikJ3AaqNE149lXCd/8Wef0MyJDFoPRWozWU3ZCZqosXSFJdA3QfeJhEVy/cxt9cRBgGfQceomvsAKWJs4RKc26uxqPDuWhrdMsREATI6fOo8iRq7hrqoa9ijBzBSOYwEsmWsaJ3567fhJISGYb41RLh9VP4r/8n/Jf/FHntOEh5V4eo0cxUPCquBCHI9g/Tt+8w8Uxu1VbPsi1yPYMMHH4My0kgBFwr1qn6cnMHf1tMdKNO+OHP8F/6d/jv/wxVmEB6jWbK4N3nrlvOMAyRlQL++TdQJ3+KPPs2eLVWGBpuqJiteTR8iWXF6Nz5APkdO3HiScQq46hWM2tpx9FnOfnD/8DC5BkagWSq7JHtudvvMQroq6sfICtFxMIk+tDzGAP7iGc777oFvWtmSUpJGPiohUnC478gfPXPCU++1BTmXTfoACw0AkqNAKk18WwPvQc+Q7qrD9tee5JFfnCUgYc+i9AmSsNUuYG/hp2mTUU4iOI44bs/JHj1L5EX3iKsFAkD/64O666oQEpJ6Lt405fw3v07gje/h75+GqGMuzWkWwikolD3qQWRa9Gx8yBdYwew4+vbmzdjCXY//7uYsThKSQr1gLmqt7nxzrUgLHSjTHj6FYLX/gLvxC8IynN3VaBbPq9IKQk9N9oPf+eHhCd/CQuTRGk+reGIA1S8kPmajxeEGGaM/kOPkR0cXfV0/mkMw6DvgaN07jnM9PFXqHkmUxWX3kwca83JIJtI4CEvv49ulDB8F334Bch2YdlbHynZUjMlZRgJc+YCwZv/L/L9n0DxOqgWmd6aSK0p1n0W6j5hIMkM7KR3/0Mk810Yq1ylfxrLtknn8uz/0u+jfKO5Vx9QD+72wujTCAgV6vpZgt/8e4IP/oGgVrorFnRrxem5hNPnCN74j4Qf/BRdmd+UvfA7xQ8VC25II5BoaTBw8Cl6dj5ALB6/7ZblcliWhW3bjD3+LKneHWitKTUCijW/FT+CaGt49grhb/6M4N0fESzMbvkQtkScUoYE9Qrh+AmC1/6c8MOfoWtlWmkaX0RrqHohC/UAP9QkOvvoe/ARMj19G7J6TXZ0s+e5b4AWuKFkpurhSdU6vudNCBFDz48TvPKnBG//AH9ugtD3tuz1t0Scyq3jX3wH//W/RJ54EV2vb9VLr5lAKYqNgIoXoLSg/+Cj9Ow9hGnHNuT6ph1j37PfIp7tQSnNdNWj4gW0pDoBRAy9ME3w1vdxX/8+wdz4lr30pipESklQrxJcfZ/gnb9Bnn0V3XA3+2XXjQa8sLlK90JiqRwDDz5KtneoeXLTJfA9At+PtlNXSRD4BJ5H4LkIAfnh3QwefhLlS8puQKHmo1tWnUQCLU0TvPdDgnd/hDdzldDffB9001brUkpCt044forwnR8iz72Brtdoxan8ZoSAXNxirDNJqquHfrOBceEtfNNGCI3oHMTo242Zya/qnQRBQFiaR46fgkYVDRiBx56eFEZvBsM2iFmbnEK3EWjQC1ME7/0IhIn9xD9B53uwbWfTXnJTxBnFMT3k3BXC935IeObX6HoVdIsLE4hbJiMdSQZzCeyYIn75FcLrb0dCNC2sB59HZHsgk1/VNZUMUdUC4bvfR01dAm2iUfRUiqSH82gBtmlgtMh+9opoIgv6zl8R2nEST3wbUtlNE+iGi3Nx50cWpwiP/YTw1MvoaolWt5iLWIbAdBY/lgBRnlwsTIOw49EJThms7aKhjypNoWYvAFHWj63BTtg3LOb2+HQApdELs6g3/wNhrgdx8HnQUXrgRrPhzp9WClVdIDz+c8IP/gFdKbCNPnogGu3ir0/8TRis671oTfRRLz7/pmII67viXcZCFKcIXvl3hBfeRG7SCn5DxSmlJKyVCE+9SHjsR6iFyY28fJtWQpvoqcsEL/8Z8tpxfM8lCNY4o9yGDROnlJKwUSO8+BbhsR9EJV5aMrrcZqPQSiAnThG8+X3CqUsoubGpdhsmTi0DwvGThO//GHX9XMvtlbfZJMIAeeE1gmN/i64VN/TSdyxOKWVk0ucmkCd/ibz4Ltr3uCeF2Z4IbkWDrpUIj/+c4MwrePXqhk3vd245tUbWSoQXXic89zK6On8P30SN1mtPUtE3aoHeozRX8OF7Pya4ehwVtoA4o/S3BmrmAuHpV1Cz1+70ki2NDH2kV0OvxbfSIL0AFUruydkEAAEyRI5/gPfe3yFLMwQbsIN0Z0rSGlUtIM+9hrp8rFmf6F69AUTFHZRc80JPa4lah8XdXgjwPDj3GvLC20jfvWOBrlucUkqCRhV55UPCUy81neF7WJhtbo8W6PIs4Qd/h5ofX3WzhuVYv+XUGjU/QXjyRdT0+Tu6VJt7CBmirn1I8PZ/RsnwjqznuhSlpCSolQkvvkl45uV22KjNTQh0o4488zLhmTfQav2xz3WJU2uFvH4aefxFcOu0hdnmkxiohRnC974Pbu0OrrIOdK2EPP8qcuKdDa+D2eYeIfSRE2fwTrxE4LnrusSalKWkxK1V8cZPIc+/CcHm1MNscw+gNbo6izz/MsHcBME6kkPWaPY0ulZAXn4PNXeB1Vftb3P/ISCUqMkLqCtvo9eaZsgaxamlRM1dQV56E92or6LsdJv7GqWiwmyX3kOX1n56c9XiVFLilwuo8VOomSvtFXqbVSDAraGuvkcw/iFurUqwhvPvqxKnUipqp1K8RnjpVXRpgrYw26wKDbpcRF78AF2eXdMaZXWWU2u0V0NNnkVNXaYVKsC12SYII2rHc+1dVHF8TdVdVilOha4VUNeOoQtXtrTsdZt7A12eQ147iQ5cVpuitSpxahlG9dmvnQa2vqBTm+2OQFcKqCtvE5Znoy3NVUzvtxWnlBK/VkbNnEPNnmsH3dusD+mhZi+hJs4gw5BgFdWTV1SaUorAc5GlWbwL70O42EOyTZs1IqwoIfnim+jAYzVT++3NoJLowjXU5bcQYmPqBbW5HxFov4qePoWen1iV23lbcepGFTV+HKMxjW4H3dvcESaqMIO8cixaZN/G71xRnFopdHUeeel9hEi099Hb3BnChMos8toxwnqF8DZ+57LijPzNOmphAjV1vB0+arMhaOWjF66hZq/CbY6urGw53Rpq6jw0tk+tozatjo0uFVFTp0GtXHJ8eXFqja6XUOMfRU1Q7+mzrW22DGGgG4Uoq81fOc9zBXEqdHUONX16/QWs2rT5NBp0EKDLM6hqYcWHLi/O0EcVxtH1adrCbLNxaJASXZpHLUytWCF6WXHq0EcXpiA0WmZG10RtWJRu6SLVLYXWoJqfWcugolk5LI4T+N6yAl1yCa61Rrk11PxVdBjSKupUCooNH6UhF7eJWe2t1JVQWtMIFI1AErcMko7ZGhWUtUK7JXRlBunWMEwLa4kWOreKU2tkEBBUCuiFKyD9KD7VAmitmSy5zNQ8hnNJ+rNx0rEW+cBbjEAqim7AZMml7kuG8wnitknLNIsLQ3S1iG5UIJVd8iG3iFNrTei56Oo8ul6MYlEtIk6ARiiZWHApNUJmax6jHUm60zHibSsKRNay4oZMVTwmSg1mqx5x26AvE2udPRQhIr+zsgD1EjC45MOWntZlgKoU0EHQkllISmnKbkDNDynWfYbzSYbyCTqSNuZ9akUX29TM1zyuFBtMll3qXkioNI5ptIhjtohAyzAygLXisgcll972kT66PActXWdTIBXM1wNKbpnZmsfu7jT9mRhxy4zKrt/tIW4BGpBKU/ECJhZcrhTrFBsBUrb4olEF6MY8ulGMiqMtwTLiDNG1AoRBy5+w1BoCqZkouVTckOGOJMP5OPmEg2MZ97RAFxc8s1WPq8U6k2WXRrBNSi1qBUEV7ZWX3SlaQpwaHXrQKEDYOpZzsd3K4s+fHpXWsOCG1KYrFOs+O/IJ+rMx0o6NZYoWeRcbg9IaXyoWGgHXSy4TJZeFRoDcVidiBTqUqEYdHS59InPJ1TpBA9WYR0kPrVtnMaTRkX+iNJi33gQBhEozWXYpuyFzNY+hXILedIykY7XOSvUOkEpTcgMmyy7Xyy5zVQ8vXH4CFzTb78ioRqjSrbGGEAgIJNqtRzP0Eiy5Wm/UG0zNLFCZrbXUSl0ZFnTuJOVNUS/OLdvER2moeFFL6pIbUqwHDObidKUcHLM1bs5a0Zqoy3DFY7zUYLrsUfVDpNIrdjM27STx7n6qtuBKqYqhN7bjxZ1gujYdhRIDvs9SLbaWFGe14XNu0mVmotZSZTfNWIKxZz7Lkc8NcvE3P2fm+Ntghyw3lYVKU6hFTVbnax47OpKM5BOkY9sr/U8qzYIbcLVQZ6IUzQpBsw320sLUoCCe62bwoS/Qs+cQxTPvcu2j1wndylYPf2k02CmDnYUaXaEktcRDbhUnIKWi7ivKrgKjdcpF20IS6x7igS//AT17H+HKq7/g7Evfwy0VQOglF29KQyNQeKFH2Qsp1Hx2dqXozcSwt8E83wgk4wsNLheiVXgjkCvHKzWAQfeeh9j97DcZ/swzIExK169QDcB3Ja2y4+dY0ey23Nbq9jIhWiNMi0Suk+Gjn6NrbD/5kd1c/PVPmD79FqFfj/Zpl5nqq57kclCn7IUM5xPsyCfIxCxMo7UWTFo3+77XA64U64wvNCi7YeQ/rvA8w7BJ5HsZPPwku5/9FoNHPks820Hp+hWE0Tru2WrZXuJsIoSB4zg4/Ts48JXfp3PnAS699o9ce+clFsZPo0J/2RBYqDSzVY+qF95Y1fdmYqRsc0XfbauQSlP2QibLLteKDeZrPr6MwkNLCrPZVzOWytO99xAjj3+Jkceep2N4F048GT2nBTdSVsO2FCeAaUVDT2ayDBx6lEzvEF27D3L59Z8wffIdarOTYC5tZ7SGui+5WowsUqHuM5SL05WMYZvGlod2F0fZCCRTzVX4dMWj5i1OecsNSGDaMXKDuxl65FmGH3+G3n0PkenqxbIdDMPY8H6UW8m2FecilmUhkiliI7tId/fQObaX8Xd+zdU3XmTy1K9RSiGW8S1DpSnUA6peyHzNZzCXYCiXIJ+wtjSZRCnNXN3narHO9QWXmh/iyxUmcA1aaeKZXgYfeYqdT36JgUNPkO3fQSyZwjQNxBLW8u7PC2tjeXEqDVre9hDSVqK1WNKqmaYJpomZ7WDwgUdIdfbTs/cQl17dx5U3X6I8eWHZ83lKa9xQM1PxqXqSYt1npCNJfyZO3N7c6VADNS/kcqHORNmlWPNxw9t83kpjWHG69hxk59NfY8dnPk/n6B6S2Q7sWGx510RHkRhaKJSEAvTyX5klb5lhmjjpJIl8N60TuRaYsRSmk1jWBAghsJ0YnYPDZLp6yA2O0bP/KOf+v7/h+oevo2R92fcjtabqhbhhJNC5XIJd3SlyCRuDpb8U60E3f1NoZioeZ2aqzFY9GoFaOSFYCFCaeLabkSdeYO/z36Jnz2HSnT3Y8QSGYSwrTCHASiSJ57owbZuWWK1rsBI5rHgSlsjlhCXEaZgm+eHdPP7P/w1erbSisrcWgTAMMgOjOM7ylUeEEJiWhTCS5AZHSeS76BzZzfmX/56Lr/yIWnEyar28xNvSRPv0C42QelCj0AgY60yyI5cgYZsbMi8qpXFDxdnZClcLDSp+SLjSFN4cmGXH6Rg9wt7f+l1Gn3iObN8OnEQSx1nBWhK5PZmefg5984/Y/YWvoDeoL+VGIEyLZGcfyXz3kv9/qzgNk2xnD5nOHlriG3YLIprGb4MhBLFEglg8TjyTJdXdT+/+w5x76e+ZOv4Gnrt8Nsxi+tl0xcUPJYYQjHQksDZgd0lpzamZMlfm61S9lY/GgsAwY6S6Bxl6+Cn2PPN7DBx8hHRHNwixorVcxDAMkuks8b2HaNX7aazWckJkPbc9QtxY1DhGnM4dYyRyneRH93P1rV9y6fWfUbh4KtoxWWKqj1kG+YTNUD5Od8rB2iD3xjQEo/kkUmqmyh5lN0Qp9cnQl9YIDGLZLvoffIKdX/gmOx56nEzPIPFUetmbuRzCMNiOd3Tbr9ZXQzTV2ySyeXp2P0iqq5euXQ9y+fWfM/HeryhPX0arKLHaNgQdSYfBXJz+TIxcwiZmRccbNmJpaAhBd8ohYZv0Z32mSi5TFY+SGzQXLWDaMTpGHmTn019l9PHnyI/sJZHN3XYKv9e4L8QJTYGaJvFkingiSSrfRceOXfTtf5izL/010ydfI2XCaGeKwVz8xgG6zQgpGUKQjlkkbJPupMNg3udascGVgouI5dj59Avs/sLX6d1/lFzvAIZlI4S4r4QJ95E4gU/cYCeeJDc0Rjybp7uni8Ivbcyr75FPJolZJuYmRykEYBmCVMwiZpl0xB3GejsJ9zzLwDf+OzK9O3BSWawVFn/3OveVOAGUktGuiZQIv4Z9/QSZ0z8l4Y5DLhMJeAvHIwDbFFiGRQqBKr6P/fb30J/9fXRsN15DY1g2tn3/lTu/78SplUJVF1ATJwmO/yPy3G/Q1SKG1M096LuzohUi2j033BL6+E8JJj5AH/wt7MO/je4eBdL3nUCXzOf0Pa+ZUNA6h6RuWDMhiMUTa3ruYvlw3aggJ08jz71KePpXqLkrIFVTjy3kz4UBevYS4Wt/gbryHtbBL6LGHkN2jyBiCUzLwrJWL9QwCJDNWpitc0ebn3hzsWpZt9rJJY5pKGS9gixMIu+gHfFmIBCYnX3QNUAsFl/187Tv4l95H3X6ReSZ36BmzoMyW0+UNxCgBdrzkZfeQV0/jjF0BOvgs5h7voDoHYM1iFP5DYK568h6GS1vF1vdOoRhYqXzGD1DsBpxaqUIC9fwXvuPMHmGVrp5SoN59JtYn//DFR+ntcL3PHTgoeauEpz4BeGZV9CzF6Pjznq7VM0ToA206yMvH0PNXsQ4+zryweeR+z6Pke3BdGIrWtEgCPAL0/jv/hB55Z3mce/WQFsJwj1PYz75e9iJW3Phl5zWvUYdf/YyzuQpRKuEbzWgFWLP48uW/9Za47luVIunvoD3/s8I3v1bjMI19I2e38scPGpZmuOVOmrTV30dde19wlO/wH7ij9D7nyIMoiPc1lLTo9Yor44qXIPJM4jb1MTcKjQaaSYJO0aJL/OFWbriB6C0AExa5hCR0AgtEMuMJ/pSNdB+HXnhbfwX/y/U1PsInUZrxfYS5HJEOwG63kCefQt14T3C/c9iP/PHGAN7wFxhfds8vtEq91OgCST4gSK1lmMaSoMbKCylsNe4VbZ5iFt+vmEplUS7FeTkWcK3/jPhyb+D0ASRZGP2dVqM5iF+rQLCE/+If+UY1sPfQD/yNcLOIXDi2E7sRkL2x7TOF1QT3Rmpl8nwZzlxIqj5IbFQYS91ZrNl0OhGBTV5mvDki4Qf/AhdKYIRb6X7sIlEs5tRmUH95v/BPf8K1pGvYe37PHpgN1hLnWlsETSEQhAIC7WM63irOIWBYcfxdIJAitseqtpamqNRkkZpnuDqSfSZXyHPvoqaOQcYkTDvO6LIg5o8i18YJzz/a8J9z2DteRrRtWNNnXq3CqkVvlIow0IYS7sjt/yrEIAZw9UxvLCVomKAEGilkFPnCD/8Gd6ZVzCmzkcLpGXe4P2FBa6LOvcG/vhHyHO/xjr42+hUf8sJVCmNpw204SybBbfEHRUIQyCFwJfRfW+VfAMtDMLzb+BdehU9N44RNAvbtsj4WgJhgIiD5yIvvoeaOgfpXnBrCNk6RzSkAleamIaDWL04QRsmyo5RkwqpFaZojWptBhoxcwHFYiW1VlmstSLRsQ5dKUO1ElmYlqkeC4GChjJJGvFlLecSR/QEdiyBk++lpp2oclmLvKePvyAtFOJqacTH014LCVNr8AJNoG3sRAZjmVX3kndYGCbCSVPyBV6oWkWbbe4RlNbUQ4mnDex4HGOZaiRLitOwbeL5LkJsyo2AljGdbbY9mqheQDVQBPE4sWxm9dO6AEzLJtXZizITzFX9tjbbbChuKKkGYKQ6sdMdy5bLWdLnNCyHREc3yoozU/UIlyko36bNeqh7krJv4KS7cNLZZY+fLClZy7KIZ/NYmTQ1X1JoBK3kT7fZxmilqXghlVCQ7OghnskvGwq8dVoXglg8TjrXSbZ/DB+TiVKUydLWZ5s7pREqCnWPUJvEMh3EUpkl6zrBCvEY04mR7h9FGjFmq37UpaGtzjZ3gNZQagTMVH3i2TSp7l7iqcySWfCwgjgtO0a2fxjTTFD3Q6YrXnsnps0dEUjFfN2n7EOia5Bs38iK56KWFadh22T7hojnO3CDkMlyg1C21v5sm+1F1ZfMVn0wHVIdA6S6e1d8/PLiNEySXX107j5IKGHBDVhwW6cIVJvtRah0VL2v5mPHEmT7dpDqWLqA1yLL7wEKQTyTp2fvI6jQoO5LpivtsFKb9dEIIv24YUgs10l2xy6s2MqnaJcVpxCCeDpH99g+7HgaL5DMVX0qXutktrTZHiitWWgEzNU8tBKkOgfpHNt/2yYKK4ozloiT7t9B176DhIGi1AiYr/krFzlt0+ZTNALFTDVq6iWERbZvhM6R3ZjWOsUZIUjmuxl8+PMoZVLzJTMVl6oXtoPybVaFbLYfn6l4BIEi0dFN194HiWdymCsdyGMVeWdOOkPf/iPE810EoWK+Fjm1sq3ONrfh4x7wkTuoNWQHdtH/4OOspiLVbcVpWja5oTH6Dz6GDjVVXzJV8aJOYhvxDtrcs6im1bxednF9iR1P07XrAfJDY6t6/oriFM2D+umufoYeegozlsAPo/7ec23fs80KaMCXiqmKx2zVQ0lIdQ4xcPhJnNuj2JcAABMwSURBVGRmVWd/bi9O2yaeztK58wC5kb3Rxr0bMrHQoO7fpg9jm/sWpaHshkyUGvhSYdg2ueE99Ow7gmlZmKuoh3DbRwghsGMxsgOj9B94FGE4hEozVXGZWGi0fc82S+IGkqsLDQr1AKEF8VwXfQePku7uw7LtVfUdWN1BHGGQ7Oim74GjpHt2gNLUfMmVYp35ut/2Pdt8glBp5moel+drSKkRhkW2fyf9D3wGJ55cVTcUWKU4BWAnUnTteoCuXQdBmGgN83WfK4U6db91yuq1ubtoDWU34PxcjZofbdg4ySy9+x4mv2M3xm3CRzezOnEaBrFEgvzgCD37HiKe6QYNQaiZLLlMll2C2zV6anNf4IaSy4U6U2UPEAhhkOoapO/BR0l19S6bHrcUqxNnc9WeyHXSd+BhOkb3YpgmGqh4IZcLNeZqXnv1fp8TNHsrXSs2CJoZbFYsTdeuQ/TuPRT1UFpDj6s1Hf42HYfOsX0MHnkKJ5mPijEpzVw1mt6r7X33+xatNaVGwMVCjXJTB0KYpHqHGHzoyWZu8Npqva5JnJGJ7mPwyGfJDe260SraCxWTZZfrJRfvdl1v29xzaA31QHKpUGO67EaFOADLSdC98zCDDz2JtcY6/rBGcRqGQTyVpnfvQQYf/hx2PBcV1yKa3q8U68xU3XZa3X2EBjwpubbQ4EqxfqNPvBAmya4Bhh97jo4dY9jO2mtprtFyRl3QUp29DH/mWbp2H4HmYJSGuZrPpfk6pUZAW5/3B0pppiseZ2eq1G5qNGs5SXr3HWX4M08TT6bW3K8T1llwyLRsuvc8yNiTv00813ejeHAgNddLLufnqlTcoB3/vMfRGgoNn9MzFYr1m+631qS6+9j3xd8h0zOwLmHCOsVpmCbpjm5GHn+OHY9+oXmVaGhuqLhcqHNhvtaOf97jVP2Q9ydKzFRu2ojR4CTzjD31ZXY89CSxxNp9zUXWJc6oC69FbnCUnU9/lc6xQ58ovd4IFBfn61yYawv0XkTr6NjF+xMlpsvejQUQgGE59B54jAMvfAcnnVu2SNdqWHcdQcMwSaQyDBx8lLHPvkAs0/WJ/6/5IRfmqlwt1nG32Qpe6+hogVKf/KX1jV4BG3ZNpTV6G8WHtQYvlBybWOBasfGpxa8gle/nwa/+AfmhXXfc5XjdtaoXM5ZyPQOMPvYchUsnufr2iyjpRyt4DWUv5PxcDds0GO5I4JitX1MzUJqqF1L3w1tEaFgW2QBirF6gGggRFBsBXtlFfyrJ1kCQTVikbHNbtKyuByEfTVe4WoiyjW6gIZbuZOxzX2fg8GexY/F1rdBv5o4KqQshMG2Hzp0H2Pn016nMTFK4fAKto6lcayjUfc7MVhAChnJxHMts6doMoVSMLzS4NF/DDxcrKEd/WPEku/dBUhmspU+Fqy1OTUlmLi3wCVkLiJkGR4fzJO3W/lyU1jQCxZnpKhfm67fEs03Lpnf/I+x99huku3pwYrG7Zzk/HpRFrqef0ceepTh+jnpxgsbC3I3/Vxrmqj6nVIVQaUY7k8Ra2II6pkHaifykqn/zDdDYQuKFrDlMJhHUQ03VkyA+frIQkExbJGwTo8WtpicVp6bKXJyv437qFITAIN09xr4vfpu+A0eIJ5MbMgvcsUqEEBimSaZ3gD1f+DpDDz2L9an+N6ppQT+aqnBhrkajhX1Q0xDkEjbZuI1lbJxg9BKXMg3BYCZGxmntTiD1QHJsfIGL87VbhAmCeKaX3c99m9EnnieZzS9bmGutbJgJM22H7t2HeOArf0jP3s+ANLm5uJLSUdWQE5Mlzs5UWvoMUsqx6EzaONbmWTPRfJ3uTAzbas2ZRBBls79+ucDl+QaN4FMl2IXAtByGHnmaQ9/8Q5L57g0TJmygOC3LIp5MMXjkcQ589Tvkduy9Zf7TGhq+4tR0mVNTFRp+awrUMQ1yCZukbW1qm5t8wqQr2Zot8gTRbPfri7NMltwbWUaffIwi3d3PY3/0J6R7B5Zt2bJeNvQra9k28WSavc99nUO/811SPUO3PEYTdVI4O1vl5FSZqtt6hWmFgM6kQ1fK+UTvz/WGkZbCsQy6knFitykscDeQSjNV8XjzapH5WkCoPt0sLWprmMru5rf+7Z/SMbqHRCKJc4er80+z4fOJ7Tgk0ln2Pvc77P/St0lk86Bv/dZ5geT0TIUPrpcpNFovFzTlmHSlHGKWiLqfKYWWal0tUzREmxTN6wgtycSi8NoGurV3jCYS5vhCg7evFpmpeEsv/hSkOnby1L/83+jd/zCm5SCE2PBQ2KZ44kIIkvkuDrzwBwT1Oudf/gGN0twnj4MKgVRwab5OPZAc7M/Ql45jmqs5br/5GELQlYrT15/B8Eyk0lixJLFcL4a1fE3JWxACy3ZIdg+RHtgDSAw0/QmfbKw1rKYmsoVeqLg4X+XMTJVyI7glJhs92CTVPcLD/+xfMPLYM5i2Qyy+Of1Ghd7E7QmvUWfmwilO/PDfc+Hlv8WtFZfunKA1HUmHfb0ZdnUlibXEAkETakH94Ddwdz6FNkwM0yLdO0h+cJRkJreq5FnXdXErJeavnMMrF9BaI9wqyXe+R3r+VMv07FxoBJycLnO10MAL5NLnyqUm0TnCkX/633Poa9+ho29gU8e0qZ+MYVl0ju7j4Df/OV61ypU3/oHAr3BLiWQR7aAcm1ig2PA41J8lE7Pvcs9NgUlI3vJxdu/B6BkDw2hOX8aqxxaPx9FaM/jgI9E2pQpRUxdwX7kS9e28iwii4Pp4yeXEZJm5arPM0BJvTggDO93Bod/9Yw5+7TuRu7bJbKo4bdvBth2svYc4+l/8K8KGx7X3foaU/pKP90PF+bk6hVrA4aEcg5kYlrF6IWw0wrDQl95DP3iB2PB+TDu2ruskbsrMcSsLhOfeBK8C4u6s1HXzNzeUfDRd4dxslXqwXOw58iUNkhz+vf+WR779X5HtWrki8UaxJfOnYVn07HqAL/zJ/87oY1/DMJbfndbNM8+vnJ/j2HiJqh8QqrvU4lCDKp5DXX0HXS1uzCXdKsHrf4m4i8KUSjNT8/jNpQInpso0lhUmgIEIkzzy3X/DE9/9k6iUzBaxJQ7PogU1+oZ4+l/+r8T/IsPl139Mo7qA/lQf8GaSP1JpTk2Vma157O9N05+Nk7BMzC1d3mqEkUJe/ADv2keETgY7Hl/zQa3Fa7kNl/Dcm6j5Uwinb8NHuxJKRw0Dqn7I1UKdC/N1av7KpSwFFqncKEf+8H/gyNf/gGQ6vXUDZovEuYhhWuT6hnn8u/8Tqc5Ozrz4A6qzEyi9zKlNIZir+sxU5hnpTLKnO0VPKkbcNrZoL1qAsFBzF5ATJzGGHoR1rkxd14XAJXzrbxBm5waPc3m0hlApKl7I9bLLhbkaxbqP1mJ5d0lrDGHQOXqYh//gX7HnC1/Bjq3PpbkTtlSci2090r1DHPrWf42T6+PMP/41xSunkMpd8jmaKKxzrVinWPfpy8QYzifpS8eIbYVIhQApkZfew9z9BOQ6iVpqrxGlkFdPICeObckKPWqAqqh5kuvlBhMLLnM1v5nmtpIwwYol6H/gMY58+18wfPRzWLHYpoWLVmLL4xi2bWPbNkbfDg58+Z+R6Ozj+F//GXMX3152obQ41VfdkJovma74dKdtdnWm6cs42OYmi1SDmvwANX0ahh+AtcQ5Fwl9gvd/jJCgN3GsSoNUinoguV52GV9oUKj7uP4q/HYtmkcsXuDIN79L194jpHMddy3P9K4F2YRhkMx2sPvpF0j3DPLun/+fTJ9+G9+tsexGYTOJueqFNALJZMmlOxVjV3eKvnSMuB35pJvyUboN1PVzqGoBI55a0w3TWqOK15EXftn0sTd+hEpHuahlL2R8ocG1hToVVxI2s+1vP0hJIrGDA9/6Lzn09e+Q7R1EWPZdTYDe1CD8avB9HylD6vPTvPNX/zeXf/X31CtTyMBjNTvZ0Uen6U7H2dWdZCATJ24ZmIbAbIah7vzjjb4s5sghnC//a8zRozjxxKpKq2it8dwGwet/g/+z/wPt+cu2cF7TiJrHPkKtCWWUvT++0OBysUbVW33dVCFMTDtGsrOHR7/7b9n9ua/gJFLEE4m7npl/17cnHMch8CHd3c9T/83/TO++h/joJ3/O/OUT+LXyjaz65Yi23gSzFZfZqksu4dCfidGbiZGL2yRsA9s0sAwR1SFfl1ijZ6jyLHL8I4ye3bDKCha+56LrZeSl18D3V1XRdymi2KSOLKTSeFLRCCSFWsBUxY16/AQha3l3hmmRyPYxcORzPPztP6Z772GsWPyui3KRuy5O4MZZE2GY7Hvua+QGd3Dulz9i/L1fUZ66hPRdEMtPhxpu3PRSI2Ch7nNhrkZH0qEradGRcsjEIqE6poltCExDYKzJBRDoSgF17Rh6z2PQ0ctqFkZaK+TVD1HTF5p71WtxB0BqTag0gVT4oaTqS8puyELDp1APqLjhTYfMVnFtDQhNLNVF5+gBxp76Mruf+Qa5gR2Ypo3tOG1xLoXjODiOw+DhJ8j2j9K75wjnfvUD5s4cp1G5Hk1Vq/jchBCESjNb9ZituDi2ScYxSccsMnGLdMwmHTNJ2iYx08Aym7sgzV/LugJBAzV1Fjl7GdW/N6o1eZsbqb0G6uLrqPmrKw5eNa2ibooxlBo3lNQDScWTVFyfqhdS8SR1X97Ir1yTkHRUiSPR2c2OR55nzzPfoO/Bo2Q7e9ZU/W2raClxLmIaBpneAfZ/6Xfo2vsAE++/wflf/hUL49dwK4XIZVvtPRECP1TMh4pCPcA0DRxT4JiCuGWQcCxSjkXCNkg6JnHLxDENLNPAFFEYyzAE0UsamIXrmJMf4Y8dxYglV7ypSilUaQr/6klC30dj3UhBk0pHVlFqpFb4UlMPJK4fia/mRydAfanxZTSNq5vy19YkShWdJ09me+k7/CSjTz4fGYC+IUw7hlhnRY7NpiXFeeNIaSzGwAOPkBvaycCho5x/+adce+slytOXCNwKINe0uNBEK9pQQq2Z4GCKIBKhEZ3psQwDxzJI2hYxy8A2BLZpELOjRVbMbJC7fJHuA3PEOgdhBXH6nkt5/CITp46jGj6B8giaVtELFV6oaIQS14+m5lDpKOWTKBykmkm+655mNQjDJpHvpnPnQXY+/QI7jn6O/I6dJNKZdZeJ2SpaUpw3Y9sOiXSO2AOfoWf3YfZ+8Vt89OO/YvL465QmTyNDjUZ+nM2wShZv+OJ0igKBjnxbDwoEaD5Z8EAIMLTBYGaKR5+skFZqRa9TyZCp67O89tEMga5F/6g/zp80hNGMA+gb//eJdyHWFxYTwkBgEc92kh95gLGnvsTYZ58nNzCC5cSxY7GWFyZsA3ECOItbZ4kkxt7DdP2P+5k8dYzzv/weC1euUpq+jFcpEgY1dNjcCl2HtblZ3x8fTPj4OlqDVJH1VWoVWfFao7RCatCfOn6pYeM6kWgNwsC0HOx4gmRHH9m+PQwc+SyjTz5PfmgndjyB7TjbQpSLbAtx3oxl2ZiWxejRpxl+6Ammz59k4r1XmT3zAcXxk9Rnp/EalShOqvXGx7tbYyEboaMIhxVLEEt3kukfoWtsH/2HHmPwyJNke4eirH0hsCxrWwkTtqE4P1nixKF//xF6du6nOnud6bMfMnfuJHMXTlCdvEy9NI9XLSIDPzKkgnXHGVsCHdVrEkJEgkx1kuoeID+8h86dB+ndd5juXQdI5rswLDvq97PNBHkz206cn0QQi8UhFieRzpLuG2HwoacoT1ymMn6RmUunKV4+TXVmgkZpNhKq7zerbiyd8d1SLE77Ogp1WfEEsUwPyY5esoOjdI49QOfYAXI7dpLpGSSV78B2tj57aLPY5uL8JLZjY3X1kenoQe0/wo7yArX5acpT4xSunmXh6jkqk+PUS7M0FqbxqyV02CwRcyM8JT4W7SdcwqX8w1XHs5b/++KPiydU9eKPAsOyiGW6SHYMkO7qITs4Qn7kAB3Du8n27yDV0YOdymA298BbMVZ5J9wz4hRCYNs3TfnxOLF0lnR3P51j+9lx9Gn8aoXK3CTlqWuUr1+kMnmV+vwcbq1EozSNV5oldBuoELh5HX2jvpFe3I5i9fug4uM8lkXxq+Yx2ua1hAmGbWLFM8RzAyTyPSRzXSS7ukn1jZAb2kWub5B0Vx9mIoUTT+DE47ftV77duaffnRAi2o4zDJx4gkS2g9zAMBx+DBmGuNUy9YV5aoVZKlNXqc1cxV2Yx682CNw6gVcnDAKU9FChj/QaqFCR6RvGiiW4rTqFwElnyY/uQ8oGZiyOaccx7SSmbUeraydJLBXHycRxsn2k+3eS7R8m29tPMt+F7cRviFqIyKobhrHObPztxV3PSrpbKKWQUqKUREmJVhqtJdL3Cb0GfqOGX68T+j7S95CBh/QbyDAknu2ga2wf+d4BzBU6kgW+R+HaRWbOnUAphRVLYNpxrEQKy7GxnBhOIoWTSGA5MYTlIIQRic+2MISx4vXvde5bcS6ilEIp+fGMvUoEUfnH2+3ehGG4psrFUUBB3NeiXOS+F2eb1uX/B3ye3at/NSt0AAAAAElFTkSuQmCC;" parent="xTJOExZGsLGTWN9rmItR-13" vertex="1">
          <mxGeometry x="181.00000000000006" y="430" width="60.73" height="60" as="geometry" />
        </mxCell>
        <mxCell id="xTJOExZGsLGTWN9rmItR-55" value="" style="shape=image;verticalLabelPosition=bottom;labelBackgroundColor=default;verticalAlign=top;aspect=fixed;imageAspect=0;image=data:image/png,iVBORw0KGgoAAAANSUhEUgAAAOUAAADrCAYAAACWw1FmAAAgAElEQVR4nOy96W8dWXrm+Tsn4u4L953aU1IqlVtlVrmWTrts2O1B9wAeYDCev2H+rfkwwGAwg54ewEbZbVe7NlfuS6UylVooivu+3f1GxDnvfDhxSWaKkkiKEq/EeADqUuRdghHnife82/MqERESJEjQNdCnfQAJEiT4PhJSJkjQZUhImSBBl8E/7QNIsB/yvYcjveZAqMO/jXrkmwSnhISUpwARIQxDEAEk5pXs+79FRMBaEOt+Lu7nu793bwQ24mBiKtAeoFBKgVLuZ2hQ2v1fx49Ko3T8exU/B+LfKVKplHuPBC8ECSlfMKw1mDDEBm3ERmBCiEIwIRIFELXAtJGgjbRbEDSRMICoDVGARG2I4tda+3RSKoVSHvgplJeBVBZSWZSfhlQa0jlUNofyM+BnUF4avBTEj8pPE1mD8nyU1nie96JP2ZlDQsoTg2DtD8mxz9pZAyYiClqYdh1p1ZGgiQQNaNWRdh3aVaRdhaCGNBtIs440qo6Y8Zf7vg5REFtRE1vYHyC2gKDA81B+FtJ5VKaIyhYgnUVlcqhcEVUoQbqIShfcY6YImSIqU0BlCkg2B6ksOpVBZXLg+bGV9eLd7p4V1R2Lm+DYUEme8mRgrdnbkna2mtY6MrXrSKOC1LeQxhZS30CqK9hGFWlUkfo21DeRVgXCOpgGIhpExUYwfuxcKRHA7m17Hwu170G7R6Xi/0v8f0FhwcuAn0eli5DrQxV6UfkyqlBGFftQhUFUYRCd70UVeiFfcqTVXkxOBdptdbVOrOmzICHlM0BEMCZCRBArWGOQVhWp7yC1TaS2itTWHRk7P6tvIc1tJNgBYyEyEEWICcBEbjsqhj3/7oeWp/P9US+b+sFrOv5r/Khiy6d9t4X1/fgrtrLZHlS+H5XvQxXLqGI/qjSALg6jioOoQj8qX0Kn0iitUUrheX7iix4DCSmPABHB2k6wBcQaonYTadaQZgVpbCOVJWxlHdlZQyorSH3dWcn2vm1q2EQkRCkNeHvbzN0FfFoLeX/QyQIGwaJQ4GUhXUBl8qhM1lnKQh+6NI7qGUaXh1ClIVShH/K96HwJP1dEef7u36ZjsiZ4MhJSPgX7T4+1ljBsgzEuMBM0kfo2dm0Wu3wXu/gNdmcGaVYgCJF2ACaI/b4nLcZuXKg/XBb7LbS4G4jnOz80k3L+aXYQPfo6euw6evQyumcElSmAnwEvRSqTQeu91HhC0IORkPIJMMZgomh3iyfWYk2IbC1hl+5hFr7Grt6B+hbSqDmLGTZcUGfXB5Sj7zS7HsKuZVcalIBWKJVC5YqQy6PyRXTvJfT4m+iJN9DDl9HZHMrzdl/r+akkmnsAElI+Bo6QITYMwQTYygZ2cx67eh/ZeIDdXEC2VpD6mktZGBNHWuPTeepb0RcI2b0DuaisVihPQ67PWcu+MVTvJHr4iiNn/wSksnjpLNrzHUE9L7GcMRJSxhBrkU7gw1rCdgPbrDtfsbKCWZnCzn+Dmf4Mqc653KLK7vmDcHBq4qxB7dvmioC0AQt+Hj35Dt6Fd/DOv4kqj7tgUbaISmXxM3sEdW+jzixJE1ISV9gEbcQYl8APmtjqOnZtBjt3i/Duf0cqS9BugdWA5dGoaIKD0SkdFFAWPIvKFdCTv8C79B7e5A1U3yQqX0KlcnFgCPxU+sxubRNS4qxkUN/BbK8iW/OYtQfI0h3sxiyys4qtrruKGivft4wJjoBORNeCp1G5PlSxH90/jhq+ijd6DTV0Ed07hsqVSWVyeP7ZrG05c6S01iISJ95thLQb2Nom0eYcZuUBdvk+du0+dmMOqW25yhnlx2RMcGKQCLCQyaN7xpyvOXIVPfIaauAcqd5RvEIvpDKAQmn9vcjtq4wzRUoRIYoiTOhSFdKoYNdnMYu3scvfYJenkI0FpLnliEhiFZ8vOpVJxtXdlofQQxfQo6/jTb6FHn0NXR6BVAYvncH3U8Crn0o5M6QUEaIwxEQB0qg6Ms58gl24hV2ZQWorSNByFTaS+IwvDvui1VqhfB9y/eiBMfTYNbxzP0afexNdHkKn0oDC9330K+xvvvKbdmOMi6xag2lUMKtT2MXbmMXvkNUp7PYS0qhA2IrTb5qk9/tFohO5xpUbRiEEa9ig6soSN1fQa/fQ42+gR66iSoNAFo9XNxD0SlpKEYkrcZx1tG1XeWOW72CmP8HMfI6sTSNB29WfSpwMT9AF6FyLuCAhlUGV+tATb+Jd/Imzmn3jePle/HRmXwqGV8bnfCVJGUURUadjwxpke4lo+nPCj/5P7PoUBK24AyMhYvcj7mbxFKo0gH/9L/Hf/B/QE2+gMvm4osgRMp1229uXHa8mKYMWYaMGzQpm+gvM9EeYuU+x2xsQtOM+xJf/4p0dxEvU91CFEt7oG+iLP8a7+jN07zgqW0Sn0qR/YDlfVrwSPqW1FolL3CRqY3bWMGsPkaU7mAefYRZvIdszoPNAXHuZ4CVCfL2iCNlaxjSb2NoGUlvCu/Bn6OEr0DuCiSVOlPZe6q3sK2EpwyDAhAEStpHKKmbxW8zUx5jvfoc0tpzkRpLeeIUgICF4Fu/aX+O/9gu8C2+j+s+h0nm8TJZUOnPaB3lsvBqkbDWJqpvYjTnM1EeYmc+wS7eRWiUJ4ryycIE8lc6iBi/gnXsb7+ov0KPX8PvGSBdKp32Ax8ZLu321xmBN5BqN12cxC99iZj7HzH+HbM67NIe1r4SPkeAguDyytJuwMYeJ2khzG729BOffRo1fg1QOz0+9dDnNl4qU+1MdJgqJmjXs1hJ25jOX6pj90lnHKNyXc0zwSkNppN1ENub3pFcaO9gwwBu5AsVeIBOr+r0cnScv1fbVGEMYBICAibBbS4Sf/lfM/d8ga1Ou01/F8hMJzhD29HJJpVHlUbxz75D62f+KHr2CypZi/dqXo+DgJSNlRNhqIa0K5sEnRN/+GjP/HVRXneyiFZJqnLOKfeV6fgaVL6OHzuHf/Fu8679E9w6jPR/P87u++6S7j46OWJUBK9igiVQ3iKY/xHz3O8zUZ3u+Y1Kresaxr1wvbCOVNUx9w6nJR03863+JlIYgV9x9uhPy6r6beNeTEhGiIEDaTWx1Dbt8l+iT/wuzeBfaYVIEkOBgCBAazNSH2J05UD7ehfdg4Bw2WwCl8VNpfL/7SNn121exhna9glm+j5n6iOjbXyFrc0irmRAywSEgkPJQxRL+G/8J79ov8c6/hcrk8NNZ/C7cynbfEcUwUeSU45pVzNI9zP1/J3rwMXZlGsLoFVSIS/B8oCAyyPY6ZurDWB40wJu4gS32E4provb97hGO7l5SmghT2cSuPsDc+wPRgw+xK/eh3SapzklwJAggGrv20I2SMMb9cPQ6qjwEvo/naTcIqQvQtaTEGuzGHNHt32Ju/zN2ZxnCEFTqtI8swUsH5UYyRAa7PuuCgyYCNF62iPJKXbXz6jpSWuNGAYR3PyT67rdEU39EqptgxJ3YBAmOC6XBCtKqYqY/cpHZsIX/xi8JEfxUCs8//Zt+d5BSBGONS3/UtgnnvyP85l8xDz9DthbcXU2SlEeCZ0XcPB1FyM4KZuZzEONmc06+gekZQuI15razpxOZ7QpSCjiFgFYNu3SP8KtfYe79FtlZAUn8x5cL+2aNnNoh7N+LdtZP52fxcRmLbM5hgrqL5Hse+Glsvgy4EQyed4ZJ2VEIsPPfEX37r5hv/tFJdZBsV18uKMQ2AOevnR72pocpLwsqc8C8Ind80tjG3PsXSKUgCvFv/IX73Sn6mKdKSpf2iJB2nWjxLtGd32AefIS06vsGpiZ4aaDBv/LnqIFJN2nrtNAZ2hs0MPO3sCv3Ueoxx2MBsdjZL4hSGdAe3rm3MPQAnEpJ3imTMsQ0drAb80R3f4+Z/hi7PpMQ8mVEPCXau/xneJf/DDKF0zsWESe0XdtCWtvY5W9APU6/R4FKu+b4h5+D8lCpDIxcQUoDpzJX8xRJKUgUYreWMA8/xXz3L9j1eQjbcadHgpcG+yaN6b5x9NhVN5fyNI/HhNjKCjpXQGEO8RqF7Cxhpn6PyhXwtYZUjhBFOp2OR/i9GLzw1W+iCGMisAazOY+Z+Qzz3a+RrU4eMvEjX36o0w30wN5o+kMfh3LBn/o2ZuoPqLTbyuqJNwiV4JPG814MXV44KUUEGwbQrmEefoaZ+iN26a7rIBdIIq2vCk77OqrjHUIUYjcWMNOfgJ9CFXqwPaOI57+wuOMLJaWIG64jQQO7Oo25/0fszJ+Q+k5cqXPaFzLB2UYcy2i3MEt3nFpBeQTv8k+RTB7x/ReSu3xhpHQzIAMXbd1aJvzo/8EkhEzQdVAuptFqY5ceEH3yX1DFIaJcD6I0qXTmuQd9XmgySazFLk8R3fk9ZvqPSH0z2bIm6FI4US67Nk309b9iZr/GmogoDLDWPtdPfiGWUkQwYYCtrBI9+Jjozn9HdpZxm/QksJOgG6HcyItGFTP1R1S+hO4ZQfon0PkiPEex5xdCSmsiwkaFaO4W5s5/wz78d9A9PyiHSpCg2xDLWG7exdzPonL9+O/9ZySThU4k9jlsZZ87KaMwIGpUsOszmFu/wq7OArmEkK8iRF7Nog9dwm4sEN3+B/TweSLPx5aHAIWfSp34iITnTkobtDBrs5j7H2KX7iCNalIc8MpB4iqaeDLzKwcfggDZWCD67jeodAHxs6hs8Xl92sljVzRZLLa66Ya03vsDUtlwk5KTwM5LDtn3qEB74HmoVMpt6067cODE4aRLpR1ipj5yk76KA6jhyyDpE/+050JKYwxREIAJiJbvYGa/cLM92q1k2/pSYt88FrE4axh/eRlUrgdVGkT3DKNKQ6gXVPnyYqHietp1zMNPUfkeVM8IZDKu7esE8XzOnggStlyR79w32OX7SLORqM+9FIgrYWRPdVwkBAxKaVS6F0qD6FI/qtiLKg6iikOowiCq1I/uPw/6VSQlceOvwa49xMx+iR68RKjfRBd6UFrHynjPvsafz9mzBpoV7OJ32IVbyOZ8PGwnaVjuXsjel1jQPsrPQqaIyuZRmQwqW0QVRlE9o+jyEKrUjyoNoLI97nmZvCtE70KB45OBcgantoldvo+Z+QJVHEC8FDqTQzz/RHbuJ0rKjoSshG3szgpm+iPsyh2ksZnM+OhKdIgYF24rDRqUMpAtoUpj6P7Lbh7HwCS6dxRVHnJk9VPgpd1WVXvx68+CZIvakxOZ/hQ9dBmVKyPp7Il9womR0lpDFEYgFlPbwK7cI/ruD0htm2R6crcgvgaqYxFDEAPaQxXH0AMXUUOX0QMT6P4x5x/melDpPKQzbkaHn3LkVYqYwfve+oxcY6WRdg279DVm7gqq3I8u9Tv/spu2r7szP8IWdukeZvpzpLq+K+WXoAugFKQyqGzJbTuLfahiP7o04PzC4jCqNIgq9qPyZVQmB94+Ep4JS3gYKKcf22pi57/F9F9ED1wkSmXwUulnzluerE9pDba6gZn7GjvzhfMtE3QPlELle9HDV9Dn3kYPXUIPnkP3jTsC6k4UUX3voSv6I7sOygk8rzxELd7Gjl4nypVRWqNU6pmK1k+OlAKYALt0FzP/FXbjPug8yZ21WyCgNbpvDP/qz/Bu/KWzlH7akVEnQbijwZ0raaxjl25jZi6ghy8ReSlEIJU+fv7yRPaVURQRtZtIdRNz59+wqw8A/9UsuXppodxNs7qKWXuA1LfcTsbzE0IeG7G+z/YK5uHnmOUHSLPKsy78EyGlmM629RvM/NdIdSMppetGiCBxEM6u3Eca2/tmeyY4FpSHNGvY1SnM1EdIZRWxFmMMxx1odzIRGBNiN2aJ7vwW2V6GKDyxt05wktDQqiPrDzFzX2G3l5EoOO2DevkhBqltYG7/Grv+EBu03UzV0ySlrW9hl+9gHv47EgaJlexmiCCtOubh58jaNLRqSenjM0PHhmkKu3DbqTI+Q2H+sUlprSUKQ6IwxCxPYRbvuJykeRW7BF4hKAUmQnYWMYu3MasPEBMmxHwmKFdCGkWYuT9h5r5ErDn2OT0+KY0hCtqE9R2ixW/d7MjQJhe36xEHdcImsrWA3VyMByg963WL27fO7PVXQAq7eh8z/ydsZQMbHm8L+0zbVwlb2I057OptZGfWVYckIdfuh9aodBq8E5pe3OmltJFbA3JGd0tKIc0d7NoDzMOvCGvbGHP0XP3xnT9rkGYFM/slsrEC7TApOO9axEXmnofK96EHzqMvvot3/l306DWXq3xGckrQQDYXXEVQrgT+yfcZdj1EwAhS2cDOfIpMXMXkyyBu9uVhcWxSStRGqmvI4m33GIUkhOxGGGcZU0VU7wh65CreubfR599FD0yi8mWnSn9sUorbCm/OE337b/iv/zkqkz/Rv+ClggDNKnb1PnZjHpV3pYxOM/Zw5/hYpBQRpFVDthexa518lyFJg3QTYjfC06hcCd13wVnHi+/hTbyJKva7vkf1LCV08r3SyuhP/+A6SoYunenbs4Qt7M4ydvkeumcECj1Hev0xSClODKuyil2bQjYXkKBFYiW7CXHATYEeuIA+9w7epZ+iJ66je0ZQmeIeIZ/pYyzSamDnvsTc/Q12exGCxtn1KWEvul3fwi7dwg6fR4YuAIffPRyJlNZaN76uVcduL2PXZ5FGJekE6RaIACH4WVRxED3xOt7kTfT4DfTQFVfrms6ezBAlsRC0sPO3MNOfYZfvut1SEudz1yEMsFtL2M0lNwWgUD70eT8SKUUsJgyR+jayMY9dm3UVIXLMYSoJThwqW0L1T6In3sS/+nP0yGuonpE9RYAnWsd9EpFP7I8UR8jtZcyDT5zky87avuefdmqk0y96ip9vLbKzgmzOYSvL2IExtDrcnMujbV+F2IdYx6xOI+szgJcQ8jShFPtXnx69gXfjl3ivf4DXOwbp/L6WrCdhf55RQPTuINhHnyrY2iZm9hbR1MfY9VmIoliguPM+p7mF3f93nAYzY9mQnWVX5bM1Qzj2Oqm8d6hxekckpUXCNrI5i+zMI+2d+C0SVr5YxAst9htJ+ej+c/iv/RLv0nuo4Uuo0iCksofTy4lJJK0qUl1HtlZQfWPOwmYLjzxXapvYhW8wd3+NbD6EsMFuK5OJIGwhp7km4knOBC1XWXNqxwFSq2DXF7G1TSKtkUwO339yeuTQpLTWYqMQggZ27SFSWY3FsJ750BMcB0pBKo0q9KFHr+BdeAf/8geowXOoXHEvZ/yk7VJnDHnQQqqr2OV7TuxsexHv0k/wLryLGr4Up0xwBQImxK5NY2a/wMx9hbSq7udKgwhm+jOkWUF5p5inFBAx0Kph1xdBZXnxC1UBHlKvYDfmkeo6NlNApzJPfeWhSWlMhAlbSKuCXZlCqlvJCLvTguc5C1Yewhu7gX/9l3gXf4QqDRzCbwTn8whEbWyz4saKz32Fuf8RdvZPbgdkAlS2EPujeVzRdYCtb2Pm/oSd/RLZWgS9L3AkYL79N8zdP3aBol1s/YOWa7Y/jW2s8pBmBbsx6wZalYdBnp4eOfz2VZxKnVTXsOv3kNrakV7+/ZPSTSG6fQu4qyUvYh9Ne+jeQfTEW3iXf4F3+T0ncJXOHb5ZWQSJ2tjNBezCt5ipjzDTf0Cqm2AAibDLdzE9o6jhK+iBcyg/7foG577B3P8Es/IQ1A+EokSQdgOC5uGO47njlANOSkFQg8oisjWLDF9C7PBTX/ZUVokIJorcsNf6DmbpvuuutvYIWRDlFoznxZNwu+GC/QBiERvFTb/dgs6CsvFWtR89eBnv/E30xE30yDV0z7AraXuaZYoDHxI0XaPz6n3s3C3Mwm3syj1HyCiKrZ6Hrayjlu5h52+jcmXQKezyXaI//QN2bQqC1mM+s0OEbrjGXXAcAhK0MMsP0RPvwGD01JccjpQmQoxxDv7cLQjaR9ieiFNQy/c4zdBU7pDRwBcIsRC2sVuLToGvKxAPy1FxmqNvHD16Fe/Ce46Q/ROobOlwFTkiu7XKdnMOu/gdZu4L7OJdZGvR3WSVt68PVkO7id2Ywzz8DD1wDhu2MFMfYqY/itXuH2eBuoGMHXTBsSiNhAF2+a4rRw1bWFuIFe8OPr5D7z9FjHNWZ75Agk4j82G2ShaVK6In3sB77afo4lCXFSvHC7axRfSnf8ZU1+Kfn/YdVkBZ8D30yGt4V36Gd/nH6LEbzsc71LyOOFdnIiRsYpfuEt37I+b+H7AbD93N1XJwU7oopLqOefBH9Og1ZHOW6M6/xTctP7aoXbDoux7a3fBXv8NWV7DtBmFYJpVKo/WzkrK+jd2ex9bmcJOGjmIp06jyIN7IVXTfuAvVdw3ELdrKCmbqYzo5plNdbxKBBj18Be/qB3gX3kUPXkCVhn8gBfnEN3Fb8SjAbswR3f0D9uHH2LWH2Oo2hFGci3yMxVOxtml9h+iL/xfajX3BvS51QboVIhC2kcoqtraBKg8RhQGen8I7YDjQ4Ugpguys7unv6CNYOgVKe6hUFpUro/K9kM4d/vXPHS7ML2ET5T89XP18ETq18twQ+sKbrnj8/I/Q/RNujEDHd3xamiO+0djqJnb+a8zDz7Azn2O35pFW3QVzdvGU9woD7NpDR3BjSQh5TAjI1gqytQKj17Ao9GNcgMPnKTcXsZtLx8/5dNS1tX6u8+KPBWtj34zTWW8KR0bfd/Wp4z8i9f7f4Z17yw0m1YdprYoDLCZywZzqOmb+G6I//Qoz/Qm0d4DUvvrLQ/6hAgTh94WZExwRClQKu7GA3ZgHY54YkzmkpbTIxkPs+jRJ4fkJQuweIbMFvHPvoK99gH/tF250QCp7SEIS+44GaexgF24T3fk90Z1/QmoViCzo3PEzUV2dKnoZoEB52M0Z7MY0YsJ4hucxLKU1hihsY5tV7PZDpLqYqAucGCz4Pirfg+6fwLvwI/Tk2+ixa6je0fiiHSKyGvuN0tzBbi9iZ750YyMWvkMqO+6unNxITx9KQbADtSVkZwXVPwFysLv0ZFJai2m3sJU1pLbhEqFH6AtL8EPEW0ytUJmCm/M4chlv8k30hfddkj5XPmRkFReIaVZc4fPaNHbha8zDL/da6jqTsRJ0AZSLXTS2nSJBaQgeE1p5ytV3USO7NgetNpCiKxKyLysEUMYFvQbO4V35Gf6ln6DPveV0bQ49ljxuDQpa2I0Z1884/Qlm5nOkVXMBGZ3qrsKpsw4BVApptrCrM3iTbzz2qU9eBRLrr6xNu6id8khGpB8H1vmPfgY9dBnv3Jvo8+/jjV1F9Y7tBXOehri1SqI2srHgNEYffuRGEGytIO22S3Mks0G6EALEIw5W7iHhXz32mU8hpUWCBnbjAdKukWyFjgEJwU+jisPosdcdISdvOiWAQq8L5hyq+dilJ6S+jVm85Tr+525jN+67zvagM34gmSHZtVDKNXSs34F2FWtCjNaP5CqfTEprXI/d1gy0a7iLneyJDg2F8x17R9ATb+Ff/QA9/rqzjuncIaOqccVRu4bsrGIW72Du/Bq78C2ys4FErfiJiXXsfigIa8jOQ6S5gwlaoL2jkVKCFlLfQppr+y5+gqcjrgjyffSF9/GufYB39afo4qAbVe6nDplmkL3dyvy3RHd/h7n9z0i9ggSha7+iy+qI9zdgnza+d4675IZlIwjrSH0b2k04QI7zyZYybLti5cgmBvIw6AxATqdRvcN4V/4C79L76NGrqJ5h1/irnyKf0lnMYlwRQGXdFYI/+Ai78A22sunSHLLvA7sC8RZbBaAMPKau88VB4Wakes7P7hp4ID52Zx3drEGp/5FnPMVSNt1d2ZymCFG3o5PmwNX4lkbQQ+fxJm/gvfZLV7OaLx+u+VjiqGrUhvoGdu2hm/n54EMXHKhtxrWn0F2EjKEUevINdHngCJHk5wQRJIywq7OuGfsEh5YfH66IQCSFVNaRZuXAHcXjjzRuWJXaVmwpE1Y+FgpUKo3q6Udf/gX+67/Eu/SjuCLnELIcsM93bGCrG9iFrzB3fo+5/TskiP15nenO69Ap4Pc8Uu/9L3hXfwGnWkcsYJzAW/Tv/zvRxgPQxVM8nv3QgHZyOs0KdJT39t1kH0vKMIowzQpS34Qw9l+6cUGcGgSUuJxjzzB67Lprr5p40wVyDl0iF6c5ghays4JdmcLMfIGZ+RhZn0XCFrt+44md/+eUa1YK0nlUvtf5zqcGQUyEthGkfGI5BbpjdxEr3dXWkVbFpcp+cGiPJaUYg23XoLmJmIAzrXq9HxI3H6czqGIfeuiKEzyeuIkevY4q9aP87OGaj4nTHM0dzPJ95zMufotZuodUllwg4LB9q4c7+HgRxCPVlT5xLR2lPfBSp9wzKyilEM9HacWzDHB9LrCC1NdiLaRH1fYeIaWIIDaWxgjqSGsbbEj33GlOE67xWGWKqL4x9NhVvAvv451/GzVw4WhpDhEkqCM7q9jVKcyDjzHzXzulwMYOSvn7/McTgvac8oOfcsXrUQC7A2NPOL95mkXsnSBY1y5Xi7Q3kXbFGbwf4FFSWksQBEgYIGEDCauxHL2c7W6BjhKAZ9Dn3sS78nOnsdo/icqVXC/mUfKOUYBdvk/04BPMvd8j6w+RZg0igzpKv+rhDt7dT7JF9MgV9MBFpFHBrHyHbM9D2HY3gF01geQG/FwhQNRyRi9o8VSfUsBtb4ImErRdkOes4Ydr0rbBz6D6L+Lf+ABv4h308BVU77DznbxDDMvZ13wslTWi+x9hpj/CLt9BtteQoBlPLoMTJ4QAWDcSr3cM78pPXatYZQW7OYuszWJXH2BjgW2l0jFJ4yBVEks4eYhCogii9iO/eoxPKS7AELbi4T1nCLL/G6fYp8pjLpBz/kf4V3/uAjm5cqwid1jrGLlex5Up7OxXRA8+xa7FaY6oIz/yvKzTXtpGZQpu1sjAJDq65pTttpawq1PY9QdOCrG6ja1vugla1sayIUn53klCLBAESEvp8RMAACAASURBVLt5mEBPp86y7YSVzBmbpKQAxI2K0xqVz+G99nNS7/0d3sX3nPXYTXM85b06MzWiNtKqYRa+I/ryHzDf/KurkOpsF1/kWlfKjVXP5sEro8qD6LFryOsfIJV17MoDzIPPYP5TZOMhtOqIYZ+1TCznsyPOR7db0GrwQ4I9Pvrajrev9gz6kp5GlQbwJm46Bb7z76L7JuKE+CGjqta6uRrNipP5f/Ap0b1/Q9bnEBMCuuMrPPc/Z/eYdhFbPaV3XUilPVTPECpXwhu9gq38Ers2g134Drv4DVJZcnXQES7wJ53c9RlbGycChUJDFLoCHb5/Fg8mpQhEgetoN4YzU4jup1DlAXTfKPrcu06eY/wGqjSISmUOnz6IIqRVxW7FCuRzX2Pnv8Fuzbrdxwtvf4v9WTmAmJ1vUa6bxUtBtogu9KJ6xtDDl5FL7yJbC05RfXMZqS4jjS2nhh62QCL3N0m31eF2KWLPiCiAsPnIzuNRUgoxKdsuZN6JvL7KUKC0j+oZxTv/NvrcTbyLP0EPXETl49kPhy0gDwM3xXdjPu53/BS7dMfppSoPvFOodBEBjKuyeeIE584uQFDpvEvx9I7A5E0nxL2x4AJCm9PYrQU3f7G2Bq0aEgZ76+Ss7ayOis6UszBAwqMEeqJ2HOgJn/MRdgGUhnQB7+KP8cbfQE/ccENWvUMGcjqw4vodF25jpj/DzH6F1NbBWlRx8Pkd/9MQR35Vrg/SBecTP+nP2v2b40dPo0qDeIU+vInX3VCg7UVH0I37Tn5kYxHZXoybtRNSPg0STzAjCjicTyk4fVcT7put8QqfaK13c3iIPYKs4364Eytao7Il9OBFVLHfRa87FTSnCnFFD8OX0IW+o1fyaOWqi7SH9vqQTM71iTbfQCpryNYSsjXvCvC7bSxFV8JF5F1hzvfxeEtpw30L6lWHcv6k//QxZU97G7flG8Xr9Mmd+ki4ffB8N38kWzzGcXV0cRXoNMpPo3IlpDQEPePI4CWob6J6xrpvVkzXQXaLSLCPphwPTokgIIY4Fn5m4jzPBrdoVSbvZn3I2AuOrh4CCg41TPYIb6i0D7myE/7qHT9kzW8CYB/Hvo8ntm7tfiU4JPYtyMfN6Dh1nDBh9vufXpIiOTwez6/H+JTWlYPZCJFEdeB4OIuL8yz+zcdEPA/Vhm2ioI2f8VDxOI+DHQvpOKFnIB2SIMFpoNOYYEJMFGL3xW66KAqRIEECeBIpOw574rQnSPBC8ZhAj3Jh7URp+2joFKA/UtLWLYhvsid6XWNRNbHO3dEehxIJS/BYHEhKcfPZAI1ScalmN66xk8R+Eh17QQmELaRdh+DRmsZTh/YgU3DFEd5htWefgE5LWhhA0ECaO6jSkHt/leQqn46D18djSClYaxBrXDlQl62tk4d8X11Bax4pNTvMe4hgt1cwM19iF2654gul9hL1p3UeY10hlSujJ97Au/AjVM/wMYizfy3EnTCNKnZ9Brt4B7v4Nakf/8+oyZtJAcFhsLuz+j4eu31VHVGls7ANsdbNd1yZQtoNvHNvurv9YZuYgc7WUOXK6L4xpLKCmfkCqa5A0HIlaqd2c3MXX5UHIFNAj76OOqoVF1dQIta6drTtJWR1GrN2D9laRHbcuETvxl+hz0QV2LMjrkh2Qvf78NgyO2st1lpE5NX3KsUi7QZm9ktHzOY23tiNeCJW4fA3J6UgX0YPX3Zv265hwgZS20AaVfas7otuFHaEUjZAN3dcP+cTP79jEfcS3NKuu+6X7WVkcwa79gC7NIXdnIJmFTEW0G5K21lYMycChY1Juf9yHKBmB9YKQeCSmjqK8JSgXuXTLDgrsD5N9M2vMHOfknrv7/GufoAeuYTy03sBjCdCofwUlIfw8j2okSuo27/BfPtrzIM/wn6l+RdZpN6RlRTz5NxzR0co3ppiI9eobULs+ixm5iuiW/+KXfkKaWyjVHZvDqbS4PtJFdgR0DnbP8Rjy+yMxKIDz++YuhAeGEF2Ngg//6/Ylft4l//MSUj2jbli7qdq1XTanVLoXA+pa/8Br3cMM/4G0dRvkY15pNGIax6P2onynCE27oavI/VNZGsRs/IAO/81dmsmFhAOIQTllUjS3MeHFcFEBh0aUofbvrq9rvs6Q1DKdYSbENmYxwQNpL6O7Cyjz72FN3wZVRqMm4WfQKjOWHM/jeoZQWfyqHwfqlDEzH6NWb7vZOuDVqxg9yIW9w+PVXbTGBKF0K4jjW2kto7direom3PYjQWn1N7R/9W5+L189pn9F3D8rw46FtLIvs7IfXhM9BW310Wj0XSdwvTzhFK4KU3KTbyqrWM3l/G2FpGLP8KbfBNVHnZWM/UErdfdwnQPletBjRfc5K3+C6gHH2MWvkU259zA16jTvvPitrMSBS5t06oi9W3s1hKyNYvdeIhdm8duziC1jbgJ14t7KfeLQydEfBZIzC/Fow3nB5JSKYUoD4uHlTNY1dPZoirPGZTtJaLqhhsrcOXHeJd/jh5/A90/dri0QkdBrtiPd+Vn6OGreLO3iB78Hjv3FXZtLraYnfzw84TreJfKhrOGq/ex61PYtQUnL1lbQ4za45xKcdacmOeNjqW0aLRyX2ofxx4hpYobWQ0eEfrVDvA8FfHfbgVsy6UB7v0RqW6iNx7iTd5EjVxF5XtcMGj/aw56L+2h0jmnGnfxHSgUsQMXMHO3sEvfOg3YMGCPmCd07uObjARt7Mp9olv/BEoh20tO1qO2Bq0WEjQg2ndzSLRenxusKIxoRKVIp9NovXczPthSEpNSNJ6oMz+xYHdxhgGyOY9p1bGVFSd/Ud3AG78BfWN7k6bU7j8HvBfO1+wdwcsV0OVhVO84ptSDXbjjAkHNLdykrZNMwLvjt2sPkVo8tKlZc9VHURBHlnVsGZO+yOcNKxCi8ZWH5/tPtpTEwZ0QRYTmhEfMvORw/qbUtpHGNnZ9Cr08hbz1t3iv/Qxv4LwrX9sVpjpoYXcK/XG+ZqaA6h1DD13A9H2EufNbzOxHYE+yCij+zChy29bKWly91CHiD5dBQsjnDYsiFI09QJbz4OirUliVwugUNimX+gHUHuGCCFmdIvzw/8DOfo69+Z/wLr6LLg0cXnhLeah0Hj1wAZUto8dfx5v+CdGtf8SuTgP+ydWR7h7P/hHvryoB5fGJwG6AEqz2UfpRs/f4MrtUJk6a+3HwNdnS7CEOhFhXCUSrimnVkFYF2ZhBn3sbb+Qy5HucuPGTujJU7Gtmi87fzPeiC4OQK2CmP8Mu3UPq6y5CeyIizs/xGu6r/CFqPb/POcRxYCKkvhXrqnbfuhU0on3EOyQplQIvJqVVumtvNqcOAUdQD6luYu78Grs2j7c5D9d+gR69CsUBV6qn/cdXBHV8Vk+jcmVUtkiqdwQ99BrRrX/BLn6FVDeQVstJf3bbDbJzKCLYlQeQyu4LfJ0G4q7++jZS2eBJUlQvGrta5+KG2mr/0ej2Y7evXiqNeB6BNVhxGZUzHex5EpQClQZSyM4y5pt/xi7fxr/xH/EuvYcevoTK98baqU85iXFXicqV3WsHzmGmPsJMfYiZv4XsrMSlbOrxJH/h2ItSh5//f6iv/vF0D2d3JIM4S+kVTmiXcTKwAs0owno+XjZ3uDwlKLxMFvw0oYAV63oslddN9+cuQ7wQJJ6mtDFP9M1/w27P403exJt4ww2YzRTjeZZPIpRrH1PpHPSMunmSxX7UwAXs/BfYtTmkvh2P5u6yKxIPrDnd+tfY7+/sQLqIkB20jUH8NKlcgadbyvhO7WeyiJ8hEA9jBV8r1+6TmMunQMe+VQNZdR0nsrPkSvUm33LDZntGUKnsU85lJ6+ZRQ1MorIlVHkY2zuEmf0auzzlWqbaVefzd43VZG9bf+rH8L1vugKdGGErgrSXwc/mD1/R46eziJ+lbVNERpFSSfnx4REHgiKDbC5gqqvYtQd467N4V3+Bd/nHUB6JA2lPkeZwDr4bzZfvQQ9eQg9ecaP17n8Iq98iwf5WrNO+aarTP4Quh6BoBD6ezuJnco8U6DzWp0xls+DnaJsUgYGM1113nJcCSrkcoAWpbWOmv8DuzGMXvsC7+td4EzdQPUMu5XEYX9PzUdmCG89X6EePXMFMf4x5+CV27aEb1a19kttnN0MhVtEIfQpejnQ298gzHht99bM5dDaP8dK0WkLOV5xmPO3lhY7DbZGLBoZxs3C1gl2fdqP3xq47/3E3t/mU9Emu7FJW+R4o9KF6xrGzX2LmvkKa1ViGpHsijgn2EFmhGUEQ+Sg/j58rPHJDPqD2VeF5HulsjlS+AJkszSqUE0P5DIhPulhot5FgFbOzimzOIzvLeGELPXgJVehDpbNP1rfpyH6mc6hUFi9fRveOYfsnIZ3FLt7GVtchCLrNnTrzECC0Qj20WJ1Dp7P46ewjz3uElFpr0ukMIkKmUEYXemmtehiR79XnJXgGiAIDduUesrOAmfuC1Pt/j3fxfRiYQKUzHGoLqhQqlUX1T6CK/ejJm4R/+ie48xvs/C0Xe+/CyOOZhThL2TCCX0qRzvt43qPX57F7HKUUqVyRdGmAWmgIrSAkKZGTgexGKKXdRNZmCD/9v7Gr9/AuvoeeuIkuDkA6x1P1gZQC7e8OuU3d/Gu8vgnMw88xMx9hdzag3Wmmdp+Z4MVDiMuPjaUeQGb8POmeQZR+lFNPdDxSuQKp0gDV0KMVRViBA4id4NjQrvW83cQu3oHmDlJZwdtZQyZuoAfOoQr94KeekPLo5OQ8VEqjhi66QvfSMKrci5m/jV2dRWqrrqnZWnbH4R0a3RLZfbkhAu3QUGlAsX+MdLH/QFfliaT0swVS5QHqJkszahBZOdDcHu6I3D8iguo2CUKxLrd4KgnvTjeIYDdmsTtL2JUZvKs/xbv8Y/T4G6hCv9vSPm10eacaqDyAV+hFj15BD35MNPUhdu5LZGsBaTf3lOoOS7KOpZYuK+97mSBOl6fZMlRqloHeITLFsnMJD1fR45DK5siV+9AqSyts0gotGe+IHQsSC5GYCIkCVNB04/W6BZ3i5aART64+rYUXl+pZhd1eRL75F+zaFN7Fd/HO/9iV6pUGnCTH04oOYLfI3bvyE1TfOHb0OubhR040eXs5rqF9msV0ymmqdyzW8On0eSbEPA7akaXetjQDj1zfCOli+cBo+1NImSVX7iGVy9AMhVpg6ckekZRKI+0GdvUB5s5vsPleV2bWLRDi4uUtZGOO011wnaKDAKluYqO2qwjaWkFPvomeuIEees1FaHdvjk9In3gp13XiZ+KKoH5M/wXU/C3s8l2nRWvMY7bG4vKi+V68Kz9H6pvYxW+wO0soOYzcZoLvQUG1HVFtR4hKk+8bIlMoHajs8eTtazpDptRDtq+X5uoK1VYbyukjehge0m5iV6egvnlE1fEXBBEkbCGV9dM+khgqHgmw49rBKpvonWW8yiq0W+jBC6hiX3wu4+cf+DZxvXK24NrCin2o8iimPAzZArIyjd1ZgXYN12O5j2hiUdkieuwa3tVfIM0KeD5S33RETtItR4ICqq2QuoFUqUSud4B0roA+YOf5RFIqzyddKFOauMLq+gzbzR2MzaMP2Ac/8XDiO7+pbXUfIYH9SuBdg04wxoJUtzDNz7Br9zHzt/Df+59clLY8/BSVg9032y060GPXUX3jeOffJvr293Dnv2Nn/wiqAOwPKLkxB971D/Amb4CfRhd6XX9nZcVVDz3xdJ32uey+dVZpBbT8HMVzF8iUe8hkc6RSh25ydlBK4Wfz9J6/ysa9z6hXF9lsBPRkU6S8R6XxDsZ+Cfz4Bd13vrqLkLvYd6KMIPUqduE2YX0DO/81/o2/QY9fR2XzeyR+YvpEo/w0KteD+BlSb+fwhi9ipm8SffsbpLoGuNSJHjyPd+FHeOfecsJgXgpGrpD+2d8TfvZfsEt3OVBMWgynT8gO9s3DOcXrawQCY2mHgso6I+ens4/lwZOdO6VIZXP0nX+NVK6XZltYrwcU0j7pY7mF8r2HBEeA4Er1wh2ksYm0qkhzB3/rJ+jRa6i+cVS2HLeFPZmY+GmU56PSeVdFVB6GTBE7fwu7OQdBFT12HX3uHXT/eVcCqDSqPIT32s+wq/ecr7u9gltCnc9TqN5xlzM9VRkZ2Q0wSn0Taeyc4rGAsUK1HdFsC35vHwOXXieVfbQQvYMnW0oUfiZH3+RFMvketgLFRj1gvCebFBKcCjqWUCHrDwk372PnvsW/8Uu8qz9HDb+GypUO332iPVSxz5XqDV0gmvoIc+d3yM48+vw7bshRvid+L1CpHPRNoK/8DK+xTVTfcIa1E7FWCu/8u+ihK3Fh/ClCLNKqYR5+hDROV30gspatRkizJRQK/QxfuYF/QCF6B0+1lJ6fotA3SLanH0ln2WnWaIWWQlrw9NlWhT1V6AyKNHZrjvDrX2HWHuBf/XP05E10/wQqV3pKgXsnLqBAK1S+F//yn6EHLiDVNXT/JKpndJeQ7jM1Kp3FG38D6lvY6gZ25T60m/Hvwbv8Ht7V/4BKnWL7ggA2wlbXkOo0dq4Ousxp+E1WIIgs6/WAlmj6Sj30jZ/DT2Ue+5onklJrjZ9KgQjF8QvkRiZpzX/DTjOkkPYoZLootXGmoNgtOogipLKODQOiRnVXJFqPXkf1TcTdJ4dsCyv0oTN56B2DdNY1Yv/wecpDlYfRk2/hN3aI2nXs5jyEbcBDZfKoYu+eBu6pwOWelY3im8Pp5cUjY2kEhno7ItU/Qn5kglS+iPK84/mUWrvxZlEUUZ68RHniMovTX7PdDOnJpSik/e4M2pwJ7PlxGIPUNjH1bWxt1akc1DbxJt9yVjPfe7hUlOejPB8yhSd/ciaPHjwP0Z/FPmgTu7O87/3V6fqUIqBsrIl0eoehcAUD1VZEsxVROD9JaeKCa7t7wrU4lKlTCnonLtIzfomZSLHVDBkKI0TSSedIV6CjRQOyPkdUXUev3scu38W//hd4595GlQdjRb0TuF6didWjr+Ff/QVRaxtpbiCRJYnifR/NMGKrEVBvRIyOXaJv8hJad8aBHCPQswdFoX+Y0sg4Xj5HO4qotiLqoaGUWMvugvIgDLFbK0jwCbI9j134Cn31r/DGrqLy+3yrZyGo0k5E+tw76Oo6tl5BFr9LOLkPobXUA0O1FRGGQqF/lOLAKMrz8VMpvMeUrB7aKUznixSHJ+i5+DqtxbvsNEMqrZBi2ntsaDfBaUDF0YUWYlaxrW2kvomuVZCt950ESf+k8xcPq+J+4McoV1DQM4J34T2kWUU25t3YhmT3hBVohNalQqwm0z9CfnCUbLkP3/fxPO+xu8zDkVIptJ8iPzjGyM2f8mBtgUpjg+1myHAx45TukuvQPVD7trPtNrI6g12fxa7cR67/Od71v3C+ZqawN/vkuJ+TyuCNX3fRzrmvIVvirG+dXIpUqLUiKs2IUGXovXiD/OAoqXz+wCqe/Ti0T6m1IlfuY/DS68z8LkczsFRaEbUgopj28bVOiNlt6FSxiKtosYu3ieob2NX7+G/9j+iJ66jyEIr0sxHTT6NHrpD+m//NpVHOOAQhtJadZkC1GWH9HgYvv0G+bwjvEMrxTyWlUgrfTxEB6UKJnomLZPv7qFUXqbZCqq2IjOfhJ00D3Y24G8ZW1pGZr5BGFe/qz/Eu/QQ98TpKPcO2U2tXvD561XWmHDAf4yzBWKEZGjabIc1IkSqV6Zu8Qrbch/afbgcPRUrP80CEdDZPYWCUnolLtDYWaNTX2W6GFDM+mZROany6Gi7HiDFIZQ1TXXWBmt4JGL/Gs80nifOc2XL837O9DsK4rG67HhD5RfoGx+gZP0+mUPrecNjH4dD2zfN90pksmUIPQ1ffJzd4kWYgrDcCGqHB2CTs9tLgex0x6oQCdXEJ4BknpIgQRIbtRkC1GeCV+ui7dJXCyCipXO5Q5+dIm06lNX42S+/ERYpD40gqz2Y9YKsR0AhMdzZaJPg+xICnUP0T6PNvosdeizWAzjaZTgIiYESotQ1LlTahseR6+uiZuEC+fwgvnT1UXv+IpFR4qRSlkQl6xi+S7R2m2Ra26iHVVogVSYjZ7dAeKlvGm3zTdZeUh55QH5vgqKi3DZuNgJ1WhM4WKQ5NUB47TzpfJJVOow9R6XS08EwnNTIwTM/kZUojF7BGsdUI2WqGhMY6Yh73L0rwnCHgZ1E9Y3gX30cPnI9rVBNCnggUbDVD1moBrUjI9gxTGrtAcWQSP5XF9x9fMLAfR4yZKrTWZHv66Bk9T8/YeZT2qbYiNhoh1XaESUxl90IiVKGEHr+6q5LnrGRyzZ4VbrC3sFZrs14L0CpFvm+c8sgFioPjZLLZA6U/DsKRSKm1JpVK4/tp8oMj9F18ndL4RVQmT7UVsVhpERpJ7rvdCj+H6p1Aj1xHFQdc4cBu0Cch5rMgMpblSovNekAgilSxTO+l65QnLpIpllBHyAMfqfdKKYXn+4gIhb4h+i68Ru+5K0TNCo3aGks7LUZLWdKeJpWoNncXhN26WNlZw85/gyoOoHJlyBbcCHgv7XxOHYto/VCdPQkGHQgrQiM0zG03qbZD8LLkeoYYvPIG5dFzB84LeRKO1RDpp1Lke3rpGZ2kf+I1KgvTbO+ssV5rs1Zvk01pyjqVXMNuggKilpOJXL2PufN71OBF9OB59MAEemACle+DdMGNS0hlnGyIjqdOa43TvEku6n4IEBih0opY2GnRCIV0oUChb4LBy29QHBw9kpWEZ9BIUJ5HutRL//V3WJ/5jvrmElFzm7mtJrmURz7lOXGtBF2Ejq5siN1egNoKZv5TN+4gXUaVxlC9k6jeYXR5AFUcRBUGXFFAroTKFJ3mbELMXYgIm42Ame0GrcgiosmU++m/+ibFoVGyxRKpVOpILY7Hlw5QmlS+yOCVG6xMvsbO4jTV5g7brYi1WptSxmewkHlq03uCU4CIk4gMG4gYBINS67C1jlqfQ+UK2FzBiWoVRqA4gC72OUWBfA8qU4Z0wRW0Z3KurK4zUmFXfvTVv/Ai0AhcCmSjFmBE8NIFSiMXGH/7JxT7hkilM4eq4tmP41tKpUhn8/RNXmTg8g22Zu5QW31IEEVs1AOKaX9XijIhZjfC+Yxq/3DZoIG0a8hmBCpOn2R7Id+LKpRc5DbfhyqOokojqNIgqtTn1NczBRdIyua7U3D7hCHialy3miGbjYB6O0KskOsbof/SDUZff5dsqXxkQsIzkLLTE5bJZhl5/W225+6y8s3HGNuk0jKsVNuMlLL05HzSyTa2i6G+/73SLiAEYEDq21DfRNYtKMFoH5UbcFY0X4RcHl0aQfWcQw1cxj93wxUkvOLXXERoGcN6vcVOMyQyYNswcPkmo2++T66nH+0frzD/mZSvVFzrWB6ZpP/STXrOv05l8TZRUKfSDpnfaaB1nt5sCi8xly8R9l+rWEw7nqeJsYhUkHYTVfHA97CpWVTuHqrwFTpfxCv2u3TLK4yWsazXAtZrIfW2QdD4xRJD199h6LU30b5/bKmcE5GjyxTL9F+8xsSPPqC5MU+zWacVWpYrbcqZFFlfO5GtBC8hYuu5P6VtTDypDLfNpYp4a6jULFL7z4i1r7RHGRrXBbJSbVNpRQShxc+UGLj+HkNXblIeGsf3jxbc2Y8T2WN4vk/f5EWufPC35ErDKHwiK+w0I9brAdV2Uqz+ckP94GvfzyQefBsF8TjB0M37fEUhAo3QsFkPWK62aEYWKx650ghX/+rv6L9wjVQ2Syp9fFG5k9n4K00qV6Bn/ALnfvE39Jx7DRu5Fpa1WpuVaotaECXtXa86XvHWLRGndr5eb7NUaVFthpjIkB8YZujmjxi/+WPy/QPPHHg+GUvpeaTisXnnf/wBg6/dxM8WsFaotsKYmG1akStYT5DgZYPgCFmJ1/NmI8AIKJ2hd/Iq4+/+nOLQaFy982ysPDFSep6Hn0ozcvVNRq6/S2n0Ikp5tCM3R2Fxp0mlFRKYhJQJXi4IexIfy1VXcF5vG0CTLQ8ycOkNRm+8R6ZQxPNTblTkM+Dkoi9KoZTGz5cZev19JlaW2F6YQaI69XbEghVKGZ+Mp8l46Vd5l5PgFYPCzQPZbIRMbzTYaYaICForBq7cYOjaW/SMniOb///bO5PnuI47z3/y7a/2QmEnQICbFooiJWq3LLVsOWz3HLr7Msf5E+c2l7k4YqLt7lZ3yw6GJEuUbIobSOyo/a2ZOYd8BYAURZEiSABkfSJIPGIpVuHlt36Zv7Vi4pJPuLgPLJhkWRau52E7LtXZBWZeeZOpc5fwyw3Qgkwq7nRi1vsJw0we1H87ZsxTJ1eajUHCta0BvSQnlwrHDalMLzH72jvGuVMqI6yDOVMfmKUcVZAorSnVJ2gunWX+4vvkUY88jZHZkHaUcbcb4zkWi40Q2xpn+4w52oxyW1e7MRv9hFQqECa/tXXuElMvX6I6u1C0jjyYxXzgwUPXddFhierUPCfe/JDe2i3i7iaDrSGZ0qz2YjSaeuhS9R1c23quY1pjjicaU5KVScWtdsTdbkKUSUDgeAGV6QVOXPoFE0uvENRbj10J8jCeSi6UsCy8SpXps+eZffUi9bkFE7vSmkxqtoYZX97t0o1zU2P7NJ7EmDE/k9F6jFLJ91tD1noJg9QIUmBTqs/SWr7A/OvvEjYmcD0f7wnikvfzVNJsbNvBD0t4nsfMq5fpr9+hc3eFuLuJlClJptjop6y0IwQwUfJMDe7YZB5vipHmqBydZ4f5REwSg8zRPzORYZDkrPYSbmwP6cY5udIIYeO4FVpnLzF38T1qhXPHeYKUugfxVERpWRaW5YHrMbH0Cv3zG7RXbrP2zWckvS2kyokyyUo3xrYFgWsRODYW45kkx5LRPdOguhuIjevgPF61/YGjcnR/Gx0NgUeflak0pFKyMUi504nYHJiSLK3Bdj2q0yeZgDb+ywAAFalJREFUvfAu0+cv45erP6s066d46gmpQa3B5MsXiaM+g5075MmALOohFWwPU2wh8GyLhXpA4I4neB1PinumNfK7z1Cbtw45Id30HdJpgtq4C1aZR3XCSKXZGWasdCJWe0lhIc3PukGJuTfeY/7i2zRPLD/Z1LKH8NRFKYRFeWKK+fNv0bnxNfmwx86NbxEOSAXdOON2O8KzLSbLHiXP2auTHXO80Bq1+g1sXSsS1Q/reYw+CnQyNKVoP/F0NCYW2YkzbrWHbA1SklwBAi0FYW2S6Zfe5Owv/5HJk2fxgxDgqQxNfuqitGyboFzFnj/JwuWPGW5vk3T7RJ1VtFBEmWJrkOI7ZmqXJQShd4ijucc8ETrqwFABRyEpvWgA9ghv8ZnUtOOMO92YtV5CP8mRUoMSOEGV1unXWXr/d0yeuUBQm3ik/q0/l6cuSqeYMuTYNnMX3mO43SFqd7nzlz+gdIxSimEquduNsS2BYwlcx8cR49F6x5OiC94xQqPppcaxc3N7SDfOkApG3tbq1DLzb37MqY9+j1drIp6iIOEZiHKEEAI3LDF/6R2UzOhv3KK/fo0s7qERDFOT8SM1eK5No4hhjhnzNJFKE+eK61sDVjox3Tg3gtQay/Hxqy1OffxbFi7/grDRxLKf/my5Z7fqhcDzA6pTs8ycv8S5T/+FytwphOObs4jWDFLJejfm2/UeO1FGro7CFmjM80quNO0o45u1Lnc7Mb24KC8szp+l5iSn3v8NC298QGNhCcf1cV33wL2t9/NMLaXjOOgwpD67yKkPf0t/8zYy6dO983cApNT0Ek2yowgcC61LtMoetjX2yY45WKTSdGLjZb22NSDJNbnaGxEY1CaYPPMapz/8Ha3TLxPWmtiOg33AMckH8cx7dAjMNnZi8Qznf/3PWHnEV3f/jtYahEBpSHLFl3e7DDLFBbdO3bexxwfMMQeE1jDIFdd3Iq5vDYgyVUxuKEQpLCbPXmL5g//B7Osf4IZlHM/DdZ9NmOeZi9J2HJMn6GnqJ1/ixOVfM+z0WLnyR9JBB41EF4NMN7oJX9Hh9ESZZskldGzTMuZZP+kxzwUm7CHpxDnXt036XDSaqyqMU8fxSzSXz7P49qfMnn8bNyjh+cGuw/JZ8Owt5WhcOxDUW7TOXSKNE9LBgK3rXxJ3NtEoNKbR7WonxhGCXAW0Sh6hZ2OJ8XZ2zOOhgTiT7AxT7nYT7nRiBqlJnwMQ2sIN69RmT3Hy3d8wd+E9avNLeEFYpNE9O/fLobaYczyP2uwCwraJuztImbOZXiGLe4BGalPtfWtnuDuQdkp4+I49PmeOeWRG1R7bw5Q7nZjb7Yh+IvfGNmqwvJDqzBJzr/+Cpfc/ZeLkGcJq/ZltWfdzuKJ0XCiV0K0ZTr7zD6jcdJne+Oa/UDpDI1EaolxxtxuT5oo0V8zWAkqeOWeOj5pjfozRMTHOFBv9hJvtIRv9lH6So/Zl/SAFtZlTnHjzY05/9HuaC6cIq7VnumXdz6GK0mxlHYJymfrcSRbe/BBh2ag8Y+fG16RRx2RIaVNGs6lTMqVJpWK2GjBRMv1QxqVfY+5ntCa6ccZaP+F2e0h7mBFlck+QCmw3pDQ1z8l3P2X5vV8xe+41vEoVxz24UqzH5dA7JFuWhXA909D51MsIx0FmpgdK+9ZVsqgDlkYWw1RSqVBKF13xNLXQxRl3MBizD1W0guwnktVezJ1OxFovIZd67w1cCRyvRGV6ibmLH3Ly3U+YeeUildbUYT514AiIcj9+uULr1EuEjQmwLK7/ETa+/m9wzRwLjclR3BykDDNJO854abpGI3BM7uxhv4AxRwKpFIMk59uNPmu9ZLevzl41iwBlUWotMv/mx7z+z/+L2swJglrjUJ/3iCMhSiEErueB1thFtsSZj36H4/kIy2Hz6p+RKkbY5n1Oas0wlaz3EqKszWIjZK4W0AxdinDnmBcME9YwHtaNfsKNHXN+jDJZNAEfdXQHW/g0Tr/Cyfd/w9J7v6I2t0BYruIcglPnQRwJUQL3pC45XkDjxBLy8i/QSoGGzsq3JIMtsEygNy+EmWRmO5vmiqwejMfvvYBoDZnSRJmZ73G3qPRIcnVPV36hLdygRnV6iaUPfsvi2x/ROv0qXljBcb2nnj73qBwZUe4iBJZtIYTPxNJZ3NB0Wr/5bzbb174gy7poFKAxWVG6sJiSJFcsNUNqgYtnWyZsMhbnc43SmlRq+nHOWj/m5k7E9jAlu6fptwAtcLwKtbkzzL/xS+NlXTyNX6mZZJYjtFCOnCgty8LzfLIsxfF8qlNznP3kH3F9HzcMWP3y38jzYZGWt+dl6yeS77eH9NOM+VrATDWgFrjY4xYjzx270QwNcS7Z7KesdGJutSOS/d7VAoFpT9NYfJXFd3/N6X/4PY0TJ00c0vPN9xyhRXLkRAl7yeu2bZtYpphj4fKHeGFAUC2xdvW/GWyvIbNs9+yutCbJTUOuNFf0Esls1acRupQ8G+eIbE3GPDlam+NKPzXe1Y2eme0RZfdNd9OmlYdfrjNx8nVOvvcp82+8z8TCMsEhhz0expEUJYBl2cVHTVCuMLF0Bi8M8Mshtu+x/u0Vuqu3yZMIUMZqak2UKnJpOhrEmWS64tMsuVR9F9+xsMaZQMcWpU0lxzDN6cQ52wPT3LsTZySZ/MEWVNgO5eYUreXzLFz+rRHkyTMEtfqBd6A7SI6sKEcIIXZTnWqzi5QnJvGrDbzqBDf+8//RX/keqVNG44aFEOQSulFGP5G0o4ypisdMNWC64hO69liYx5BRqlwvkdztmrjj9iAjHm1X7xGYQFg2brnO7Pl3Of3h71l45zd4pRpeGB5K6tzjcORFOcJxHGzLQns+M6++hRNWKU8tcvPf/8DWtS+IOusmZLLbdUugtKYb5+ZmxpJOlDNV8WiWXNOg67Bf1JhHIi9qHzd6Cev9hHaUMUglmTQuv70bKdBS45WqVOaWWXz7Exbf+ICZcxepTkxh2c6R8bA+jGMjSiGE6Y1i25Qbk4jTNo5fxivVKE9OsX71czp3vts7UxQ3Klemo0EqNYlU9JKMichjsuxRC83o99E2ZizSo8HoFuZSmanJw4ytQcrWIKUbZyS52q3u2P9DWmlKzTlapy8wd+l95i++T3PxNKWJKVz/kPvQPgbHRpT7sR2HsNrAXvYpTUxRaU0S1Gvc+I+U4fYmeRrvhk2gaLCbK7aluanbw4xOnDFfD5koeYSujWOJca3mEWA0C9I46zI2B6ayox1nxEVM+l45mjtmOS6uX2Xm1XdYfOdXLL71EZWpGdwgxHaO9nb1foTWx3e0spSSNInJoj7dO9e5c+Uzvv6//5udm9+Sp12w9to7jBCMdriaauAxWw9ZnijRKrk4RYhFjMMoz5RRNYcAFJp+KrndjlhpR2z0YkZtc+43jqYwWYBwCJszzL/5Mec++SdmX36DoNbEcmxc18W2j65T50EcS0s5wrIsPD9ACEFtbhnbC7G8MitX/sT61f9isHUbmaYmK2iU9sieTvtpzkp7SDdKmSh5TJQ9GqFLxTP1muNi6qeP1saJM8wkvThnO0rZ7Kf0kny3CFnffxe0+UsIi6A8xcSZC8xefI/Fy7+kceIUQa2B7To4jottW8dKkHDMRTnqYqBdD1GpYwcl7KBC0GgQNhqsX/2c3uoKcW8HmUf3WU1BLjU9mdGLMzpRTifOaFU8JkKPkmcTOtZeZtDYeh4YWpv85VyZ+tgok+xEGduDlK1hRnuYIvXoffSHgrQcDzcI8WsNps++w/ylD5m7+C5Tp17CctxiqrhZG8dNkHDMt6/7kVKSZakZtxcN6a7d5taf/8jK539i69qXDNu3i5KwvbPmfkZOW9+xaJaMI6hZ8qgHDiXXJB8IwTic8gSMrGJeJHr0kpxOlLI9yNgcmHFzeZEe9+BFKbCEg1+fpDa3yOSZVzn36/9Ja/kVSvUJvCA4liK8n+dGlFprRi9FK0meJAzaW6z/7a+sf/M5a1/9BxvXrhK3N5BphLAfPArbEuBYAscWlD2HRujSDF0qvmP+BA6uZe02zH0ufnnPiGEq6SUZ3Tinm+bsDDN6cU6SSbKiRvaBq1FpwMIJKzTmzzB9/m1mX3ubuVffoDQxQ1Cp4frBsQh3PArHevu6H1FsWQCwLCzbwfYDhOMQ1urUpuepzF1h+9pf6d65xnBnfZ+Hdm8lGE+tSXJOcxOc7sY5Zc+h4tvUAiPOsusQuNbu2XPMHiNh5UqRSEWcKeLMZOF045xeYkYhRpkkzTVK6Qe7vYukAK9cozy5QOPkS8y8fInWmQs0T56jNjOP6/nYzvGIPz4qz42l/DGyNCVLYrJhj83r37F+9S+sf/1nNr77kmFnjSzqo2X2kFiIcSh4tkXgWISeoBF41EOXeuAQuDZ+cfYcbXFfVDSQS5N5k0lzVuylRogmwypnmEmSXKP0vqLjBz2QFtheQFBvUZ8/xdRLbzL72ttMnX2NcnMKNywjbBvPdQ90tPlR4LkXJRRbW6WIh32G7S06d2+ydvULvv/T/2HruyukvTbCsdC7w09/5ERTnDs928JzLHxHUPEdJss+k2WfVsnDKcrFhGB3dPx9+QzHHr3vwtrn1VZa7zlsBintKCXOFalURog/iDHuZ8+to6WCzKF24izLn/yOhdffoXnyHOWpecr1BpZtw2iS6XP4LvhCiBKKyoIkIU9j0uGAqLNN5873bP7tK+5+9TmrV/6ddNgGS5mV9pBfi1WM7LMtcCwL37HwXYvQsan4DtXAoea7VANnn/e2KA/SD1uYR5/Rm43Umkxq4kzST/IiKSMlyhVJ0XUwlabIWCnTY+mhKNBS4LhlGqdfZuHCe8y88ga1pbNUWtN4lTpuUCIIw+fCmfMwXhhRAuR5hlYarRVaKbIkprt2h7Vvv2D1L39k59a39DZvM9xZRee5+T5975lzP6LIsR19XQBl36HiGXHWAoeSa7a4ni0IXBvXtnAsgSV+xOV/SFlFevevez87evW51GRKkUszpSrKJFFqtqOD1MQY21G6Kz6BMD+tf/S3V/z+LIS28CpNSs1Z6vNnmHn9bRYuvktr6QxOqWomXVkWQlhHPpn8IHihRHk/aZoi8xwlM7Koz+0rn3Hjsz9w98q/kg7aZPEQmadoKU0oRf+IQ2IfAmOVFRpLCEqesyvQZuhSC1zKnhGnLQpxipEl3buGwrKKex/7SQSr778uMin07qXe23Jr09lB7ZuI1k8kgzRna5jSLs6IIyfN4wWKBJZtY9kuthPg2BWaZy5w4vKHLL71S5oLp/BKJRzXM72bXjBeaFFqrZF5TpZlaCVJBj2G2+v0Vm+y+tfP2fjuCzo3rxH11skGPWSWIsxxpjCTD1+IAhPXHFlFMxTXwndsSp5N2bMpuTaBaxXW1MKxBbYlCsGKwrtbPJ4Qu6EYIcRP9iHam1mzF/vT6N05NlKZLvSjOkWpNFmuiHJJnBlrOMgUw9SELXKpiu8HqfmJM+L9T0aZ4c5CYLkuYW2a8tQ8zaWXmX7lLVqnXqE2s0BQa+L4Aa7vH+max6fJCy1KAK0UUhkrKKUkTxOyaEBn9Sadlet0bn9vtrUrNxlsrpFEO2RxF5Xn5gEecc3o3dQwIzbXtvBsgWeba7cQpGNZu+J0i3ipU4RdLLFf4Bau/Whjw2Ux53Nk+aQ257xMmXNhXiSA50rdc51K8/XR2XC0VB5JKLurSiBsB8cP8EsNgmqdcGKS5tJ5GgunaSycojq3TKkxiV8q47ieEa5lPVdhjsfhhRflfmSeI6UstnGKLI6I2lts3/iWnet/p3Prezrr1xhs3CLutcnjmDwdoGQOo/zax3hn313kjOKsFIK1cW2BY5lEhl3Luc/qOrYR70+RSlX0PN0nysIq5lqTSVPelklZCK/YxhY//1iW6p66OQvHD3D8En65QdiaoT67TG12gdrcIhOnzxeWsYFlmwE6tm1jH9KogKPEWJQPYRRKSZKYZDhgsLVuBHrzKu2bf6d9+3vaK9+RdnbQWYJwgAPqjDZyH5m0wP2fL9xDgkeaBGWcVcX1/UVPwtrnpnpCtAatME/XxnZCqnMLNBbOMrH0Es3lV5lYOkd19gSlRgs/CBCW/dyGNZ6EsSgfAaUUaZKQRkOSQZekt8NwZ5PB5iqDjRV6ayt0V2/TXbvJcOs2+XBgYm3WriuS3X3uY66/H7s9j2PBDuIxHvCgxkmkTBWG7Qf49SaV6ZNUp05QmZynNrdIZfoE5dYMpcYUXqWKX67ih6UXdmv6KIxF+YhIKZFSglYomZMnCVnUJ+q2GWxv0Fu/Q+fuDYbr3zPc2iDaaTNor5H0dsjjCC0lWNoYBQvYb+UeHI84ZPZ5fkeeIV18HoHt+njlCn51ilKjRak1RWlyjursEtXpE1RaMwT1FkG1jl8qY7s+CGFGlBfzScc8mLEon4DdhIQsJU9isnhIPmjT37jL5o1rrF69Qvvm34g2VpFRH6UzlEqQKjXzLEYxUA1a/LAg+xm/GnaDLgLQRS6xMBtcy3KwLQ/L8bAcn6DRonZiieap15hafonmwjJ+YwonKOEGIY7nY1m26a00Pic+FmNRPiFaa7I0LRITJFrmyCwzXtx4SDIcMOzsMNy4S3f1FuvfXWHzb1+QtdeRiTQF2CiwFSAB/UMr+mO7zMfZfd5/l+/L/dMqxwT0bcAGbYL1luvgVJvUT5ymufQyjcUz1GcXqLZmCGpNbD/E9QPT9t9xwbZxXBfX9XbPiy9iWONJGIvyAFBKoVRRcVJsRUchkCzNSOKIbNAj7u3QX79Df2OFvLdF3B+S9Ackgw5xf5u4s07a20amCSpTKKl2RTuqaDG3q/i31rtZMw9iZOmEsArLZ5xQQltAITpbYLkWwrFxyzX86iR+tUVQbRBUagSVKm51grA5RWlihrA5SVitE1SqeEHIbl6S2Dszm3DGeIv6cxmL8imTF2EWtEYpYxmVzFFpRDwYEPW6RO1thjvrDDdXiHfWyId9siglTzNUlpHnCUpl5k+eo5XJQlJ5updp9AMEwrKwHNeEHCzXXFsOluViOR624+J4Hm7oYgcBXrVF2JwlnJih1GxRqjcJq3WcoFw8RhGyKKr6D2vS8fPOWJTPiNE2VxWB/N3wxL6mQcbqKZCSeNgjjYZk0ZC43yOLhubMGkdkSUQeDcmTIXokzPsRAsv2cPwQJyjh+CFuWMIJQtyghF+u4IVlvFKZoFxBOG6xbRZ7zuLdbaf5aFsWrnc0W/0/T4xF+QxRSu0T4I9hHD5pEpNnGUrmyCxHK4mSEi2lsbjSfM5Yygc8jACBhbBthG1jWeajsGxTAO44CNvGLq4d13toXeLofDgOZTx9xqI8okgpd0V8j4z3FzM+MvfHSO+tRRSYXrpjC3g0GItyzJgjxv8HR85zOJty2rkAAAAASUVORK5CYII=;" parent="1" vertex="1">
          <mxGeometry x="-2250" y="201" width="57.49" height="59" as="geometry" />
        </mxCell>
        <mxCell id="xTJOExZGsLGTWN9rmItR-54" value="" style="shape=image;verticalLabelPosition=bottom;labelBackgroundColor=default;verticalAlign=top;aspect=fixed;imageAspect=0;image=data:image/png,iVBORw0KGgoAAAANSUhEUgAAAOUAAADrCAYAAACWw1FmAAAgAElEQVR4nOy96W8dWXrm+Tsn4u4L953aU1IqlVtlVrmWTrts2O1B9wAeYDCev2H+rfkwwGAwg54ewEbZbVe7NlfuS6UylVooivu+3f1GxDnvfDhxSWaKkkiKEq/EeADqUuRdghHnife82/MqERESJEjQNdCnfQAJEiT4PhJSJkjQZUhImSBBl8E/7QNIsB/yvYcjveZAqMO/jXrkmwSnhISUpwARIQxDEAEk5pXs+79FRMBaEOt+Lu7nu793bwQ24mBiKtAeoFBKgVLuZ2hQ2v1fx49Ko3T8exU/B+LfKVKplHuPBC8ECSlfMKw1mDDEBm3ERmBCiEIwIRIFELXAtJGgjbRbEDSRMICoDVGARG2I4tda+3RSKoVSHvgplJeBVBZSWZSfhlQa0jlUNofyM+BnUF4avBTEj8pPE1mD8nyU1nie96JP2ZlDQsoTg2DtD8mxz9pZAyYiClqYdh1p1ZGgiQQNaNWRdh3aVaRdhaCGNBtIs440qo6Y8Zf7vg5REFtRE1vYHyC2gKDA81B+FtJ5VKaIyhYgnUVlcqhcEVUoQbqIShfcY6YImSIqU0BlCkg2B6ksOpVBZXLg+bGV9eLd7p4V1R2Lm+DYUEme8mRgrdnbkna2mtY6MrXrSKOC1LeQxhZS30CqK9hGFWlUkfo21DeRVgXCOpgGIhpExUYwfuxcKRHA7m17Hwu170G7R6Xi/0v8f0FhwcuAn0eli5DrQxV6UfkyqlBGFftQhUFUYRCd70UVeiFfcqTVXkxOBdptdbVOrOmzICHlM0BEMCZCRBArWGOQVhWp7yC1TaS2itTWHRk7P6tvIc1tJNgBYyEyEEWICcBEbjsqhj3/7oeWp/P9US+b+sFrOv5r/Khiy6d9t4X1/fgrtrLZHlS+H5XvQxXLqGI/qjSALg6jioOoQj8qX0Kn0iitUUrheX7iix4DCSmPABHB2k6wBcQaonYTadaQZgVpbCOVJWxlHdlZQyorSH3dWcn2vm1q2EQkRCkNeHvbzN0FfFoLeX/QyQIGwaJQ4GUhXUBl8qhM1lnKQh+6NI7qGUaXh1ClIVShH/K96HwJP1dEef7u36ZjsiZ4MhJSPgX7T4+1ljBsgzEuMBM0kfo2dm0Wu3wXu/gNdmcGaVYgCJF2ACaI/b4nLcZuXKg/XBb7LbS4G4jnOz80k3L+aXYQPfo6euw6evQyumcElSmAnwEvRSqTQeu91HhC0IORkPIJMMZgomh3iyfWYk2IbC1hl+5hFr7Grt6B+hbSqDmLGTZcUGfXB5Sj7zS7HsKuZVcalIBWKJVC5YqQy6PyRXTvJfT4m+iJN9DDl9HZHMrzdl/r+akkmnsAElI+Bo6QITYMwQTYygZ2cx67eh/ZeIDdXEC2VpD6mktZGBNHWuPTeepb0RcI2b0DuaisVihPQ67PWcu+MVTvJHr4iiNn/wSksnjpLNrzHUE9L7GcMRJSxhBrkU7gw1rCdgPbrDtfsbKCWZnCzn+Dmf4Mqc653KLK7vmDcHBq4qxB7dvmioC0AQt+Hj35Dt6Fd/DOv4kqj7tgUbaISmXxM3sEdW+jzixJE1ISV9gEbcQYl8APmtjqOnZtBjt3i/Duf0cqS9BugdWA5dGoaIKD0SkdFFAWPIvKFdCTv8C79B7e5A1U3yQqX0KlcnFgCPxU+sxubRNS4qxkUN/BbK8iW/OYtQfI0h3sxiyys4qtrruKGivft4wJjoBORNeCp1G5PlSxH90/jhq+ijd6DTV0Ed07hsqVSWVyeP7ZrG05c6S01iISJ95thLQb2Nom0eYcZuUBdvk+du0+dmMOqW25yhnlx2RMcGKQCLCQyaN7xpyvOXIVPfIaauAcqd5RvEIvpDKAQmn9vcjtq4wzRUoRIYoiTOhSFdKoYNdnMYu3scvfYJenkI0FpLnliEhiFZ8vOpVJxtXdlofQQxfQo6/jTb6FHn0NXR6BVAYvncH3U8Crn0o5M6QUEaIwxEQB0qg6Ms58gl24hV2ZQWorSNByFTaS+IwvDvui1VqhfB9y/eiBMfTYNbxzP0afexNdHkKn0oDC9330K+xvvvKbdmOMi6xag2lUMKtT2MXbmMXvkNUp7PYS0qhA2IrTb5qk9/tFohO5xpUbRiEEa9ig6soSN1fQa/fQ42+gR66iSoNAFo9XNxD0SlpKEYkrcZx1tG1XeWOW72CmP8HMfI6sTSNB29WfSpwMT9AF6FyLuCAhlUGV+tATb+Jd/Imzmn3jePle/HRmXwqGV8bnfCVJGUURUadjwxpke4lo+nPCj/5P7PoUBK24AyMhYvcj7mbxFKo0gH/9L/Hf/B/QE2+gMvm4osgRMp1229uXHa8mKYMWYaMGzQpm+gvM9EeYuU+x2xsQtOM+xJf/4p0dxEvU91CFEt7oG+iLP8a7+jN07zgqW0Sn0qR/YDlfVrwSPqW1FolL3CRqY3bWMGsPkaU7mAefYRZvIdszoPNAXHuZ4CVCfL2iCNlaxjSb2NoGUlvCu/Bn6OEr0DuCiSVOlPZe6q3sK2EpwyDAhAEStpHKKmbxW8zUx5jvfoc0tpzkRpLeeIUgICF4Fu/aX+O/9gu8C2+j+s+h0nm8TJZUOnPaB3lsvBqkbDWJqpvYjTnM1EeYmc+wS7eRWiUJ4ryycIE8lc6iBi/gnXsb7+ov0KPX8PvGSBdKp32Ax8ZLu321xmBN5BqN12cxC99iZj7HzH+HbM67NIe1r4SPkeAguDyytJuwMYeJ2khzG729BOffRo1fg1QOz0+9dDnNl4qU+1MdJgqJmjXs1hJ25jOX6pj90lnHKNyXc0zwSkNppN1ENub3pFcaO9gwwBu5AsVeIBOr+r0cnScv1fbVGEMYBICAibBbS4Sf/lfM/d8ga1Ou01/F8hMJzhD29HJJpVHlUbxz75D62f+KHr2CypZi/dqXo+DgJSNlRNhqIa0K5sEnRN/+GjP/HVRXneyiFZJqnLOKfeV6fgaVL6OHzuHf/Fu8679E9w6jPR/P87u++6S7j46OWJUBK9igiVQ3iKY/xHz3O8zUZ3u+Y1Kresaxr1wvbCOVNUx9w6nJR03863+JlIYgV9x9uhPy6r6beNeTEhGiIEDaTWx1Dbt8l+iT/wuzeBfaYVIEkOBgCBAazNSH2J05UD7ehfdg4Bw2WwCl8VNpfL/7SNn121exhna9glm+j5n6iOjbXyFrc0irmRAywSEgkPJQxRL+G/8J79ov8c6/hcrk8NNZ/C7cynbfEcUwUeSU45pVzNI9zP1/J3rwMXZlGsLoFVSIS/B8oCAyyPY6ZurDWB40wJu4gS32E4provb97hGO7l5SmghT2cSuPsDc+wPRgw+xK/eh3SapzklwJAggGrv20I2SMMb9cPQ6qjwEvo/naTcIqQvQtaTEGuzGHNHt32Ju/zN2ZxnCEFTqtI8swUsH5UYyRAa7PuuCgyYCNF62iPJKXbXz6jpSWuNGAYR3PyT67rdEU39EqptgxJ3YBAmOC6XBCtKqYqY/cpHZsIX/xi8JEfxUCs8//Zt+d5BSBGONS3/UtgnnvyP85l8xDz9DthbcXU2SlEeCZ0XcPB1FyM4KZuZzEONmc06+gekZQuI15razpxOZ7QpSCjiFgFYNu3SP8KtfYe79FtlZAUn8x5cL+2aNnNoh7N+LdtZP52fxcRmLbM5hgrqL5Hse+Glsvgy4EQyed4ZJ2VEIsPPfEX37r5hv/tFJdZBsV18uKMQ2AOevnR72pocpLwsqc8C8Ind80tjG3PsXSKUgCvFv/IX73Sn6mKdKSpf2iJB2nWjxLtGd32AefIS06vsGpiZ4aaDBv/LnqIFJN2nrtNAZ2hs0MPO3sCv3Ueoxx2MBsdjZL4hSGdAe3rm3MPQAnEpJ3imTMsQ0drAb80R3f4+Z/hi7PpMQ8mVEPCXau/xneJf/DDKF0zsWESe0XdtCWtvY5W9APU6/R4FKu+b4h5+D8lCpDIxcQUoDpzJX8xRJKUgUYreWMA8/xXz3L9j1eQjbcadHgpcG+yaN6b5x9NhVN5fyNI/HhNjKCjpXQGEO8RqF7Cxhpn6PyhXwtYZUjhBFOp2OR/i9GLzw1W+iCGMisAazOY+Z+Qzz3a+RrU4eMvEjX36o0w30wN5o+kMfh3LBn/o2ZuoPqLTbyuqJNwiV4JPG814MXV44KUUEGwbQrmEefoaZ+iN26a7rIBdIIq2vCk77OqrjHUIUYjcWMNOfgJ9CFXqwPaOI57+wuOMLJaWIG64jQQO7Oo25/0fszJ+Q+k5cqXPaFzLB2UYcy2i3MEt3nFpBeQTv8k+RTB7x/ReSu3xhpHQzIAMXbd1aJvzo/8EkhEzQdVAuptFqY5ceEH3yX1DFIaJcD6I0qXTmuQd9XmgySazFLk8R3fk9ZvqPSH0z2bIm6FI4US67Nk309b9iZr/GmogoDLDWPtdPfiGWUkQwYYCtrBI9+Jjozn9HdpZxm/QksJOgG6HcyItGFTP1R1S+hO4ZQfon0PkiPEex5xdCSmsiwkaFaO4W5s5/wz78d9A9PyiHSpCg2xDLWG7exdzPonL9+O/9ZySThU4k9jlsZZ87KaMwIGpUsOszmFu/wq7OArmEkK8iRF7Nog9dwm4sEN3+B/TweSLPx5aHAIWfSp34iITnTkobtDBrs5j7H2KX7iCNalIc8MpB4iqaeDLzKwcfggDZWCD67jeodAHxs6hs8Xl92sljVzRZLLa66Ya03vsDUtlwk5KTwM5LDtn3qEB74HmoVMpt6067cODE4aRLpR1ipj5yk76KA6jhyyDpE/+050JKYwxREIAJiJbvYGa/cLM92q1k2/pSYt88FrE4axh/eRlUrgdVGkT3DKNKQ6gXVPnyYqHietp1zMNPUfkeVM8IZDKu7esE8XzOnggStlyR79w32OX7SLORqM+9FIgrYWRPdVwkBAxKaVS6F0qD6FI/qtiLKg6iikOowiCq1I/uPw/6VSQlceOvwa49xMx+iR68RKjfRBd6UFrHynjPvsafz9mzBpoV7OJ32IVbyOZ8PGwnaVjuXsjel1jQPsrPQqaIyuZRmQwqW0QVRlE9o+jyEKrUjyoNoLI97nmZvCtE70KB45OBcgantoldvo+Z+QJVHEC8FDqTQzz/RHbuJ0rKjoSshG3szgpm+iPsyh2ksZnM+OhKdIgYF24rDRqUMpAtoUpj6P7Lbh7HwCS6dxRVHnJk9VPgpd1WVXvx68+CZIvakxOZ/hQ9dBmVKyPp7Il9womR0lpDFEYgFlPbwK7cI/ruD0htm2R6crcgvgaqYxFDEAPaQxXH0AMXUUOX0QMT6P4x5x/melDpPKQzbkaHn3LkVYqYwfve+oxcY6WRdg279DVm7gqq3I8u9Tv/spu2r7szP8IWdukeZvpzpLq+K+WXoAugFKQyqGzJbTuLfahiP7o04PzC4jCqNIgq9qPyZVQmB94+Ep4JS3gYKKcf22pi57/F9F9ED1wkSmXwUulnzluerE9pDba6gZn7GjvzhfMtE3QPlELle9HDV9Dn3kYPXUIPnkP3jTsC6k4UUX3voSv6I7sOygk8rzxELd7Gjl4nypVRWqNU6pmK1k+OlAKYALt0FzP/FXbjPug8yZ21WyCgNbpvDP/qz/Bu/KWzlH7akVEnQbijwZ0raaxjl25jZi6ghy8ReSlEIJU+fv7yRPaVURQRtZtIdRNz59+wqw8A/9UsuXppodxNs7qKWXuA1LfcTsbzE0IeG7G+z/YK5uHnmOUHSLPKsy78EyGlmM629RvM/NdIdSMppetGiCBxEM6u3Eca2/tmeyY4FpSHNGvY1SnM1EdIZRWxFmMMxx1odzIRGBNiN2aJ7vwW2V6GKDyxt05wktDQqiPrDzFzX2G3l5EoOO2DevkhBqltYG7/Grv+EBu03UzV0ySlrW9hl+9gHv47EgaJlexmiCCtOubh58jaNLRqSenjM0PHhmkKu3DbqTI+Q2H+sUlprSUKQ6IwxCxPYRbvuJykeRW7BF4hKAUmQnYWMYu3MasPEBMmxHwmKFdCGkWYuT9h5r5ErDn2OT0+KY0hCtqE9R2ixW/d7MjQJhe36xEHdcImsrWA3VyMByg963WL27fO7PVXQAq7eh8z/ydsZQMbHm8L+0zbVwlb2I057OptZGfWVYckIdfuh9aodBq8E5pe3OmltJFbA3JGd0tKIc0d7NoDzMOvCGvbGHP0XP3xnT9rkGYFM/slsrEC7TApOO9axEXmnofK96EHzqMvvot3/l306DWXq3xGckrQQDYXXEVQrgT+yfcZdj1EwAhS2cDOfIpMXMXkyyBu9uVhcWxSStRGqmvI4m33GIUkhOxGGGcZU0VU7wh65CreubfR599FD0yi8mWnSn9sUorbCm/OE337b/iv/zkqkz/Rv+ClggDNKnb1PnZjHpV3pYxOM/Zw5/hYpBQRpFVDthexa518lyFJg3QTYjfC06hcCd13wVnHi+/hTbyJKva7vkf1LCV08r3SyuhP/+A6SoYunenbs4Qt7M4ydvkeumcECj1Hev0xSClODKuyil2bQjYXkKBFYiW7CXHATYEeuIA+9w7epZ+iJ66je0ZQmeIeIZ/pYyzSamDnvsTc/Q12exGCxtn1KWEvul3fwi7dwg6fR4YuAIffPRyJlNZaN76uVcduL2PXZ5FGJekE6RaIACH4WVRxED3xOt7kTfT4DfTQFVfrms6ezBAlsRC0sPO3MNOfYZfvut1SEudz1yEMsFtL2M0lNwWgUD70eT8SKUUsJgyR+jayMY9dm3UVIXLMYSoJThwqW0L1T6In3sS/+nP0yGuonpE9RYAnWsd9EpFP7I8UR8jtZcyDT5zky87avuefdmqk0y96ip9vLbKzgmzOYSvL2IExtDrcnMujbV+F2IdYx6xOI+szgJcQ8jShFPtXnx69gXfjl3ivf4DXOwbp/L6WrCdhf55RQPTuINhHnyrY2iZm9hbR1MfY9VmIoliguPM+p7mF3f93nAYzY9mQnWVX5bM1Qzj2Oqm8d6hxekckpUXCNrI5i+zMI+2d+C0SVr5YxAst9htJ+ej+c/iv/RLv0nuo4Uuo0iCksofTy4lJJK0qUl1HtlZQfWPOwmYLjzxXapvYhW8wd3+NbD6EsMFuK5OJIGwhp7km4knOBC1XWXNqxwFSq2DXF7G1TSKtkUwO339yeuTQpLTWYqMQggZ27SFSWY3FsJ750BMcB0pBKo0q9KFHr+BdeAf/8geowXOoXHEvZ/yk7VJnDHnQQqqr2OV7TuxsexHv0k/wLryLGr4Up0xwBQImxK5NY2a/wMx9hbSq7udKgwhm+jOkWUF5p5inFBAx0Kph1xdBZXnxC1UBHlKvYDfmkeo6NlNApzJPfeWhSWlMhAlbSKuCXZlCqlvJCLvTguc5C1Yewhu7gX/9l3gXf4QqDRzCbwTn8whEbWyz4saKz32Fuf8RdvZPbgdkAlS2EPujeVzRdYCtb2Pm/oSd/RLZWgS9L3AkYL79N8zdP3aBol1s/YOWa7Y/jW2s8pBmBbsx6wZalYdBnp4eOfz2VZxKnVTXsOv3kNrakV7+/ZPSTSG6fQu4qyUvYh9Ne+jeQfTEW3iXf4F3+T0ncJXOHb5ZWQSJ2tjNBezCt5ipjzDTf0Cqm2AAibDLdzE9o6jhK+iBcyg/7foG577B3P8Es/IQ1A+EokSQdgOC5uGO47njlANOSkFQg8oisjWLDF9C7PBTX/ZUVokIJorcsNf6DmbpvuuutvYIWRDlFoznxZNwu+GC/QBiERvFTb/dgs6CsvFWtR89eBnv/E30xE30yDV0z7AraXuaZYoDHxI0XaPz6n3s3C3Mwm3syj1HyCiKrZ6Hrayjlu5h52+jcmXQKezyXaI//QN2bQqC1mM+s0OEbrjGXXAcAhK0MMsP0RPvwGD01JccjpQmQoxxDv7cLQjaR9ieiFNQy/c4zdBU7pDRwBcIsRC2sVuLToGvKxAPy1FxmqNvHD16Fe/Ce46Q/ROobOlwFTkiu7XKdnMOu/gdZu4L7OJdZGvR3WSVt68PVkO7id2Ywzz8DD1wDhu2MFMfYqY/itXuH2eBuoGMHXTBsSiNhAF2+a4rRw1bWFuIFe8OPr5D7z9FjHNWZ75Agk4j82G2ShaVK6In3sB77afo4lCXFSvHC7axRfSnf8ZU1+Kfn/YdVkBZ8D30yGt4V36Gd/nH6LEbzsc71LyOOFdnIiRsYpfuEt37I+b+H7AbD93N1XJwU7oopLqOefBH9Og1ZHOW6M6/xTctP7aoXbDoux7a3fBXv8NWV7DtBmFYJpVKo/WzkrK+jd2ex9bmcJOGjmIp06jyIN7IVXTfuAvVdw3ELdrKCmbqYzo5plNdbxKBBj18Be/qB3gX3kUPXkCVhn8gBfnEN3Fb8SjAbswR3f0D9uHH2LWH2Oo2hFGci3yMxVOxtml9h+iL/xfajX3BvS51QboVIhC2kcoqtraBKg8RhQGen8I7YDjQ4Ugpguys7unv6CNYOgVKe6hUFpUro/K9kM4d/vXPHS7ML2ET5T89XP18ETq18twQ+sKbrnj8/I/Q/RNujEDHd3xamiO+0djqJnb+a8zDz7Azn2O35pFW3QVzdvGU9woD7NpDR3BjSQh5TAjI1gqytQKj17Ao9GNcgMPnKTcXsZtLx8/5dNS1tX6u8+KPBWtj34zTWW8KR0bfd/Wp4z8i9f7f4Z17yw0m1YdprYoDLCZywZzqOmb+G6I//Qoz/Qm0d4DUvvrLQ/6hAgTh94WZExwRClQKu7GA3ZgHY54YkzmkpbTIxkPs+jRJ4fkJQuweIbMFvHPvoK99gH/tF250QCp7SEIS+44GaexgF24T3fk90Z1/QmoViCzo3PEzUV2dKnoZoEB52M0Z7MY0YsJ4hucxLKU1hihsY5tV7PZDpLqYqAucGCz4Pirfg+6fwLvwI/Tk2+ixa6je0fiiHSKyGvuN0tzBbi9iZ750YyMWvkMqO+6unNxITx9KQbADtSVkZwXVPwFysLv0ZFJai2m3sJU1pLbhEqFH6AtL8EPEW0ytUJmCm/M4chlv8k30hfddkj5XPmRkFReIaVZc4fPaNHbha8zDL/da6jqTsRJ0AZSLXTS2nSJBaQgeE1p5ytV3USO7NgetNpCiKxKyLysEUMYFvQbO4V35Gf6ln6DPveV0bQ49ljxuDQpa2I0Z1884/Qlm5nOkVXMBGZ3qrsKpsw4BVApptrCrM3iTbzz2qU9eBRLrr6xNu6id8khGpB8H1vmPfgY9dBnv3Jvo8+/jjV1F9Y7tBXOehri1SqI2srHgNEYffuRGEGytIO22S3Mks0G6EALEIw5W7iHhXz32mU8hpUWCBnbjAdKukWyFjgEJwU+jisPosdcdISdvOiWAQq8L5hyq+dilJ6S+jVm85Tr+525jN+67zvagM34gmSHZtVDKNXSs34F2FWtCjNaP5CqfTEprXI/d1gy0a7iLneyJDg2F8x17R9ATb+Ff/QA9/rqzjuncIaOqccVRu4bsrGIW72Du/Bq78C2ys4FErfiJiXXsfigIa8jOQ6S5gwlaoL2jkVKCFlLfQppr+y5+gqcjrgjyffSF9/GufYB39afo4qAbVe6nDplmkL3dyvy3RHd/h7n9z0i9ggSha7+iy+qI9zdgnza+d4675IZlIwjrSH0b2k04QI7zyZYybLti5cgmBvIw6AxATqdRvcN4V/4C79L76NGrqJ5h1/irnyKf0lnMYlwRQGXdFYI/+Ai78A22sunSHLLvA7sC8RZbBaAMPKau88VB4Wakes7P7hp4ID52Zx3drEGp/5FnPMVSNt1d2ZymCFG3o5PmwNX4lkbQQ+fxJm/gvfZLV7OaLx+u+VjiqGrUhvoGdu2hm/n54EMXHKhtxrWn0F2EjKEUevINdHngCJHk5wQRJIywq7OuGfsEh5YfH66IQCSFVNaRZuXAHcXjjzRuWJXaVmwpE1Y+FgpUKo3q6Udf/gX+67/Eu/SjuCLnELIcsM93bGCrG9iFrzB3fo+5/TskiP15nenO69Ap4Pc8Uu/9L3hXfwGnWkcsYJzAW/Tv/zvRxgPQxVM8nv3QgHZyOs0KdJT39t1kH0vKMIowzQpS34Qw9l+6cUGcGgSUuJxjzzB67Lprr5p40wVyDl0iF6c5ghays4JdmcLMfIGZ+RhZn0XCFrt+44md/+eUa1YK0nlUvtf5zqcGQUyEthGkfGI5BbpjdxEr3dXWkVbFpcp+cGiPJaUYg23XoLmJmIAzrXq9HxI3H6czqGIfeuiKEzyeuIkevY4q9aP87OGaj4nTHM0dzPJ95zMufotZuodUllwg4LB9q4c7+HgRxCPVlT5xLR2lPfBSp9wzKyilEM9HacWzDHB9LrCC1NdiLaRH1fYeIaWIIDaWxgjqSGsbbEj33GlOE67xWGWKqL4x9NhVvAvv451/GzVw4WhpDhEkqCM7q9jVKcyDjzHzXzulwMYOSvn7/McTgvac8oOfcsXrUQC7A2NPOL95mkXsnSBY1y5Xi7Q3kXbFGbwf4FFSWksQBEgYIGEDCauxHL2c7W6BjhKAZ9Dn3sS78nOnsdo/icqVXC/mUfKOUYBdvk/04BPMvd8j6w+RZg0igzpKv+rhDt7dT7JF9MgV9MBFpFHBrHyHbM9D2HY3gF01geQG/FwhQNRyRi9o8VSfUsBtb4ImErRdkOes4Ydr0rbBz6D6L+Lf+ABv4h308BVU77DznbxDDMvZ13wslTWi+x9hpj/CLt9BtteQoBlPLoMTJ4QAWDcSr3cM78pPXatYZQW7OYuszWJXH2BjgW2l0jFJ4yBVEks4eYhCogii9iO/eoxPKS7AELbi4T1nCLL/G6fYp8pjLpBz/kf4V3/uAjm5cqwid1jrGLlex5Up7OxXRA8+xa7FaY6oIz/yvKzTXtpGZQpu1sjAJDq65pTttpawq1PY9QdOCrG6ja1vugla1sayIUn53klCLBAESEvp8RMAACAASURBVLt5mEBPp86y7YSVzBmbpKQAxI2K0xqVz+G99nNS7/0d3sX3nPXYTXM85b06MzWiNtKqYRa+I/ryHzDf/KurkOpsF1/kWlfKjVXP5sEro8qD6LFryOsfIJV17MoDzIPPYP5TZOMhtOqIYZ+1TCznsyPOR7db0GrwQ4I9Pvrajrev9gz6kp5GlQbwJm46Bb7z76L7JuKE+CGjqta6uRrNipP5f/Ap0b1/Q9bnEBMCuuMrPPc/Z/eYdhFbPaV3XUilPVTPECpXwhu9gq38Ers2g134Drv4DVJZcnXQES7wJ53c9RlbGycChUJDFLoCHb5/Fg8mpQhEgetoN4YzU4jup1DlAXTfKPrcu06eY/wGqjSISmUOnz6IIqRVxW7FCuRzX2Pnv8Fuzbrdxwtvf4v9WTmAmJ1vUa6bxUtBtogu9KJ6xtDDl5FL7yJbC05RfXMZqS4jjS2nhh62QCL3N0m31eF2KWLPiCiAsPnIzuNRUgoxKdsuZN6JvL7KUKC0j+oZxTv/NvrcTbyLP0EPXETl49kPhy0gDwM3xXdjPu53/BS7dMfppSoPvFOodBEBjKuyeeIE584uQFDpvEvx9I7A5E0nxL2x4AJCm9PYrQU3f7G2Bq0aEgZ76+Ss7ayOis6UszBAwqMEeqJ2HOgJn/MRdgGUhnQB7+KP8cbfQE/ccENWvUMGcjqw4vodF25jpj/DzH6F1NbBWlRx8Pkd/9MQR35Vrg/SBecTP+nP2v2b40dPo0qDeIU+vInX3VCg7UVH0I37Tn5kYxHZXoybtRNSPg0STzAjCjicTyk4fVcT7put8QqfaK13c3iIPYKs4364Eytao7Il9OBFVLHfRa87FTSnCnFFD8OX0IW+o1fyaOWqi7SH9vqQTM71iTbfQCpryNYSsjXvCvC7bSxFV8JF5F1hzvfxeEtpw30L6lWHcv6k//QxZU97G7flG8Xr9Mmd+ki4ffB8N38kWzzGcXV0cRXoNMpPo3IlpDQEPePI4CWob6J6xrpvVkzXQXaLSLCPphwPTokgIIY4Fn5m4jzPBrdoVSbvZn3I2AuOrh4CCg41TPYIb6i0D7myE/7qHT9kzW8CYB/Hvo8ntm7tfiU4JPYtyMfN6Dh1nDBh9vufXpIiOTwez6/H+JTWlYPZCJFEdeB4OIuL8yz+zcdEPA/Vhm2ioI2f8VDxOI+DHQvpOKFnIB2SIMFpoNOYYEJMFGL3xW66KAqRIEECeBIpOw574rQnSPBC8ZhAj3Jh7URp+2joFKA/UtLWLYhvsid6XWNRNbHO3dEehxIJS/BYHEhKcfPZAI1ScalmN66xk8R+Eh17QQmELaRdh+DRmsZTh/YgU3DFEd5htWefgE5LWhhA0ECaO6jSkHt/leQqn46D18djSClYaxBrXDlQl62tk4d8X11Bax4pNTvMe4hgt1cwM19iF2654gul9hL1p3UeY10hlSujJ97Au/AjVM/wMYizfy3EnTCNKnZ9Brt4B7v4Nakf/8+oyZtJAcFhsLuz+j4eu31VHVGls7ANsdbNd1yZQtoNvHNvurv9YZuYgc7WUOXK6L4xpLKCmfkCqa5A0HIlaqd2c3MXX5UHIFNAj76OOqoVF1dQIta6drTtJWR1GrN2D9laRHbcuETvxl+hz0QV2LMjrkh2Qvf78NgyO2st1lpE5NX3KsUi7QZm9ktHzOY23tiNeCJW4fA3J6UgX0YPX3Zv265hwgZS20AaVfas7otuFHaEUjZAN3dcP+cTP79jEfcS3NKuu+6X7WVkcwa79gC7NIXdnIJmFTEW0G5K21lYMycChY1Juf9yHKBmB9YKQeCSmjqK8JSgXuXTLDgrsD5N9M2vMHOfknrv7/GufoAeuYTy03sBjCdCofwUlIfw8j2okSuo27/BfPtrzIM/wn6l+RdZpN6RlRTz5NxzR0co3ppiI9eobULs+ixm5iuiW/+KXfkKaWyjVHZvDqbS4PtJFdgR0DnbP8Rjy+yMxKIDz++YuhAeGEF2Ngg//6/Ylft4l//MSUj2jbli7qdq1XTanVLoXA+pa/8Br3cMM/4G0dRvkY15pNGIax6P2onynCE27oavI/VNZGsRs/IAO/81dmsmFhAOIQTllUjS3MeHFcFEBh0aUofbvrq9rvs6Q1DKdYSbENmYxwQNpL6O7Cyjz72FN3wZVRqMm4WfQKjOWHM/jeoZQWfyqHwfqlDEzH6NWb7vZOuDVqxg9yIW9w+PVXbTGBKF0K4jjW2kto7direom3PYjQWn1N7R/9W5+L189pn9F3D8rw46FtLIvs7IfXhM9BW310Wj0XSdwvTzhFK4KU3KTbyqrWM3l/G2FpGLP8KbfBNVHnZWM/UErdfdwnQPletBjRfc5K3+C6gHH2MWvkU259zA16jTvvPitrMSBS5t06oi9W3s1hKyNYvdeIhdm8duziC1jbgJ14t7KfeLQydEfBZIzC/Fow3nB5JSKYUoD4uHlTNY1dPZoirPGZTtJaLqhhsrcOXHeJd/jh5/A90/dri0QkdBrtiPd+Vn6OGreLO3iB78Hjv3FXZtLraYnfzw84TreJfKhrOGq/ex61PYtQUnL1lbQ4za45xKcdacmOeNjqW0aLRyX2ofxx4hpYobWQ0eEfrVDvA8FfHfbgVsy6UB7v0RqW6iNx7iTd5EjVxF5XtcMGj/aw56L+2h0jmnGnfxHSgUsQMXMHO3sEvfOg3YMGCPmCd07uObjARt7Mp9olv/BEoh20tO1qO2Bq0WEjQg2ndzSLRenxusKIxoRKVIp9NovXczPthSEpNSNJ6oMz+xYHdxhgGyOY9p1bGVFSd/Ud3AG78BfWN7k6bU7j8HvBfO1+wdwcsV0OVhVO84ptSDXbjjAkHNLdykrZNMwLvjt2sPkVo8tKlZc9VHURBHlnVsGZO+yOcNKxCi8ZWH5/tPtpTEwZ0QRYTmhEfMvORw/qbUtpHGNnZ9Cr08hbz1t3iv/Qxv4LwrX9sVpjpoYXcK/XG+ZqaA6h1DD13A9H2EufNbzOxHYE+yCij+zChy29bKWly91CHiD5dBQsjnDYsiFI09QJbz4OirUliVwugUNimX+gHUHuGCCFmdIvzw/8DOfo69+Z/wLr6LLg0cXnhLeah0Hj1wAZUto8dfx5v+CdGtf8SuTgP+ydWR7h7P/hHvryoB5fGJwG6AEqz2UfpRs/f4MrtUJk6a+3HwNdnS7CEOhFhXCUSrimnVkFYF2ZhBn3sbb+Qy5HucuPGTujJU7Gtmi87fzPeiC4OQK2CmP8Mu3UPq6y5CeyIizs/xGu6r/CFqPb/POcRxYCKkvhXrqnbfuhU0on3EOyQplQIvJqVVumtvNqcOAUdQD6luYu78Grs2j7c5D9d+gR69CsUBV6qn/cdXBHV8Vk+jcmVUtkiqdwQ99BrRrX/BLn6FVDeQVstJf3bbDbJzKCLYlQeQyu4LfJ0G4q7++jZS2eBJUlQvGrta5+KG2mr/0ej2Y7evXiqNeB6BNVhxGZUzHex5EpQClQZSyM4y5pt/xi7fxr/xH/EuvYcevoTK98baqU85iXFXicqV3WsHzmGmPsJMfYiZv4XsrMSlbOrxJH/h2ItSh5//f6iv/vF0D2d3JIM4S+kVTmiXcTKwAs0owno+XjZ3uDwlKLxMFvw0oYAV63oslddN9+cuQ7wQJJ6mtDFP9M1/w27P403exJt4ww2YzRTjeZZPIpRrH1PpHPSMunmSxX7UwAXs/BfYtTmkvh2P5u6yKxIPrDnd+tfY7+/sQLqIkB20jUH8NKlcgadbyvhO7WeyiJ8hEA9jBV8r1+6TmMunQMe+VQNZdR0nsrPkSvUm33LDZntGUKnsU85lJ6+ZRQ1MorIlVHkY2zuEmf0auzzlWqbaVefzd43VZG9bf+rH8L1vugKdGGErgrSXwc/mD1/R46eziJ+lbVNERpFSSfnx4REHgiKDbC5gqqvYtQd467N4V3+Bd/nHUB6JA2lPkeZwDr4bzZfvQQ9eQg9ecaP17n8Iq98iwf5WrNO+aarTP4Quh6BoBD6ezuJnco8U6DzWp0xls+DnaJsUgYGM1113nJcCSrkcoAWpbWOmv8DuzGMXvsC7+td4EzdQPUMu5XEYX9PzUdmCG89X6EePXMFMf4x5+CV27aEb1a19kttnN0MhVtEIfQpejnQ298gzHht99bM5dDaP8dK0WkLOV5xmPO3lhY7DbZGLBoZxs3C1gl2fdqP3xq47/3E3t/mU9Emu7FJW+R4o9KF6xrGzX2LmvkKa1ViGpHsijgn2EFmhGUEQ+Sg/j58rPHJDPqD2VeF5HulsjlS+AJkszSqUE0P5DIhPulhot5FgFbOzimzOIzvLeGELPXgJVehDpbNP1rfpyH6mc6hUFi9fRveOYfsnIZ3FLt7GVtchCLrNnTrzECC0Qj20WJ1Dp7P46ewjz3uElFpr0ukMIkKmUEYXemmtehiR79XnJXgGiAIDduUesrOAmfuC1Pt/j3fxfRiYQKUzHGoLqhQqlUX1T6CK/ejJm4R/+ie48xvs/C0Xe+/CyOOZhThL2TCCX0qRzvt43qPX57F7HKUUqVyRdGmAWmgIrSAkKZGTgexGKKXdRNZmCD/9v7Gr9/AuvoeeuIkuDkA6x1P1gZQC7e8OuU3d/Gu8vgnMw88xMx9hdzag3Wmmdp+Z4MVDiMuPjaUeQGb8POmeQZR+lFNPdDxSuQKp0gDV0KMVRViBA4id4NjQrvW83cQu3oHmDlJZwdtZQyZuoAfOoQr94KeekPLo5OQ8VEqjhi66QvfSMKrci5m/jV2dRWqrrqnZWnbH4R0a3RLZfbkhAu3QUGlAsX+MdLH/QFfliaT0swVS5QHqJkszahBZOdDcHu6I3D8iguo2CUKxLrd4KgnvTjeIYDdmsTtL2JUZvKs/xbv8Y/T4G6hCv9vSPm10eacaqDyAV+hFj15BD35MNPUhdu5LZGsBaTf3lOoOS7KOpZYuK+97mSBOl6fZMlRqloHeITLFsnMJD1fR45DK5siV+9AqSyts0gotGe+IHQsSC5GYCIkCVNB04/W6BZ3i5aART64+rYUXl+pZhd1eRL75F+zaFN7Fd/HO/9iV6pUGnCTH04oOYLfI3bvyE1TfOHb0OubhR040eXs5rqF9msV0ymmqdyzW8On0eSbEPA7akaXetjQDj1zfCOli+cBo+1NImSVX7iGVy9AMhVpg6ckekZRKI+0GdvUB5s5vsPleV2bWLRDi4uUtZGOO011wnaKDAKluYqO2qwjaWkFPvomeuIEees1FaHdvjk9In3gp13XiZ+KKoH5M/wXU/C3s8l2nRWvMY7bG4vKi+V68Kz9H6pvYxW+wO0soOYzcZoLvQUG1HVFtR4hKk+8bIlMoHajs8eTtazpDptRDtq+X5uoK1VYbyukjehge0m5iV6egvnlE1fEXBBEkbCGV9dM+khgqHgmw49rBKpvonWW8yiq0W+jBC6hiX3wu4+cf+DZxvXK24NrCin2o8iimPAzZArIyjd1ZgXYN12O5j2hiUdkieuwa3tVfIM0KeD5S33RETtItR4ICqq2QuoFUqUSud4B0roA+YOf5RFIqzyddKFOauMLq+gzbzR2MzaMP2Ac/8XDiO7+pbXUfIYH9SuBdg04wxoJUtzDNz7Br9zHzt/Df+59clLY8/BSVg9032y060GPXUX3jeOffJvr293Dnv2Nn/wiqAOwPKLkxB971D/Amb4CfRhd6XX9nZcVVDz3xdJ32uey+dVZpBbT8HMVzF8iUe8hkc6RSh25ydlBK4Wfz9J6/ysa9z6hXF9lsBPRkU6S8R6XxDsZ+Cfz4Bd13vrqLkLvYd6KMIPUqduE2YX0DO/81/o2/QY9fR2XzeyR+YvpEo/w0KteD+BlSb+fwhi9ipm8SffsbpLoGuNSJHjyPd+FHeOfecsJgXgpGrpD+2d8TfvZfsEt3OVBMWgynT8gO9s3DOcXrawQCY2mHgso6I+ens4/lwZOdO6VIZXP0nX+NVK6XZltYrwcU0j7pY7mF8r2HBEeA4Er1wh2ksYm0qkhzB3/rJ+jRa6i+cVS2HLeFPZmY+GmU56PSeVdFVB6GTBE7fwu7OQdBFT12HX3uHXT/eVcCqDSqPIT32s+wq/ecr7u9gltCnc9TqN5xlzM9VRkZ2Q0wSn0Taeyc4rGAsUK1HdFsC35vHwOXXieVfbQQvYMnW0oUfiZH3+RFMvketgLFRj1gvCebFBKcCjqWUCHrDwk372PnvsW/8Uu8qz9HDb+GypUO332iPVSxz5XqDV0gmvoIc+d3yM48+vw7bshRvid+L1CpHPRNoK/8DK+xTVTfcIa1E7FWCu/8u+ihK3Fh/ClCLNKqYR5+hDROV30gspatRkizJRQK/QxfuYF/QCF6B0+1lJ6fotA3SLanH0ln2WnWaIWWQlrw9NlWhT1V6AyKNHZrjvDrX2HWHuBf/XP05E10/wQqV3pKgXsnLqBAK1S+F//yn6EHLiDVNXT/JKpndJeQ7jM1Kp3FG38D6lvY6gZ25T60m/Hvwbv8Ht7V/4BKnWL7ggA2wlbXkOo0dq4Ousxp+E1WIIgs6/WAlmj6Sj30jZ/DT2Ue+5onklJrjZ9KgQjF8QvkRiZpzX/DTjOkkPYoZLootXGmoNgtOogipLKODQOiRnVXJFqPXkf1TcTdJ4dsCyv0oTN56B2DdNY1Yv/wecpDlYfRk2/hN3aI2nXs5jyEbcBDZfKoYu+eBu6pwOWelY3im8Pp5cUjY2kEhno7ItU/Qn5kglS+iPK84/mUWrvxZlEUUZ68RHniMovTX7PdDOnJpSik/e4M2pwJ7PlxGIPUNjH1bWxt1akc1DbxJt9yVjPfe7hUlOejPB8yhSd/ciaPHjwP0Z/FPmgTu7O87/3V6fqUIqBsrIl0eoehcAUD1VZEsxVROD9JaeKCa7t7wrU4lKlTCnonLtIzfomZSLHVDBkKI0TSSedIV6CjRQOyPkdUXUev3scu38W//hd4595GlQdjRb0TuF6didWjr+Ff/QVRaxtpbiCRJYnifR/NMGKrEVBvRIyOXaJv8hJad8aBHCPQswdFoX+Y0sg4Xj5HO4qotiLqoaGUWMvugvIgDLFbK0jwCbI9j134Cn31r/DGrqLy+3yrZyGo0k5E+tw76Oo6tl5BFr9LOLkPobXUA0O1FRGGQqF/lOLAKMrz8VMpvMeUrB7aKUznixSHJ+i5+DqtxbvsNEMqrZBi2ntsaDfBaUDF0YUWYlaxrW2kvomuVZCt950ESf+k8xcPq+J+4McoV1DQM4J34T2kWUU25t3YhmT3hBVohNalQqwm0z9CfnCUbLkP3/fxPO+xu8zDkVIptJ8iPzjGyM2f8mBtgUpjg+1myHAx45TukuvQPVD7trPtNrI6g12fxa7cR67/Od71v3C+ZqawN/vkuJ+TyuCNX3fRzrmvIVvirG+dXIpUqLUiKs2IUGXovXiD/OAoqXz+wCqe/Ti0T6m1IlfuY/DS68z8LkczsFRaEbUgopj28bVOiNlt6FSxiKtosYu3ieob2NX7+G/9j+iJ66jyEIr0sxHTT6NHrpD+m//NpVHOOAQhtJadZkC1GWH9HgYvv0G+bwjvEMrxTyWlUgrfTxEB6UKJnomLZPv7qFUXqbZCqq2IjOfhJ00D3Y24G8ZW1pGZr5BGFe/qz/Eu/QQ98TpKPcO2U2tXvD561XWmHDAf4yzBWKEZGjabIc1IkSqV6Zu8Qrbch/afbgcPRUrP80CEdDZPYWCUnolLtDYWaNTX2W6GFDM+mZROany6Gi7HiDFIZQ1TXXWBmt4JGL/Gs80nifOc2XL837O9DsK4rG67HhD5RfoGx+gZP0+mUPrecNjH4dD2zfN90pksmUIPQ1ffJzd4kWYgrDcCGqHB2CTs9tLgex0x6oQCdXEJ4BknpIgQRIbtRkC1GeCV+ui7dJXCyCipXO5Q5+dIm06lNX42S+/ERYpD40gqz2Y9YKsR0AhMdzZaJPg+xICnUP0T6PNvosdeizWAzjaZTgIiYESotQ1LlTahseR6+uiZuEC+fwgvnT1UXv+IpFR4qRSlkQl6xi+S7R2m2Ra26iHVVogVSYjZ7dAeKlvGm3zTdZeUh55QH5vgqKi3DZuNgJ1WhM4WKQ5NUB47TzpfJJVOow9R6XS08EwnNTIwTM/kZUojF7BGsdUI2WqGhMY6Yh73L0rwnCHgZ1E9Y3gX30cPnI9rVBNCnggUbDVD1moBrUjI9gxTGrtAcWQSP5XF9x9fMLAfR4yZKrTWZHv66Bk9T8/YeZT2qbYiNhoh1XaESUxl90IiVKGEHr+6q5LnrGRyzZ4VbrC3sFZrs14L0CpFvm+c8sgFioPjZLLZA6U/DsKRSKm1JpVK4/tp8oMj9F18ndL4RVQmT7UVsVhpERpJ7rvdCj+H6p1Aj1xHFQdc4cBu0Cch5rMgMpblSovNekAgilSxTO+l65QnLpIpllBHyAMfqfdKKYXn+4gIhb4h+i68Ru+5K0TNCo3aGks7LUZLWdKeJpWoNncXhN26WNlZw85/gyoOoHJlyBbcCHgv7XxOHYto/VCdPQkGHQgrQiM0zG03qbZD8LLkeoYYvPIG5dFzB84LeRKO1RDpp1Lke3rpGZ2kf+I1KgvTbO+ssV5rs1Zvk01pyjqVXMNuggKilpOJXL2PufN71OBF9OB59MAEemACle+DdMGNS0hlnGyIjqdOa43TvEku6n4IEBih0opY2GnRCIV0oUChb4LBy29QHBw9kpWEZ9BIUJ5HutRL//V3WJ/5jvrmElFzm7mtJrmURz7lOXGtBF2Ejq5siN1egNoKZv5TN+4gXUaVxlC9k6jeYXR5AFUcRBUGXFFAroTKFJ3mbELMXYgIm42Ame0GrcgiosmU++m/+ibFoVGyxRKpVOpILY7Hlw5QmlS+yOCVG6xMvsbO4jTV5g7brYi1WptSxmewkHlq03uCU4CIk4gMG4gYBINS67C1jlqfQ+UK2FzBiWoVRqA4gC72OUWBfA8qU4Z0wRW0Z3KurK4zUmFXfvTVv/Ai0AhcCmSjFmBE8NIFSiMXGH/7JxT7hkilM4eq4tmP41tKpUhn8/RNXmTg8g22Zu5QW31IEEVs1AOKaX9XijIhZjfC+Yxq/3DZoIG0a8hmBCpOn2R7Id+LKpRc5DbfhyqOokojqNIgqtTn1NczBRdIyua7U3D7hCHialy3miGbjYB6O0KskOsbof/SDUZff5dsqXxkQsIzkLLTE5bJZhl5/W225+6y8s3HGNuk0jKsVNuMlLL05HzSyTa2i6G+/73SLiAEYEDq21DfRNYtKMFoH5UbcFY0X4RcHl0aQfWcQw1cxj93wxUkvOLXXERoGcN6vcVOMyQyYNswcPkmo2++T66nH+0frzD/mZSvVFzrWB6ZpP/STXrOv05l8TZRUKfSDpnfaaB1nt5sCi8xly8R9l+rWEw7nqeJsYhUkHYTVfHA97CpWVTuHqrwFTpfxCv2u3TLK4yWsazXAtZrIfW2QdD4xRJD199h6LU30b5/bKmcE5GjyxTL9F+8xsSPPqC5MU+zWacVWpYrbcqZFFlfO5GtBC8hYuu5P6VtTDypDLfNpYp4a6jULFL7z4i1r7RHGRrXBbJSbVNpRQShxc+UGLj+HkNXblIeGsf3jxbc2Y8T2WN4vk/f5EWufPC35ErDKHwiK+w0I9brAdV2Uqz+ckP94GvfzyQefBsF8TjB0M37fEUhAo3QsFkPWK62aEYWKx650ghX/+rv6L9wjVQ2Syp9fFG5k9n4K00qV6Bn/ALnfvE39Jx7DRu5Fpa1WpuVaotaECXtXa86XvHWLRGndr5eb7NUaVFthpjIkB8YZujmjxi/+WPy/QPPHHg+GUvpeaTisXnnf/wBg6/dxM8WsFaotsKYmG1akStYT5DgZYPgCFmJ1/NmI8AIKJ2hd/Iq4+/+nOLQaFy982ysPDFSep6Hn0ozcvVNRq6/S2n0Ikp5tCM3R2Fxp0mlFRKYhJQJXi4IexIfy1VXcF5vG0CTLQ8ycOkNRm+8R6ZQxPNTblTkM+Dkoi9KoZTGz5cZev19JlaW2F6YQaI69XbEghVKGZ+Mp8l46Vd5l5PgFYPCzQPZbIRMbzTYaYaICForBq7cYOjaW/SMniOb///bO5PnuI47z3/y7a/2QmEnQICbFooiJWq3LLVsOWz3HLr7Msf5E+c2l7k4YqLt7lZ3yw6GJEuUbIobSOyo/a2ZOYd8BYAURZEiSABkfSJIPGIpVuHlt36Zv7Vi4pJPuLgPLJhkWRau52E7LtXZBWZeeZOpc5fwyw3Qgkwq7nRi1vsJw0we1H87ZsxTJ1eajUHCta0BvSQnlwrHDalMLzH72jvGuVMqI6yDOVMfmKUcVZAorSnVJ2gunWX+4vvkUY88jZHZkHaUcbcb4zkWi40Q2xpn+4w52oxyW1e7MRv9hFQqECa/tXXuElMvX6I6u1C0jjyYxXzgwUPXddFhierUPCfe/JDe2i3i7iaDrSGZ0qz2YjSaeuhS9R1c23quY1pjjicaU5KVScWtdsTdbkKUSUDgeAGV6QVOXPoFE0uvENRbj10J8jCeSi6UsCy8SpXps+eZffUi9bkFE7vSmkxqtoYZX97t0o1zU2P7NJ7EmDE/k9F6jFLJ91tD1noJg9QIUmBTqs/SWr7A/OvvEjYmcD0f7wnikvfzVNJsbNvBD0t4nsfMq5fpr9+hc3eFuLuJlClJptjop6y0IwQwUfJMDe7YZB5vipHmqBydZ4f5REwSg8zRPzORYZDkrPYSbmwP6cY5udIIYeO4FVpnLzF38T1qhXPHeYKUugfxVERpWRaW5YHrMbH0Cv3zG7RXbrP2zWckvS2kyokyyUo3xrYFgWsRODYW45kkx5LRPdOguhuIjevgPF61/YGjcnR/Gx0NgUeflak0pFKyMUi504nYHJiSLK3Bdj2q0yeZgDb+ywAAFalJREFUvfAu0+cv45erP6s066d46gmpQa3B5MsXiaM+g5075MmALOohFWwPU2wh8GyLhXpA4I4neB1PinumNfK7z1Cbtw45Id30HdJpgtq4C1aZR3XCSKXZGWasdCJWe0lhIc3PukGJuTfeY/7i2zRPLD/Z1LKH8NRFKYRFeWKK+fNv0bnxNfmwx86NbxEOSAXdOON2O8KzLSbLHiXP2auTHXO80Bq1+g1sXSsS1Q/reYw+CnQyNKVoP/F0NCYW2YkzbrWHbA1SklwBAi0FYW2S6Zfe5Owv/5HJk2fxgxDgqQxNfuqitGyboFzFnj/JwuWPGW5vk3T7RJ1VtFBEmWJrkOI7ZmqXJQShd4ijucc8ETrqwFABRyEpvWgA9ghv8ZnUtOOMO92YtV5CP8mRUoMSOEGV1unXWXr/d0yeuUBQm3ik/q0/l6cuSqeYMuTYNnMX3mO43SFqd7nzlz+gdIxSimEquduNsS2BYwlcx8cR49F6x5OiC94xQqPppcaxc3N7SDfOkApG3tbq1DLzb37MqY9+j1drIp6iIOEZiHKEEAI3LDF/6R2UzOhv3KK/fo0s7qERDFOT8SM1eK5No4hhjhnzNJFKE+eK61sDVjox3Tg3gtQay/Hxqy1OffxbFi7/grDRxLKf/my5Z7fqhcDzA6pTs8ycv8S5T/+FytwphOObs4jWDFLJejfm2/UeO1FGro7CFmjM80quNO0o45u1Lnc7Mb24KC8szp+l5iSn3v8NC298QGNhCcf1cV33wL2t9/NMLaXjOOgwpD67yKkPf0t/8zYy6dO983cApNT0Ek2yowgcC61LtMoetjX2yY45WKTSdGLjZb22NSDJNbnaGxEY1CaYPPMapz/8Ha3TLxPWmtiOg33AMckH8cx7dAjMNnZi8Qznf/3PWHnEV3f/jtYahEBpSHLFl3e7DDLFBbdO3bexxwfMMQeE1jDIFdd3Iq5vDYgyVUxuKEQpLCbPXmL5g//B7Osf4IZlHM/DdZ9NmOeZi9J2HJMn6GnqJ1/ixOVfM+z0WLnyR9JBB41EF4NMN7oJX9Hh9ESZZskldGzTMuZZP+kxzwUm7CHpxDnXt036XDSaqyqMU8fxSzSXz7P49qfMnn8bNyjh+cGuw/JZ8Owt5WhcOxDUW7TOXSKNE9LBgK3rXxJ3NtEoNKbR7WonxhGCXAW0Sh6hZ2OJ8XZ2zOOhgTiT7AxT7nYT7nRiBqlJnwMQ2sIN69RmT3Hy3d8wd+E9avNLeEFYpNE9O/fLobaYczyP2uwCwraJuztImbOZXiGLe4BGalPtfWtnuDuQdkp4+I49PmeOeWRG1R7bw5Q7nZjb7Yh+IvfGNmqwvJDqzBJzr/+Cpfc/ZeLkGcJq/ZltWfdzuKJ0XCiV0K0ZTr7zD6jcdJne+Oa/UDpDI1EaolxxtxuT5oo0V8zWAkqeOWeOj5pjfozRMTHOFBv9hJvtIRv9lH6So/Zl/SAFtZlTnHjzY05/9HuaC6cIq7VnumXdz6GK0mxlHYJymfrcSRbe/BBh2ag8Y+fG16RRx2RIaVNGs6lTMqVJpWK2GjBRMv1QxqVfY+5ntCa6ccZaP+F2e0h7mBFlck+QCmw3pDQ1z8l3P2X5vV8xe+41vEoVxz24UqzH5dA7JFuWhXA909D51MsIx0FmpgdK+9ZVsqgDlkYWw1RSqVBKF13xNLXQxRl3MBizD1W0guwnktVezJ1OxFovIZd67w1cCRyvRGV6ibmLH3Ly3U+YeeUildbUYT514AiIcj9+uULr1EuEjQmwLK7/ETa+/m9wzRwLjclR3BykDDNJO854abpGI3BM7uxhv4AxRwKpFIMk59uNPmu9ZLevzl41iwBlUWotMv/mx7z+z/+L2swJglrjUJ/3iCMhSiEErueB1thFtsSZj36H4/kIy2Hz6p+RKkbY5n1Oas0wlaz3EqKszWIjZK4W0AxdinDnmBcME9YwHtaNfsKNHXN+jDJZNAEfdXQHW/g0Tr/Cyfd/w9J7v6I2t0BYruIcglPnQRwJUQL3pC45XkDjxBLy8i/QSoGGzsq3JIMtsEygNy+EmWRmO5vmiqwejMfvvYBoDZnSRJmZ73G3qPRIcnVPV36hLdygRnV6iaUPfsvi2x/ROv0qXljBcb2nnj73qBwZUe4iBJZtIYTPxNJZ3NB0Wr/5bzbb174gy7poFKAxWVG6sJiSJFcsNUNqgYtnWyZsMhbnc43SmlRq+nHOWj/m5k7E9jAlu6fptwAtcLwKtbkzzL/xS+NlXTyNX6mZZJYjtFCOnCgty8LzfLIsxfF8qlNznP3kH3F9HzcMWP3y38jzYZGWt+dl6yeS77eH9NOM+VrATDWgFrjY4xYjzx270QwNcS7Z7KesdGJutSOS/d7VAoFpT9NYfJXFd3/N6X/4PY0TJ00c0vPN9xyhRXLkRAl7yeu2bZtYpphj4fKHeGFAUC2xdvW/GWyvIbNs9+yutCbJTUOuNFf0Esls1acRupQ8G+eIbE3GPDlam+NKPzXe1Y2eme0RZfdNd9OmlYdfrjNx8nVOvvcp82+8z8TCMsEhhz0expEUJYBl2cVHTVCuMLF0Bi8M8Mshtu+x/u0Vuqu3yZMIUMZqak2UKnJpOhrEmWS64tMsuVR9F9+xsMaZQMcWpU0lxzDN6cQ52wPT3LsTZySZ/MEWVNgO5eYUreXzLFz+rRHkyTMEtfqBd6A7SI6sKEcIIXZTnWqzi5QnJvGrDbzqBDf+8//RX/keqVNG44aFEOQSulFGP5G0o4ypisdMNWC64hO69liYx5BRqlwvkdztmrjj9iAjHm1X7xGYQFg2brnO7Pl3Of3h71l45zd4pRpeGB5K6tzjcORFOcJxHGzLQns+M6++hRNWKU8tcvPf/8DWtS+IOusmZLLbdUugtKYb5+ZmxpJOlDNV8WiWXNOg67Bf1JhHIi9qHzd6Cev9hHaUMUglmTQuv70bKdBS45WqVOaWWXz7Exbf+ICZcxepTkxh2c6R8bA+jGMjSiGE6Y1i25Qbk4jTNo5fxivVKE9OsX71czp3vts7UxQ3Klemo0EqNYlU9JKMichjsuxRC83o99E2ZizSo8HoFuZSmanJw4ytQcrWIKUbZyS52q3u2P9DWmlKzTlapy8wd+l95i++T3PxNKWJKVz/kPvQPgbHRpT7sR2HsNrAXvYpTUxRaU0S1Gvc+I+U4fYmeRrvhk2gaLCbK7aluanbw4xOnDFfD5koeYSujWOJca3mEWA0C9I46zI2B6ayox1nxEVM+l45mjtmOS6uX2Xm1XdYfOdXLL71EZWpGdwgxHaO9nb1foTWx3e0spSSNInJoj7dO9e5c+Uzvv6//5udm9+Sp12w9to7jBCMdriaauAxWw9ZnijRKrk4RYhFjMMoz5RRNYcAFJp+KrndjlhpR2z0YkZtc+43jqYwWYBwCJszzL/5Mec++SdmX36DoNbEcmxc18W2j65T50EcS0s5wrIsPD9ACEFtbhnbC7G8MitX/sT61f9isHUbmaYmK2iU9sieTvtpzkp7SDdKmSh5TJQ9GqFLxTP1muNi6qeP1saJM8wkvThnO0rZ7Kf0kny3CFnffxe0+UsIi6A8xcSZC8xefI/Fy7+kceIUQa2B7To4jottW8dKkHDMRTnqYqBdD1GpYwcl7KBC0GgQNhqsX/2c3uoKcW8HmUf3WU1BLjU9mdGLMzpRTifOaFU8JkKPkmcTOtZeZtDYeh4YWpv85VyZ+tgok+xEGduDlK1hRnuYIvXoffSHgrQcDzcI8WsNps++w/ylD5m7+C5Tp17CctxiqrhZG8dNkHDMt6/7kVKSZakZtxcN6a7d5taf/8jK539i69qXDNu3i5KwvbPmfkZOW9+xaJaMI6hZ8qgHDiXXJB8IwTic8gSMrGJeJHr0kpxOlLI9yNgcmHFzeZEe9+BFKbCEg1+fpDa3yOSZVzn36/9Ja/kVSvUJvCA4liK8n+dGlFprRi9FK0meJAzaW6z/7a+sf/M5a1/9BxvXrhK3N5BphLAfPArbEuBYAscWlD2HRujSDF0qvmP+BA6uZe02zH0ufnnPiGEq6SUZ3Tinm+bsDDN6cU6SSbKiRvaBq1FpwMIJKzTmzzB9/m1mX3ubuVffoDQxQ1Cp4frBsQh3PArHevu6H1FsWQCwLCzbwfYDhOMQ1urUpuepzF1h+9pf6d65xnBnfZ+Hdm8lGE+tSXJOcxOc7sY5Zc+h4tvUAiPOsusQuNbu2XPMHiNh5UqRSEWcKeLMZOF045xeYkYhRpkkzTVK6Qe7vYukAK9cozy5QOPkS8y8fInWmQs0T56jNjOP6/nYzvGIPz4qz42l/DGyNCVLYrJhj83r37F+9S+sf/1nNr77kmFnjSzqo2X2kFiIcSh4tkXgWISeoBF41EOXeuAQuDZ+cfYcbXFfVDSQS5N5k0lzVuylRogmwypnmEmSXKP0vqLjBz2QFtheQFBvUZ8/xdRLbzL72ttMnX2NcnMKNywjbBvPdQ90tPlR4LkXJRRbW6WIh32G7S06d2+ydvULvv/T/2HruyukvTbCsdC7w09/5ERTnDs928JzLHxHUPEdJss+k2WfVsnDKcrFhGB3dPx9+QzHHr3vwtrn1VZa7zlsBintKCXOFalURog/iDHuZ8+to6WCzKF24izLn/yOhdffoXnyHOWpecr1BpZtw2iS6XP4LvhCiBKKyoIkIU9j0uGAqLNN5873bP7tK+5+9TmrV/6ddNgGS5mV9pBfi1WM7LMtcCwL37HwXYvQsan4DtXAoea7VANnn/e2KA/SD1uYR5/Rm43Umkxq4kzST/IiKSMlyhVJ0XUwlabIWCnTY+mhKNBS4LhlGqdfZuHCe8y88ga1pbNUWtN4lTpuUCIIw+fCmfMwXhhRAuR5hlYarRVaKbIkprt2h7Vvv2D1L39k59a39DZvM9xZRee5+T5975lzP6LIsR19XQBl36HiGXHWAoeSa7a4ni0IXBvXtnAsgSV+xOV/SFlFevevez87evW51GRKkUszpSrKJFFqtqOD1MQY21G6Kz6BMD+tf/S3V/z+LIS28CpNSs1Z6vNnmHn9bRYuvktr6QxOqWomXVkWQlhHPpn8IHihRHk/aZoi8xwlM7Koz+0rn3Hjsz9w98q/kg7aZPEQmadoKU0oRf+IQ2IfAmOVFRpLCEqesyvQZuhSC1zKnhGnLQpxipEl3buGwrKKex/7SQSr778uMin07qXe23Jr09lB7ZuI1k8kgzRna5jSLs6IIyfN4wWKBJZtY9kuthPg2BWaZy5w4vKHLL71S5oLp/BKJRzXM72bXjBeaFFqrZF5TpZlaCVJBj2G2+v0Vm+y+tfP2fjuCzo3rxH11skGPWSWIsxxpjCTD1+IAhPXHFlFMxTXwndsSp5N2bMpuTaBaxXW1MKxBbYlCsGKwrtbPJ4Qu6EYIcRP9iHam1mzF/vT6N05NlKZLvSjOkWpNFmuiHJJnBlrOMgUw9SELXKpiu8HqfmJM+L9T0aZ4c5CYLkuYW2a8tQ8zaWXmX7lLVqnXqE2s0BQa+L4Aa7vH+max6fJCy1KAK0UUhkrKKUkTxOyaEBn9Sadlet0bn9vtrUrNxlsrpFEO2RxF5Xn5gEecc3o3dQwIzbXtvBsgWeba7cQpGNZu+J0i3ipU4RdLLFf4Bau/Whjw2Ux53Nk+aQ257xMmXNhXiSA50rdc51K8/XR2XC0VB5JKLurSiBsB8cP8EsNgmqdcGKS5tJ5GgunaSycojq3TKkxiV8q47ieEa5lPVdhjsfhhRflfmSeI6UstnGKLI6I2lts3/iWnet/p3Prezrr1xhs3CLutcnjmDwdoGQOo/zax3hn313kjOKsFIK1cW2BY5lEhl3Luc/qOrYR70+RSlX0PN0nysIq5lqTSVPelklZCK/YxhY//1iW6p66OQvHD3D8En65QdiaoT67TG12gdrcIhOnzxeWsYFlmwE6tm1jH9KogKPEWJQPYRRKSZKYZDhgsLVuBHrzKu2bf6d9+3vaK9+RdnbQWYJwgAPqjDZyH5m0wP2fL9xDgkeaBGWcVcX1/UVPwtrnpnpCtAatME/XxnZCqnMLNBbOMrH0Es3lV5lYOkd19gSlRgs/CBCW/dyGNZ6EsSgfAaUUaZKQRkOSQZekt8NwZ5PB5iqDjRV6ayt0V2/TXbvJcOs2+XBgYm3WriuS3X3uY66/H7s9j2PBDuIxHvCgxkmkTBWG7Qf49SaV6ZNUp05QmZynNrdIZfoE5dYMpcYUXqWKX67ih6UXdmv6KIxF+YhIKZFSglYomZMnCVnUJ+q2GWxv0Fu/Q+fuDYbr3zPc2iDaaTNor5H0dsjjCC0lWNoYBQvYb+UeHI84ZPZ5fkeeIV18HoHt+njlCn51ilKjRak1RWlyjursEtXpE1RaMwT1FkG1jl8qY7s+CGFGlBfzScc8mLEon4DdhIQsJU9isnhIPmjT37jL5o1rrF69Qvvm34g2VpFRH6UzlEqQKjXzLEYxUA1a/LAg+xm/GnaDLgLQRS6xMBtcy3KwLQ/L8bAcn6DRonZiieap15hafonmwjJ+YwonKOEGIY7nY1m26a00Pic+FmNRPiFaa7I0LRITJFrmyCwzXtx4SDIcMOzsMNy4S3f1FuvfXWHzb1+QtdeRiTQF2CiwFSAB/UMr+mO7zMfZfd5/l+/L/dMqxwT0bcAGbYL1luvgVJvUT5ymufQyjcUz1GcXqLZmCGpNbD/E9QPT9t9xwbZxXBfX9XbPiy9iWONJGIvyAFBKoVRRcVJsRUchkCzNSOKIbNAj7u3QX79Df2OFvLdF3B+S9Ackgw5xf5u4s07a20amCSpTKKl2RTuqaDG3q/i31rtZMw9iZOmEsArLZ5xQQltAITpbYLkWwrFxyzX86iR+tUVQbRBUagSVKm51grA5RWlihrA5SVitE1SqeEHIbl6S2Dszm3DGeIv6cxmL8imTF2EWtEYpYxmVzFFpRDwYEPW6RO1thjvrDDdXiHfWyId9siglTzNUlpHnCUpl5k+eo5XJQlJ5updp9AMEwrKwHNeEHCzXXFsOluViOR624+J4Hm7oYgcBXrVF2JwlnJih1GxRqjcJq3WcoFw8RhGyKKr6D2vS8fPOWJTPiNE2VxWB/N3wxL6mQcbqKZCSeNgjjYZk0ZC43yOLhubMGkdkSUQeDcmTIXokzPsRAsv2cPwQJyjh+CFuWMIJQtyghF+u4IVlvFKZoFxBOG6xbRZ7zuLdbaf5aFsWrnc0W/0/T4xF+QxRSu0T4I9hHD5pEpNnGUrmyCxHK4mSEi2lsbjSfM5Yygc8jACBhbBthG1jWeajsGxTAO44CNvGLq4d13toXeLofDgOZTx9xqI8okgpd0V8j4z3FzM+MvfHSO+tRRSYXrpjC3g0GItyzJgjxv8HR85zOJty2rkAAAAASUVORK5CYII=;" parent="1" vertex="1">
          <mxGeometry x="-2250" y="280" width="58.47" height="60" as="geometry" />
        </mxCell>
      </root>
    </mxGraphModel>
  </diagram>
</mxfile>
